<svg width="103" height="109" viewBox="0 0 103 109" fill="none" xmlns="http://www.w3.org/2000/svg">
<path d="M51.5 103.866C79.9426 103.866 103 80.6146 103 51.9329C103 23.2512 79.9426 0 51.5 0C23.0574 0 0 23.2512 0 51.9329C0 80.6146 23.0574 103.866 51.5 103.866Z" fill="#F0F4F7"/>
<path d="M50.9951 80.4452C66.8895 80.4452 79.7745 67.4519 79.7745 51.4239C79.7745 35.3959 66.8895 22.4026 50.9951 22.4026C35.1007 22.4026 22.2157 35.3959 22.2157 51.4239C22.2157 67.4519 35.1007 80.4452 50.9951 80.4452Z" fill="white" stroke="#B8C0CC" stroke-width="1.88" stroke-miterlimit="10"/>
<path d="M50.4902 27.4939V51.9329L62.6079 41.5357" stroke="#B8C0CC" stroke-width="1.88" stroke-linecap="round" stroke-linejoin="round"/>
<path d="M58.6718 65.9473C58.6718 70.0602 55.3654 73.3944 51.2868 73.3944C47.2082 73.3944 43.9018 70.0602 43.9018 65.9473C43.9018 61.8344 47.2082 58.5002 51.2868 58.5002C55.3654 58.5002 58.6718 61.8344 58.6718 65.9473ZM62.7404 76.3627C64.1906 77.2675 65.9438 78.9856 67.1394 82.2929H35.3916C35.4048 82.2536 35.4184 82.2134 35.4324 82.1726C35.7042 81.3799 36.1302 80.3321 36.7474 79.2925C37.9949 77.191 39.8996 75.3088 42.7574 75.3088H59.8657C59.8705 75.3091 59.8763 75.3096 59.8833 75.3101C59.9132 75.3126 59.9638 75.3176 60.0326 75.3269C60.1705 75.3455 60.3808 75.3815 60.6458 75.4498C61.1759 75.5864 61.9207 75.8513 62.7404 76.3627Z" fill="white" stroke="#B8C0CC" stroke-width="1.88"/>
<path d="M31.318 108C31.0029 108 30.6939 107.877 30.4545 107.646C30.2143 107.416 30.0615 107.095 30.0349 106.743L28.218 82.7165C28.2035 82.5245 28.2274 82.3318 28.2877 82.151C28.3481 81.9703 28.4431 81.8063 28.5653 81.669C28.6875 81.5317 28.834 81.424 28.9947 81.351C29.1553 81.278 29.3275 81.2409 29.5008 81.241H73.0759C73.2502 81.241 73.4234 81.2786 73.5848 81.3527C73.7462 81.4267 73.8932 81.536 74.0151 81.675C74.1372 81.8142 74.2315 81.98 74.2904 82.1625C74.3493 82.3452 74.371 82.5393 74.3538 82.7322L74.3537 82.7333L72.2351 106.761C72.2046 107.108 72.0505 107.426 71.811 107.653C71.5724 107.879 71.2663 108 70.954 108H31.318Z" fill="white" stroke="#0058E5" stroke-width="1.88"/>
<path d="M51.3857 97.5254C52.9956 97.5254 54.3008 96.2093 54.3008 94.5858C54.3008 92.9624 52.9956 91.6462 51.3857 91.6462C49.7758 91.6462 48.4706 92.9624 48.4706 94.5858C48.4706 96.2093 49.7758 97.5254 51.3857 97.5254Z" fill="#B8C0CC"/>
</svg>
