<svg width="621" height="630" viewBox="0 0 621 630" fill="none" xmlns="http://www.w3.org/2000/svg">
<path d="M231.083 261.334C234.677 263.813 238.299 266.246 241.891 268.726C252.719 276.214 263.572 283.673 274.142 291.555C277.475 293.949 280.64 296.573 283.836 299.159C285.823 300.831 287.714 302.624 289.669 304.338C294.226 308.606 297.497 311.94 300.591 317.67C301.758 319.882 302.569 322.245 303.336 324.611C304.297 327.497 304.754 328.721 305.053 331.339C305.144 332.18 305.202 333.025 305.216 333.868C305.127 335.85 304.871 337.848 305.197 339.839C305.514 341.682 305.876 343.538 306.618 345.277C307.906 348.307 309.757 351.071 312.049 353.416C315.125 356.623 318.666 359.382 322.534 361.465C324.592 362.568 326.764 363.408 328.931 364.23C331.139 365.084 333.355 365.9 335.609 366.597C340.324 368.146 345.063 369.666 349.931 370.463C352.021 370.831 354.129 370.968 356.233 371.142C359.679 371.393 363.124 371.635 366.571 371.782C371.864 372.055 377.154 372.186 382.442 372.211C384.142 372.179 385.857 372.299 387.548 372.162C388.952 371.969 390.31 371.502 391.506 370.754C390.254 370.011 388.859 369.518 387.446 369.333C385.642 369.192 383.833 369.296 382.029 369.26C377.517 369.247 373.004 369.133 368.487 368.948C363.898 368.729 361.254 368.594 356.76 368.252C353.187 368.029 349.621 367.577 346.111 366.703C343.234 366.026 340.403 365.118 337.579 364.213C334.137 363.13 332.571 362.563 329.142 361.252C322.667 358.849 318.348 355.994 313.518 350.903C312.096 349.491 309.817 346.073 309.026 343.741C308.353 341.865 308.359 341.498 307.968 339.307C307.622 336.938 308.337 334.226 307.863 330.981C307.579 328.369 306.73 325.85 305.886 323.358C305.123 320.978 304.269 318.617 303.083 316.407C299.896 310.143 294.844 305.102 289.671 300.52C287.732 298.773 285.796 297.024 283.738 295.428C281.271 293.419 278.794 291.423 276.207 289.585C266.549 282.447 256.153 275.378 247.092 269.259C242.134 265.942 237.199 262.589 232.196 259.349C231.043 258.741 229.775 258.373 228.505 258.247C229.171 259.419 230.038 260.491 231.08 261.333L231.083 261.334Z" fill="black"/>
<g clip-path="url(#clip0_63_1270)">
<path d="M226.919 258.723C227.814 261.895 229.108 265.7 229.713 267.804C230.263 269.641 230.831 271.474 231.401 273.306C231.66 273.994 231.739 274.765 232.145 275.388C233.362 276.877 235.181 275.382 234.457 274.006C234.45 273.989 234.442 273.973 234.436 273.956C234.113 272.928 233.802 271.897 233.477 270.871C232.459 267.553 231.166 263.301 229.829 259.076C229.874 259.058 229.919 259.04 229.963 259.023C230.876 258.673 231.826 258.415 232.771 258.157C235.464 257.393 240.48 256.476 244.325 255.614C245.908 255.251 246.391 255.112 247.182 254.882C247.444 254.776 247.727 254.706 247.987 254.595C248.194 254.533 248.381 254.412 248.509 254.235C248.849 253.792 248.73 253.067 248.264 252.708C248.021 252.537 247.747 252.431 247.459 252.473C247.464 252.47 247.478 252.472 247.5 252.474C247.376 252.477 247.253 252.489 247.128 252.494C246.465 252.519 245.814 252.609 245.163 252.707C242.513 253.134 239.887 253.666 237.26 254.198C235.063 254.633 232.89 255.16 230.741 255.763C229.257 256.272 226.728 256.616 226.922 258.723L226.919 258.723Z" fill="black"/>
</g>
<g clip-path="url(#clip1_63_1270)">
<path d="M392.933 370.309C390.862 367.74 388.18 364.752 386.797 363.052C385.57 361.578 384.327 360.115 383.084 358.654C382.576 358.124 382.197 357.441 381.584 357.034C379.9 356.165 378.872 358.322 380.071 359.294C380.084 359.308 380.097 359.319 380.11 359.333C380.81 360.151 381.502 360.978 382.203 361.794C384.443 364.447 387.302 367.851 390.19 371.211C390.157 371.247 390.124 371.282 390.091 371.317C389.415 372.028 388.67 372.669 387.927 373.308C385.826 375.155 381.708 378.126 378.616 380.552C377.346 381.558 376.969 381.891 376.354 382.439C376.162 382.648 375.937 382.833 375.75 383.046C375.589 383.191 375.471 383.383 375.427 383.601C375.3 384.156 375.697 384.779 376.258 384.916C376.543 384.973 376.83 384.955 377.072 384.794C377.068 384.799 377.054 384.803 377.035 384.811C377.144 384.756 377.249 384.693 377.359 384.635C377.941 384.331 378.488 383.972 379.031 383.607C381.229 382.091 383.364 380.487 385.5 378.883C387.289 377.55 389.021 376.143 390.701 374.674C391.825 373.574 393.948 372.186 392.93 370.311L392.933 370.309Z" fill="black"/>
</g>
<defs>
<clipPath id="clip0_63_1270">
<rect width="16.3534" height="27.8629" fill="white" transform="matrix(-0.787274 -0.616603 0.586835 -0.809706 233.554 276.558)"/>
</clipPath>
<clipPath id="clip1_63_1270">
<rect width="16.04" height="28.4229" fill="white" transform="matrix(0.96953 0.244973 -0.196403 0.980523 379.856 356.543)"/>
</clipPath>
</defs>
</svg>
