<svg width="721" height="667" viewBox="0 0 721 667" fill="none" xmlns="http://www.w3.org/2000/svg">
<path fill-rule="evenodd" clip-rule="evenodd" d="M278.397 397.687C279.843 400.509 283.108 401.634 286.171 402.431L286.172 402.428C290.393 403.449 294.75 403.845 299.079 404.114C313.052 404.866 326.931 402.812 340.448 400.03C347.217 398.589 353.914 396.862 360.414 394.644C367.677 392.043 374.821 389.174 381.873 386.139C390.066 382.564 398.092 378.654 405.779 374.265C406.802 373.625 407.834 372.996 408.866 372.368C410.556 371.338 412.247 370.308 413.898 369.228C419.126 365.733 424.085 361.891 428.557 357.608C434.289 352.113 439.511 345.946 442.482 338.776C444.137 334.887 445.119 330.79 445.901 326.674C446.625 323.061 447.153 319.401 447.136 315.708C447.236 297.592 437.029 277.014 422.692 264.324C422.105 263.82 421.519 263.314 420.933 262.807C417.661 259.981 414.389 257.154 410.854 254.604C406.889 251.697 402.59 249.187 398.075 247.062C397.29 246.705 396.51 246.338 395.73 245.972C394.352 245.325 392.973 244.678 391.569 244.08C388.673 242.705 385.591 242.052 382.511 243.145C383.938 244.248 385.502 245.203 387.142 246.011C387.813 246.334 388.508 246.608 389.203 246.882C389.768 247.105 390.332 247.327 390.884 247.576C392.078 248.138 393.136 248.621 394.116 249.069C397.052 250.41 399.298 251.435 402.452 253.302C406.887 255.923 410.963 259.011 414.861 262.264C415.356 262.69 415.832 263.097 416.293 263.491C420.082 266.733 422.794 269.054 426.39 273.204C436.313 284.756 443.077 300.705 443.352 314.345C443.485 319.228 442.635 324.05 441.613 328.807C440.899 332.422 439.324 337.354 436.902 341.69C436.513 342.475 433.982 346.257 432.323 348.191C425.717 356.193 418.26 362.286 408.608 368.33C407.286 369.141 405.964 369.954 404.643 370.767C403.929 371.207 403.214 371.646 402.5 372.086C395.333 375.972 388.024 379.641 380.473 382.891C371.022 386.892 361.519 390.903 351.544 393.745C337.851 397.593 317.568 401.174 303.093 400.82C299.445 400.746 295.8 400.491 292.181 400.021C291.926 399.984 291.685 399.949 291.454 399.916C288.547 399.496 287.411 399.333 284.594 398.307C282.745 397.524 280.722 397.087 278.697 397.12C278.624 397.116 278.55 397.12 278.476 397.123C278.369 397.129 278.263 397.134 278.16 397.116C278.176 397.257 278.245 397.389 278.314 397.52C278.343 397.575 278.372 397.631 278.397 397.687ZM367.379 378.844C367.509 378.905 367.651 378.954 367.802 378.961L367.809 378.955C367.902 378.951 367.994 378.942 368.085 378.933C368.177 378.924 368.269 378.915 368.362 378.911C370.597 378.823 371.555 378.384 372.75 377.836C372.981 377.731 373.22 377.621 373.479 377.509C374.26 377.189 375.046 376.88 375.833 376.57C376.869 376.163 377.906 375.755 378.93 375.322C380.16 374.827 381.328 374.227 382.497 373.626C383.084 373.324 383.671 373.023 384.266 372.734C385.39 372.191 386.536 371.684 387.681 371.176C389.473 370.382 391.264 369.588 392.975 368.66C395.475 367.256 397.821 365.654 400.11 363.984C403.563 361.669 406.8 359.109 409.9 356.413C411.982 354.562 414.042 352.69 415.917 350.661C418.096 348.309 420.443 345.231 421.482 343.773C422.061 342.989 422.656 342.212 423.25 341.436C424.336 340.017 425.423 338.597 426.419 337.124C428.273 334.167 429.875 331.065 431.175 327.868C432.25 325.274 433.059 322.58 433.574 319.838C433.931 317.607 434.054 315.343 434.177 313.086C434.188 312.872 434.2 312.658 434.212 312.444C434.253 309.555 434.266 306.639 433.538 303.793C433.213 302.287 432.59 300.861 431.968 299.435C431.717 298.86 431.466 298.285 431.235 297.705C430.218 295.028 429.121 292.374 427.677 289.854C426.251 287.351 424.532 285.007 422.808 282.666C422.369 282.091 421.956 281.518 421.551 280.956C419.569 278.205 417.779 275.72 413.981 274.489C414.264 276.181 414.96 277.805 415.819 279.33C416.301 280.081 416.85 280.796 417.4 281.51C417.805 282.036 418.21 282.563 418.588 283.105C418.89 283.515 419.193 283.926 419.496 284.336C421.315 286.796 423.136 289.261 424.604 291.911C425.66 293.78 426.154 295.034 426.975 297.116C427.137 297.527 427.311 297.971 427.506 298.458C427.751 299.075 428.017 299.687 428.284 300.299C428.962 301.857 429.64 303.415 429.974 305.062C430.714 308.947 430.398 313.48 430.187 316.095C429.563 323.298 427.317 327.937 423.808 334.243C422.629 336.199 421.69 337.414 420.518 338.932C419.914 339.713 419.249 340.574 418.457 341.658C416.229 344.653 415.038 346.241 412.099 349.325C405.809 355.646 400.463 359.552 393.127 364.412C390.668 365.977 387.982 367.178 385.295 368.379C384.458 368.753 383.621 369.127 382.791 369.512C382.246 369.781 381.73 370.038 381.236 370.284C378.758 371.519 376.839 372.475 374.692 373.234C374.264 373.411 373.831 373.582 373.399 373.752C372.509 374.104 371.618 374.455 370.76 374.865C369.347 375.653 368.164 377.266 367.71 377.991C367.656 378.08 367.621 378.176 367.586 378.272C367.524 378.443 367.463 378.61 367.299 378.726C367.222 378.77 367.269 378.791 367.322 378.815C367.342 378.824 367.363 378.833 367.379 378.844Z" fill="black"/>
<g clip-path="url(#clip0_63_1662)">
<path d="M381.55 240.725C385.687 238.907 390.858 236.952 393.612 235.757C396.037 234.736 398.476 233.738 400.914 232.742C401.874 232.414 402.748 231.83 403.779 231.709C406.476 231.672 406.652 234.823 404.539 235.268C404.515 235.276 404.491 235.281 404.467 235.29C403.095 235.845 401.731 236.415 400.36 236.968C395.955 238.785 390.322 241.127 384.675 243.4C384.699 243.461 384.723 243.522 384.747 243.583C385.25 244.819 385.883 246.014 386.512 247.205C388.274 250.62 392.08 256.546 394.832 261.227C395.956 263.16 396.271 263.774 396.783 264.782C396.921 265.142 397.118 265.493 397.248 265.854C397.381 266.12 397.432 266.415 397.37 266.699C397.234 267.429 396.37 267.932 395.555 267.764C395.148 267.664 394.778 267.474 394.548 267.143C394.55 267.15 394.566 267.163 394.588 267.184C394.474 267.055 394.369 266.918 394.256 266.786C393.654 266.085 393.13 265.34 392.613 264.59C390.544 261.51 388.604 258.362 386.665 255.214C385.034 252.589 383.518 249.91 382.106 247.189C381.225 245.231 379.184 242.345 381.552 240.728L381.55 240.725Z" fill="black"/>
</g>
<g clip-path="url(#clip1_63_1662)">
<path d="M276.131 394.996C280.319 393.274 285.546 391.44 288.334 390.309C290.788 389.345 293.255 388.403 295.721 387.465C296.691 387.16 297.581 386.596 298.615 386.498C301.313 386.523 301.402 389.675 299.276 390.071C299.252 390.079 299.228 390.084 299.204 390.092C297.816 390.615 296.436 391.154 295.05 391.674C290.593 393.389 284.894 395.6 279.183 397.74C279.205 397.802 279.227 397.864 279.25 397.926C279.719 399.172 280.318 400.38 280.915 401.585C282.582 405.037 286.225 411.046 288.847 415.786C289.919 417.744 290.216 418.364 290.701 419.383C290.829 419.746 291.015 420.101 291.136 420.465C291.261 420.733 291.304 421.03 291.235 421.312C291.078 422.038 290.2 422.521 289.39 422.335C288.985 422.225 288.621 422.027 288.399 421.691C288.401 421.698 288.417 421.711 288.438 421.733C288.328 421.601 288.227 421.462 288.117 421.327C287.535 420.614 287.031 419.857 286.535 419.096C284.55 415.97 282.698 412.78 280.846 409.591C279.287 406.93 277.846 404.219 276.508 401.468C275.682 399.491 273.72 396.561 276.134 395L276.131 394.996Z" fill="black"/>
</g>
<defs>
<clipPath id="clip0_63_1662">
<rect width="23.101" height="37.0378" fill="white" transform="matrix(-0.980934 -0.19434 -0.212755 0.977106 406.328 232.144)"/>
</clipPath>
<clipPath id="clip1_63_1662">
<rect width="23.0897" height="37.0595" fill="white" transform="matrix(-0.97621 -0.216827 -0.239756 0.970833 301.152 386.992)"/>
</clipPath>
</defs>
</svg>
