<svg width="388" height="460" viewBox="0 0 388 460" fill="none" xmlns="http://www.w3.org/2000/svg">
<path d="M95.6245 140.194C97.2585 140.885 98.6959 142.057 100.063 143.312C101.495 144.572 102.898 145.88 104.284 147.216C108.736 151.523 112.946 156.177 117.017 160.99C126.318 172.145 133.813 182.836 141.207 195.549C146.271 204.533 150.624 214.054 155.282 223.34C159.267 231.392 163.321 239.407 167.848 247.045C170.9 251.905 173.027 255.496 176.966 259.933C179.93 263.142 181.794 264.917 185.701 266.787C186.273 267.047 188.206 267.954 189.844 268.404C191.956 268.951 192.818 269.156 194.378 269.211C199.691 269.2 203.607 267.953 208.961 265.888C214.076 263.877 219.135 261.627 224.37 260.071C227.819 259.037 231.377 258.561 234.941 258.804C237.788 258.906 240.673 259.605 242.87 261.954C245.139 264.273 246.402 267.717 246.974 271.156C247.967 277.045 247.116 283.028 246.532 288.896C246.091 292.893 245.308 300.024 245.097 302.378C244.752 306.289 244.415 310.976 245.111 313.615C245.628 315.652 246.11 316.363 246.927 317.026C247.007 317.085 247.088 317.137 247.172 317.186C251.216 318.775 256.036 315.179 259.42 311.606C262.903 307.859 265.871 303.486 268.809 299.135C272.859 293.13 276.401 286.988 280.166 279.735C281.257 277.643 282.335 275.538 283.265 273.333C283.676 272.395 283.998 271.403 284.386 270.454C285.222 268.581 285.733 267.942 286.792 266.372C287.161 268 287.11 269.724 286.763 271.343C286.483 272.488 286.04 273.562 285.607 274.633C284.713 276.771 283.679 278.817 282.622 280.843C279.217 287.575 275.463 294.042 271.443 300.262C265.909 308.393 257.378 322.354 247.49 320.698C243.801 320.051 242.24 315.396 241.999 311.43C241.734 306.902 242.368 302.391 242.755 297.901C243.22 293.449 243.746 289.004 244.19 284.546C244.649 280.319 244.93 274.94 244.166 271.322C242.973 265.128 240.007 262.431 235.705 262.197C233.296 262.048 230.871 262.036 228.489 262.492C223.537 263.484 218.786 265.495 214.043 267.389C207.301 270.136 200.299 273.102 193.049 272.45C190.411 272.157 187.822 271.342 185.353 270.183C183.548 269.36 181.751 268.456 180.132 267.171C172.419 261.048 167.126 251.67 161.963 242.677C155.216 230.245 149.185 217.296 142.783 204.616C138.729 196.475 134.137 188.741 129.292 181.249C124.322 173.453 117.923 164.424 111.352 156.878C108.455 153.538 105.451 150.333 102.316 147.315C100.241 145.232 98.4123 143.892 96.4762 141.844C95.9186 141.226 95.3902 140.567 94.8863 139.884C95.1348 139.983 95.3807 140.083 95.6246 140.197L95.6245 140.194Z" fill="black"/>
<g clip-path="url(#clip0_63_1638)">
<path d="M96.0363 139.24C98.6634 138.921 101.878 138.744 103.624 138.542C105.154 138.386 106.687 138.249 108.218 138.114C108.807 138.106 109.406 137.898 109.988 138.051C111.45 138.647 110.856 140.895 109.62 140.72C109.605 140.72 109.591 140.718 109.576 140.718C108.715 140.791 107.856 140.876 106.996 140.947C104.224 141.204 100.676 141.546 97.1358 141.836C97.1354 141.884 97.1349 141.932 97.1345 141.981C97.1359 142.963 97.2154 143.946 97.2943 144.925C97.4973 147.724 98.2533 152.754 98.7132 156.668C98.8968 158.282 98.9321 158.785 98.9878 159.609C98.9837 159.893 99.0126 160.184 99.0039 160.467C99.0174 160.684 98.9804 160.903 98.8852 161.087C98.6519 161.568 98.0764 161.721 97.674 161.415C97.4764 161.251 97.3187 161.033 97.267 160.748C97.2666 160.753 97.2723 160.766 97.2793 160.786C97.2462 160.669 97.2197 160.549 97.1876 160.43C97.0165 159.801 96.8965 159.158 96.7822 158.513C96.3401 155.877 95.983 153.225 95.6258 150.572C95.3205 148.356 95.0894 146.13 94.923 143.898C94.8765 142.323 94.4072 139.83 96.037 139.244L96.0363 139.24Z" fill="black"/>
</g>
<g clip-path="url(#clip1_63_1638)">
<path d="M288.483 266.467C289.263 269.495 290.042 273.239 290.552 275.254C290.982 277.023 291.397 278.799 291.809 280.574C291.932 281.264 292.221 281.93 292.21 282.641C292.009 284.465 290.046 284.171 289.946 282.688C289.943 282.67 289.942 282.654 289.938 282.636C289.709 281.638 289.47 280.644 289.242 279.647C288.485 276.437 287.505 272.331 286.569 268.225C286.529 268.233 286.489 268.241 286.449 268.249C285.643 268.427 284.852 268.697 284.063 268.966C281.804 269.707 277.823 271.499 274.699 272.743C273.41 273.248 273.004 273.38 272.338 273.593C272.104 273.64 271.871 273.726 271.637 273.767C271.461 273.821 271.274 273.817 271.104 273.739C270.664 273.551 270.424 272.902 270.596 272.375C270.692 272.113 270.84 271.889 271.064 271.777C271.06 271.777 271.05 271.786 271.035 271.798C271.125 271.738 271.218 271.686 271.309 271.627C271.792 271.312 272.297 271.056 272.803 270.806C274.881 269.813 276.989 268.917 279.097 268.021C280.856 267.264 282.639 266.593 284.439 265.996C285.723 265.658 287.678 264.659 288.481 266.468L288.483 266.467Z" fill="black"/>
</g>
<defs>
<clipPath id="clip0_63_1638">
<rect width="14.0088" height="26.4926" fill="white" transform="matrix(-0.801781 -0.597617 -0.458933 0.888471 111.267 138.944)"/>
</clipPath>
<clipPath id="clip1_63_1638">
<rect width="15.4187" height="23.9387" fill="white" transform="matrix(0.302297 -0.953214 -0.907568 -0.419906 291.729 284.303)"/>
</clipPath>
</defs>
</svg>
