<svg width="840" height="840" viewBox="0 0 840 840" fill="none" xmlns="http://www.w3.org/2000/svg">
<path d="M494.86 391.773C499.397 387.387 504.722 381.69 503.463 374.868C501.155 364.822 486.569 361.828 477.9 359.991C475.178 359.539 472.453 359.101 469.714 358.777C468.493 358.665 467.268 358.517 466.04 358.595C464.164 358.834 462.337 359.448 460.773 360.519C462.596 361.471 464.581 362.085 466.6 362.473C468.577 362.726 470.57 362.874 472.541 363.199C476.596 363.751 480.61 364.562 484.568 365.611C495.098 368.541 504.448 373.768 496.951 383.536C491.43 390.683 483.96 395.835 475.605 401.316C459.848 411.309 443.68 419.154 426.179 427.828C405.686 437.959 384.988 447.675 363.991 456.727C359.752 458.611 355.508 460.485 351.199 462.202C348.501 463.37 345.607 464.098 343.112 465.697C342.512 466.056 341.922 466.43 341.345 466.821C341.917 466.858 342.492 466.875 343.066 466.866C345.389 466.93 347.601 466.246 349.79 465.548C352.843 464.631 355.861 463.605 358.875 462.556C368.091 459.387 377.004 455.414 385.882 451.414C397.542 446.134 409.086 440.614 420.591 435.01C440.493 425.195 460.604 415.646 479.342 403.702C484.744 400.034 490.16 396.33 494.865 391.774L494.86 391.773Z" fill="black"/>
<g clip-path="url(#clip0_63_1646)">
<path d="M459.613 361.859C462.469 364.953 466.15 368.523 468.057 370.569C469.747 372.34 471.457 374.096 473.167 375.848C473.862 376.478 474.396 377.319 475.224 377.779C477.488 378.722 478.744 375.835 477.115 374.707C477.097 374.691 477.079 374.678 477.062 374.662C476.098 373.68 475.146 372.688 474.182 371.709C471.099 368.525 467.164 364.437 463.192 360.41C463.233 360.36 463.275 360.311 463.317 360.262C464.176 359.276 465.13 358.371 466.08 357.47C468.767 354.869 474.063 350.609 478.031 347.158C479.66 345.729 480.141 345.261 480.927 344.49C481.171 344.201 481.459 343.938 481.697 343.644C481.902 343.441 482.049 343.181 482.096 342.895C482.237 342.166 481.684 341.405 480.937 341.287C480.558 341.244 480.179 341.297 479.868 341.529C479.873 341.524 479.891 341.517 479.916 341.504C479.775 341.586 479.638 341.679 479.496 341.765C478.742 342.217 478.037 342.737 477.338 343.265C474.508 345.449 471.765 347.74 469.021 350.03C466.721 351.936 464.501 353.931 462.352 356C460.921 357.535 458.184 359.546 459.616 361.856L459.613 361.859Z" fill="black"/>
</g>
<g clip-path="url(#clip1_63_1646)">
<path d="M340.095 468.933C343.796 470.942 348.432 473.135 350.896 474.457C353.067 475.589 355.251 476.7 357.435 477.807C358.296 478.18 359.072 478.804 360.004 478.973C362.452 479.136 362.71 475.998 360.805 475.455C360.783 475.446 360.762 475.439 360.74 475.43C359.511 474.811 358.29 474.178 357.062 473.563C353.117 471.542 348.075 468.941 343.016 466.408C343.04 466.348 343.064 466.288 343.087 466.228C343.583 465.017 344.194 463.854 344.803 462.694C346.509 459.366 350.149 453.627 352.793 449.081C353.874 447.203 354.179 446.605 354.675 445.622C354.812 445.269 355.001 444.928 355.131 444.573C355.259 444.314 355.315 444.021 355.268 443.735C355.167 443 354.398 442.457 353.653 442.587C353.279 442.668 352.938 442.84 352.719 443.16C352.721 443.153 352.736 443.141 352.756 443.121C352.648 443.245 352.549 443.376 352.442 443.503C351.874 444.174 351.375 444.894 350.883 445.619C348.907 448.598 347.049 451.651 345.19 454.704C343.627 457.249 342.168 459.853 340.801 462.504C339.941 464.418 337.997 467.205 340.098 468.93L340.095 468.933Z" fill="black"/>
</g>
<defs>
<clipPath id="clip0_63_1646">
<rect width="21" height="37" fill="white" transform="translate(477.529 378.231) rotate(-170.587)"/>
</clipPath>
<clipPath id="clip1_63_1646">
<rect width="21" height="37" fill="white" transform="translate(362.333 478.657) rotate(170.613)"/>
</clipPath>
</defs>
</svg>
