<svg width="125" height="123" viewBox="0 0 125 123" fill="none" xmlns="http://www.w3.org/2000/svg">
<path d="M90.0552 21.2628L75.1682 18.8254L83.6453 35.351L75.4339 42.5292L90.829 45.5028L92.365 56.337L102.378 49.427L105.196 40.2258L117.392 43.3335L111.098 31.829L117.9 15.7177L101.477 22.4815L89.1543 6.63843L90.0552 21.2628Z" fill="#69A1FA"/>
<path d="M74.9087 4.6439C74.8047 4.6439 74.7123 4.60734 74.6315 4.53422L70.6123 0.768434C70.4391 0.610003 70.4276 0.329701 70.5777 0.146896C70.7279 -0.035909 70.9935 -0.0480945 71.1667 0.110337L75.1858 3.87612C75.3591 4.03455 75.3706 4.31485 75.2205 4.49766C75.1396 4.59515 75.0242 4.6439 74.9087 4.6439Z" fill="black"/>
<path d="M66.42 14.5519C66.3738 14.5519 66.316 14.5397 66.2698 14.5275C66.0504 14.4422 65.9465 14.1863 66.0273 13.9548L67.367 10.189C67.4479 9.95742 67.6904 9.84774 67.9098 9.93304C68.1293 10.0184 68.2332 10.2743 68.1524 10.5058L66.8126 14.2716C66.7433 14.4422 66.5817 14.5519 66.42 14.5519Z" fill="black"/>
<path d="M124.001 28.1857C123.897 28.1857 123.805 28.1491 123.724 28.076L120.144 24.7733C119.971 24.6149 119.948 24.3346 120.109 24.1518C120.259 23.969 120.525 23.9446 120.698 24.1152L124.278 27.4179C124.452 27.5763 124.475 27.8566 124.313 28.0394C124.232 28.1369 124.117 28.1857 124.001 28.1857Z" fill="black"/>
<path d="M24.4361 96.348L20.7768 111.207C20.7216 111.431 20.488 111.564 20.2514 111.506L5.81457 107.95C5.5779 107.892 5.43274 107.666 5.48797 107.442L9.14724 92.5828C9.20247 92.3585 9.43601 92.2257 9.67268 92.284L24.1095 95.8393C24.3461 95.8976 24.4913 96.1237 24.4361 96.348ZM20.0242 110.593L23.4819 96.5531L9.89707 93.2075L6.43941 107.248L20.0242 110.593Z" fill="black"/>
<path d="M0.419623 96.0386C0.292581 96.0386 0.165541 95.9777 0.084696 95.8558C-0.0538947 95.6608 -0.0192491 95.3805 0.165538 95.2343L2.87961 93.0894C3.06439 92.9431 3.33003 92.9797 3.46862 93.1747C3.60721 93.3697 3.57256 93.65 3.38777 93.7962L0.673704 95.9411C0.592859 96.0021 0.512017 96.0386 0.419623 96.0386Z" fill="black"/>
<path d="M93.6469 23.8343C93.5776 23.8343 93.4968 23.8099 93.4275 23.7733L90.8636 22.1525C90.6672 22.0306 90.598 21.7503 90.725 21.5431C90.8405 21.3359 91.1061 21.2628 91.3025 21.3969L93.8664 23.0178C94.0627 23.1396 94.132 23.4199 94.005 23.6271C93.9241 23.7612 93.7855 23.8343 93.6469 23.8343Z" fill="black"/>
<path d="M97.7469 17.3386C97.5621 17.3386 97.3888 17.2045 97.3426 16.9974L96.3148 12.6588C96.257 12.4272 96.3956 12.1835 96.615 12.1226C96.8345 12.0616 97.0655 12.2079 97.1232 12.4394L98.1511 16.778C98.2088 17.0096 98.0702 17.2533 97.8508 17.3142C97.8162 17.3386 97.7815 17.3386 97.7469 17.3386Z" fill="black"/>
<path d="M46.8494 41.4201C48.4894 44.3572 50.3026 45.9537 52.2314 46.5143L54.3218 69.2309L62.7181 67.7319L60.5353 43.9185C63.9654 40.823 60.8471 35.1804 61.4245 36.1066L62.2792 34.2298C62.2792 34.2298 60.0502 31.9265 55.1649 30.5737C50.268 29.2209 43.2345 34.9245 46.8494 41.4201Z" fill="#F7F9FB"/>
<path d="M54.3101 69.6818C54.2177 69.6818 54.1253 69.6452 54.056 69.5965C53.9636 69.5233 53.9059 69.4136 53.8943 69.2918L51.8386 46.8677C49.829 46.173 48.0389 44.4303 46.4913 41.6638C44.9783 38.9461 45.1169 35.9969 46.8493 33.5839C48.8127 30.854 52.4276 29.3793 55.2687 30.1715C60.2118 31.5364 62.4754 33.8398 62.5793 33.9373C62.7064 34.0713 62.741 34.2785 62.6602 34.4491L61.8633 36.2041C63.076 39.5677 62.7641 42.3707 60.974 44.1256L63.1337 67.7197C63.1568 67.9512 63.0067 68.1584 62.7872 68.1949L54.3909 69.694C54.3563 69.6818 54.3332 69.6818 54.3101 69.6818ZM47.2073 41.2007C48.7087 43.8941 50.4296 45.5393 52.3352 46.0877C52.4969 46.1365 52.6239 46.2949 52.6355 46.4777L54.6797 68.719L62.2444 67.3662L60.0963 43.9672C60.0847 43.8209 60.1425 43.6869 60.2464 43.5894C61.9326 42.066 62.1982 39.5677 61.0086 36.3747C60.9394 36.1797 60.8008 35.8141 61.1472 35.6313C61.1588 35.6313 61.1703 35.6191 61.1819 35.6191L61.7593 34.3638C61.0895 33.7788 58.9182 32.0848 55.0493 31.0246C52.52 30.3299 49.2862 31.6583 47.5192 34.1201C46.6183 35.351 45.3941 37.9224 47.2073 41.2007Z" fill="black"/>
<path d="M54.9453 36.326C54.5064 36.07 54.0675 35.8019 53.6287 35.546C54.287 34.1567 54.8298 32.5724 54.9799 31.1709C55.4304 29.7328 55.3033 28.1729 53.7673 27.4051C51.8385 26.4545 50.4642 28.1241 49.8059 29.8547C48.905 30.0375 48.1312 30.7687 47.7039 31.6827C47.5191 32.0849 47.3459 32.5602 47.2535 33.0355C47.1842 33.0964 47.1149 33.1451 47.0572 33.2061C46.5259 35.2901 46.0293 37.435 45.729 39.5799C46.1332 40.2624 46.5605 40.9083 46.8493 41.4323C48.547 44.4913 50.4295 46.0756 52.4507 46.5752C52.7047 46.3559 52.9357 46.1121 53.1436 45.8318C53.6287 45.1859 54.5064 41.3592 53.236 41.7004C51.827 42.0782 50.1986 40.2624 51.4574 38.9462C51.6191 38.7755 51.7924 38.5684 51.9771 38.3246C52.4276 38.5927 52.878 38.8609 53.3284 39.129C55.0723 40.1527 56.6777 37.3618 54.9453 36.326Z" fill="black"/>
<path d="M93.0346 44.5156C92.4803 33.7423 92.0068 30.2325 94.5476 29.7815C97.585 29.2453 93.2772 32.8039 96.5456 35.2657C98.4743 36.716 100.495 33.5839 99.687 31.1221C98.6129 27.8316 96.5456 30.5859 95.8295 29.1966C95.1135 27.8072 97.0307 25.5283 99.3059 26.162C101.581 26.7957 102.055 30.2081 102.055 30.2081C102.055 30.2081 99.4214 24.139 100.853 24.0171C102.286 23.8952 104.803 30.5859 104.803 30.5859C104.803 30.5859 101.454 24.139 103.487 24.0171C105.519 23.8952 109.042 33.0477 110.878 44.5156H93.0346Z" fill="#F7F9FB"/>
<path d="M110.878 44.9665C110.682 44.9665 110.497 44.8081 110.463 44.6009C108.522 32.4261 105.023 24.468 103.533 24.468C103.521 24.468 103.521 24.468 103.51 24.468C103.371 24.4802 103.337 24.5289 103.314 24.5655C103.129 24.9311 103.29 25.7964 103.637 26.8079C104.295 28.1119 104.85 29.5256 105.196 30.4274C105.277 30.6468 105.185 30.8905 104.988 30.988C104.792 31.0855 104.549 31.0002 104.445 30.8052C104.203 30.3299 103.429 28.7944 102.909 27.271C102.066 25.6014 101.292 24.468 100.911 24.468H100.9C100.715 24.6996 100.934 25.8329 101.396 27.271C102.239 28.5263 102.459 30.0496 102.482 30.1471C102.517 30.3665 102.39 30.5737 102.182 30.6346C101.974 30.6956 101.766 30.5981 101.685 30.3909C101.454 29.8668 101.015 28.8066 100.646 27.6732C100.288 27.1735 99.8257 26.7591 99.2136 26.5885C97.9778 26.2473 96.973 26.881 96.488 27.5391C96.1184 28.0388 96.0145 28.5994 96.2108 28.9894C96.3263 29.2209 96.4764 29.2331 97.1116 29.0991C97.9894 28.9163 99.3291 28.6359 100.103 30.9758C100.692 32.7795 99.9412 34.7416 98.8671 35.5825C98.0587 36.2163 97.1347 36.2285 96.3147 35.6191C94.3167 34.1201 94.8249 32.1824 95.1367 31.0246C95.2176 30.7321 95.3331 30.2934 95.2869 30.1715C95.2753 30.1715 95.2407 30.1593 95.1021 30.1593C94.9981 30.1593 94.848 30.1715 94.6285 30.2081C92.7922 30.5371 92.8384 32.9989 93.3004 41.4932C93.3466 42.4195 93.4043 43.4188 93.4621 44.4912C93.4736 44.735 93.3004 44.9422 93.0694 44.9544C92.8269 44.9665 92.6421 44.7837 92.6305 44.54C92.5728 43.4675 92.5266 42.4804 92.4688 41.5542C91.9953 32.7795 91.8336 29.8181 94.5015 29.355C94.8018 29.3062 95.1367 29.2575 95.437 29.3306C95.1252 28.6359 95.2753 27.7585 95.8297 27.0029C96.4649 26.1376 97.793 25.2967 99.4215 25.7476C99.6987 25.8208 99.9643 25.9426 100.195 26.0889C100.01 25.2114 99.9527 24.4436 100.184 24.0293C100.322 23.7733 100.553 23.6271 100.83 23.6027C101.35 23.554 101.893 24.0414 102.436 24.7849C102.447 24.5411 102.505 24.3339 102.598 24.1633C102.725 23.9196 102.979 23.6393 103.475 23.6027C106.247 23.4565 109.677 34.3029 111.306 44.4669C111.34 44.7106 111.19 44.9422 110.959 44.9787C110.925 44.9665 110.901 44.9665 110.878 44.9665ZM96.0953 30.0009C96.1646 30.3543 96.0491 30.793 95.9221 31.2683C95.6333 32.3774 95.2638 33.7545 96.7883 34.9001C97.435 35.3876 98.0009 35.156 98.3474 34.8757C99.1558 34.2298 99.7449 32.6698 99.2829 31.2683C98.7516 29.6597 98.0933 29.7937 97.2502 29.9643C96.9037 30.0375 96.4764 30.1349 96.0953 30.0009Z" fill="black"/>
<path d="M93.0347 44.5156C92.9076 45.6734 96.638 71.4367 91.7296 80.7841C87.5834 88.7057 82.2708 72.1436 81.4046 69.1212C78.0207 57.2876 60.3965 62.333 63.8036 74.2397C66.3675 83.2094 69.6128 92.0815 77.0967 97.7241C84.084 102.989 93.7045 103.818 100.83 98.4431C116.145 86.9142 113.119 61.7846 110.867 44.5156H93.0347Z" fill="#F7F9FB"/>
<path d="M89.7778 102.55C85.3429 102.55 80.804 101.051 76.8658 98.0897C69.0238 92.179 65.8016 82.7462 63.4109 74.3738C62.4292 70.937 63.0644 67.7075 65.2126 65.2944C67.6264 62.5767 71.6339 61.3458 75.168 62.2233C78.4364 63.0276 80.7925 65.4407 81.8088 68.9993C83.3102 74.2519 86.5094 82.1734 89.1426 82.4659C89.9164 82.5512 90.6671 81.9175 91.3716 80.5769C95.3907 72.9113 93.462 53.4365 92.8268 47.0383C92.6535 45.3199 92.5958 44.7106 92.6189 44.479C92.642 44.2597 92.8268 44.0891 93.0347 44.0891H110.89C111.098 44.0891 111.282 44.2475 111.306 44.4668C113.511 61.3946 116.826 86.9751 101.096 98.8209C97.7698 101.307 93.82 102.55 89.7778 102.55ZM72.8235 62.8327C70.1903 62.8327 67.5455 63.9539 65.8131 65.9038C63.8844 68.0731 63.307 70.9858 64.2078 74.1178C66.5638 82.344 69.7168 91.6184 77.3508 97.3706C84.5806 102.818 93.924 103.111 100.599 98.0897C115.81 86.6461 112.691 61.6871 110.52 44.9665H93.4735C93.5082 45.4052 93.5775 46.1365 93.6583 46.9408C94.3628 54.0946 96.2454 73.0941 92.0992 81.0035C91.2214 82.6853 90.1936 83.4653 89.0502 83.3434C85.0195 82.8925 81.4046 70.6445 81.0004 69.2552C80.0764 66.0135 77.9283 63.8198 74.9717 63.0886C74.2672 62.9058 73.5511 62.8327 72.8235 62.8327Z" fill="black"/>
<path d="M101.131 39.7261C100.946 39.7261 100.784 39.6043 100.726 39.4093C100.726 39.3971 100.195 37.6787 97.3078 36.0213C97.0999 35.8994 97.0306 35.6313 97.1345 35.4241C97.25 35.2047 97.5041 35.1316 97.7005 35.2413C100.934 37.0937 101.512 39.0802 101.535 39.1534C101.604 39.3849 101.466 39.6286 101.246 39.7018C101.211 39.714 101.165 39.7261 101.131 39.7261Z" fill="black"/>
<path d="M84.6961 106.426C84.673 106.182 84.4651 105.999 84.2456 106.023L38.0372 110.386C37.8178 110.411 37.6445 110.618 37.6561 110.849L38.1411 120.684C38.1411 120.806 38.1989 120.916 38.2797 121.001C38.3606 121.074 38.453 121.111 38.5569 121.111C38.5685 121.111 38.58 121.111 38.5915 121.111L85.1811 116.687C85.2966 116.675 85.4006 116.614 85.4699 116.529C85.5392 116.443 85.5738 116.321 85.5622 116.2L84.6961 106.426Z" fill="black"/>
<path d="M57.463 61.553C46.0061 63.3688 39.8966 65.9768 35.7389 70.876C33.7062 73.2647 37.0324 77.5545 37.0901 83.4164C37.2634 100.21 38.0372 110.959 38.0372 110.959L84.2687 106.474C84.2687 106.474 83.4256 88.4375 82.4208 79.0657C81.416 69.6939 83.1022 57.4825 57.463 61.553Z" fill="#F7F9FB"/>
<path d="M38.0372 111.386C37.9332 111.386 37.8408 111.349 37.7715 111.276C37.6907 111.203 37.633 111.093 37.6214 110.971C37.6099 110.862 36.8361 100.027 36.6744 83.4042C36.6513 80.9181 36.0276 78.7366 35.4732 76.7989C34.7225 74.1787 34.1335 72.1069 35.4386 70.5713C39.6541 65.599 45.8214 62.9422 57.4168 61.1142C67.4877 59.5177 74.244 60.2855 78.0668 63.4785C81.8665 66.6471 82.2592 71.595 82.6288 76.3723C82.698 77.262 82.7673 78.1516 82.8597 79.0047C83.853 88.279 84.6961 106.255 84.7076 106.438C84.7192 106.669 84.5459 106.876 84.3265 106.901L38.0718 111.386C38.0603 111.386 38.0487 111.386 38.0372 111.386ZM57.5207 61.9916C46.1447 63.7953 40.116 66.3668 36.0507 71.1685C35.0575 72.3384 35.5656 74.1055 36.2701 76.5551C36.8361 78.5416 37.4828 80.7962 37.5059 83.4042C37.656 98.1017 38.2797 108.266 38.4183 110.472L83.8299 106.072C83.6913 103.293 82.9175 87.5722 82.0051 79.1144C81.9127 78.2491 81.8434 77.3595 81.7741 76.4576C81.4161 71.8631 81.035 67.1224 77.524 64.1853C73.8975 61.1507 67.3607 60.4317 57.5207 61.9916Z" fill="black"/>
<path d="M53.109 57.1291L49.4132 62.9667L56.6546 68.3899L58.4678 61.553L53.109 57.1291Z" fill="#F7F9FB"/>
<path d="M56.6545 68.8408C56.5737 68.8408 56.4813 68.8165 56.412 68.7555L49.1706 63.3323C48.9858 63.1982 48.9396 62.9301 49.0667 62.7229L52.7509 56.8854C52.8202 56.7879 52.9126 56.7148 53.0281 56.6904C53.1436 56.666 53.259 56.7026 53.3514 56.7757L58.7103 61.1996C58.8489 61.3093 58.9066 61.4921 58.8604 61.6627L57.0472 68.4996C57.0125 68.6336 56.9086 68.7555 56.7816 68.7921C56.7469 68.8286 56.7007 68.8408 56.6545 68.8408ZM49.9906 62.857L56.412 67.6709L57.9827 61.7236L53.2013 57.775L49.9906 62.857Z" fill="black"/>
<path d="M58.4678 61.5529L62.5793 67.3174L64.8314 60.6633L61.6554 56.0688L58.4678 61.5529Z" fill="#F7F9FB"/>
<path d="M62.5794 67.7562C62.4523 67.7562 62.3253 67.6953 62.2445 67.5856L58.1214 61.8211C58.0174 61.6749 58.0059 61.4799 58.0983 61.3215L61.2859 55.8373C61.3552 55.7154 61.4822 55.6301 61.6324 55.6301C61.7825 55.6301 61.9095 55.6911 61.9904 55.8129L65.178 60.4074C65.2588 60.5293 65.2819 60.6755 65.2357 60.8218L62.9836 67.4759C62.9374 67.6343 62.7988 67.744 62.6487 67.7684C62.6256 67.7562 62.6025 67.7562 62.5794 67.7562ZM58.976 61.5286L62.4523 66.3913L64.3695 60.7365L61.6901 56.861L58.976 61.5286Z" fill="black"/>
<path d="M60.8931 65.465L57.4977 65.8915L58.0058 102.477L63.434 109.911L66.0095 101.478L60.8931 65.465Z" fill="#F7F9FB"/>
<path d="M63.4341 110.362C63.307 110.362 63.18 110.301 63.0991 110.191L57.671 102.745C57.6132 102.672 57.5902 102.574 57.5786 102.477L57.0704 65.9037C57.0704 65.6722 57.2321 65.4894 57.44 65.4528L60.8355 65.0263C61.0549 65.0019 61.2628 65.1603 61.2974 65.4041L66.4138 101.404C66.4253 101.478 66.4138 101.539 66.4022 101.612L63.8267 110.057C63.7805 110.216 63.6535 110.325 63.5033 110.362C63.4803 110.362 63.4572 110.362 63.4341 110.362ZM58.4217 102.319L63.2724 108.973L65.5707 101.429L60.5237 65.9525L57.9135 66.2815L58.4217 102.319Z" fill="black"/>
<path d="M44.8512 88.2913C37.425 96.6272 30.484 108.473 39.3538 117.528C40.2431 118.442 40.9014 119.405 41.3402 120.392L20.4477 122.378C19.4082 120.148 18.6344 117.796 18.1032 115.371C17.4218 112.275 17.1561 109.058 17.2947 105.828C17.3987 103.099 17.8029 100.381 18.4843 97.7119C21.4756 86.0002 29.2135 76.604 37.7369 68.8409L44.8512 88.2913Z" fill="#F7F9FB"/>
<path d="M20.4477 122.817C20.286 122.817 20.1474 122.72 20.0666 122.573C19.0272 120.355 18.2303 117.967 17.6875 115.468C17.0061 112.361 16.7289 109.107 16.8675 105.804C16.983 103.062 17.3872 100.295 18.0686 97.59C20.6325 87.5723 26.973 78.0542 37.4482 68.4996C37.6214 68.3412 37.8871 68.3655 38.0372 68.5483C38.1873 68.7311 38.1642 69.0114 37.991 69.1699C27.4927 78.7367 21.4179 87.8404 18.8655 97.8215C18.1956 100.466 17.8029 103.159 17.699 105.841C17.5604 109.058 17.826 112.239 18.4959 115.261C19.0041 117.589 19.7432 119.819 20.6787 121.903L40.6589 120.002C40.2547 119.246 39.7118 118.515 39.042 117.833C29.9065 108.497 36.9862 96.4444 44.5279 87.9744C44.6896 87.7916 44.9552 87.7916 45.1169 87.95C45.2901 88.1207 45.2901 88.401 45.14 88.5716C37.8524 96.7491 30.9922 108.363 39.631 117.187C40.5434 118.113 41.2363 119.124 41.7099 120.185C41.7676 120.319 41.7561 120.465 41.6983 120.587C41.629 120.709 41.5135 120.794 41.3749 120.806L20.4824 122.793C20.4708 122.817 20.4593 122.817 20.4477 122.817Z" fill="black"/>
<path d="M32.7129 120.806C37.8985 113.689 44.8973 111.032 50.0829 112.86C55.2685 114.688 57.5206 115.602 57.0009 116.687C56.4812 117.784 52.335 116.504 52.335 116.504C52.335 116.504 54.5871 118.881 53.7209 121.062C52.8547 123.244 47.8424 117.235 47.8424 117.235C47.8424 117.235 51.1224 121.976 48.5353 122.342C45.9368 122.707 43.3497 118.332 43.3497 118.332C43.3497 118.332 44.9089 123.816 42.1371 122.159C39.3768 120.514 37.6675 119.758 37.4481 120.331L32.7129 120.806Z" fill="#F7F9FB"/>
<path d="M43.0264 122.927C42.7145 122.927 42.345 122.805 41.9292 122.561C38.8687 120.721 37.9909 120.745 37.8292 120.77C37.7253 120.952 37.5058 121.026 37.3095 120.952C37.0901 120.855 36.9861 120.599 37.0785 120.38C37.1363 120.233 37.2518 120.051 37.5289 119.953C38.2334 119.697 39.8619 120.319 42.345 121.806C42.7376 122.037 43.0379 122.122 43.165 122.013C43.5461 121.696 43.3613 119.929 42.9455 118.479C42.8878 118.271 42.9802 118.04 43.1765 117.942C43.3729 117.845 43.5923 117.918 43.7078 118.113C43.7309 118.149 46.1909 122.244 48.4776 121.927C48.8818 121.867 48.9973 121.696 49.0551 121.574C49.3784 120.782 48.339 118.734 47.5075 117.528C47.3804 117.333 47.4035 117.065 47.5883 116.919C47.7616 116.772 48.0156 116.797 48.1658 116.967C49.6787 118.783 52.2311 121.282 53.1435 121.123C53.2128 121.111 53.2821 121.087 53.3398 120.916C54.0905 119.027 52.0694 116.858 52.0463 116.833C51.9077 116.687 51.8846 116.468 51.977 116.297C52.0694 116.126 52.2773 116.041 52.4505 116.102C54.4139 116.699 56.435 116.906 56.6198 116.516C56.6545 116.443 56.6545 116.395 56.6314 116.346C56.3195 115.554 52.9356 114.359 49.9444 113.311C44.5971 111.434 37.8061 114.567 33.0363 121.111C32.8977 121.306 32.6321 121.342 32.4473 121.196C32.2625 121.05 32.2278 120.77 32.3664 120.575C37.3557 113.738 44.5278 110.484 50.1984 112.483C54.8874 114.128 56.9778 114.956 57.3936 116.017C57.5091 116.309 57.4976 116.626 57.359 116.931C56.897 117.906 54.9336 117.662 53.4207 117.309C54.0328 118.284 54.668 119.795 54.0905 121.282C53.8827 121.806 53.5246 121.964 53.2474 122.013C52.312 122.171 50.8799 121.062 49.6672 119.892C49.9213 120.636 50.0368 121.379 49.8058 121.94C49.6672 122.281 49.3438 122.72 48.57 122.829C46.8376 123.073 45.1976 121.537 44.1351 120.246C44.2506 121.233 44.2044 122.269 43.6616 122.72C43.4999 122.841 43.2805 122.927 43.0264 122.927Z" fill="black"/>
<path d="M52.1964 116.833C52.0809 116.833 51.977 116.785 51.8846 116.687L50.3601 114.957C50.1984 114.774 50.21 114.493 50.3832 114.335C50.5564 114.164 50.8221 114.177 50.9722 114.359L52.4967 116.09C52.6584 116.273 52.6469 116.553 52.4736 116.711C52.4043 116.797 52.3004 116.833 52.1964 116.833Z" fill="black"/>
</svg>
