<svg width="216" height="128" viewBox="0 0 216 128" fill="none" xmlns="http://www.w3.org/2000/svg">
<path d="M176.766 65.1093C170.599 65.1093 165.431 63.4786 161.203 62.1409C160.143 61.8097 159.144 61.4912 158.228 61.2364C147.857 58.3317 144.351 64.4723 144.315 64.536C144.195 64.7526 143.918 64.8291 143.713 64.7017C143.508 64.5743 143.436 64.294 143.556 64.0647C143.713 63.7844 147.435 57.2488 158.457 60.3318C159.396 60.5994 160.396 60.9052 161.468 61.2491C171.045 64.2812 185.524 68.8549 205.568 51.7324C205.761 51.5668 206.026 51.605 206.182 51.7961C206.339 51.9999 206.303 52.2929 206.122 52.4458C194.558 62.3193 184.813 65.1093 176.766 65.1093Z" fill="black"/>
<path d="M162.022 71.8233C161.986 71.8233 161.95 71.8233 161.914 71.8106C158.842 70.9825 156.192 69.5556 153.639 68.1797C147.652 64.9565 142.918 62.4085 136.389 69.9505C136.22 70.1416 135.943 70.1544 135.775 69.976C135.594 69.7976 135.582 69.5046 135.751 69.3263C142.737 61.2619 147.977 64.0774 154.048 67.3516C156.566 68.702 159.156 70.1034 162.143 70.906C162.372 70.9697 162.516 71.2245 162.456 71.4666C162.396 71.6831 162.215 71.8233 162.022 71.8233Z" fill="black"/>
<path d="M138.726 107.419C138.497 107.419 138.304 107.228 138.292 106.986C138.28 106.731 138.449 106.514 138.702 106.489C138.786 106.489 146.772 105.788 149.073 99.4945C149.507 98.2969 149.459 97.1376 148.929 95.94C146.869 91.3154 138.172 87.9393 135.558 87.0221C133.944 86.4615 131.137 88.0922 128.427 89.6592C125.343 91.4556 122.416 93.1627 120.392 92.3728C119.609 92.0671 119.019 91.4046 118.658 90.3981C117.79 87.9903 118.537 84.4486 120.681 80.6521C123.464 75.7345 128.897 70.1161 134.221 69.4027C139.786 68.651 143.785 70.9952 148.844 73.9636C151.121 75.3013 153.711 76.8173 156.758 78.2315C156.975 78.3334 157.084 78.6009 156.987 78.843C156.891 79.0723 156.638 79.187 156.409 79.0851C153.325 77.6582 150.723 76.1294 148.423 74.779C143.496 71.887 139.605 69.6065 134.329 70.32C129.523 70.9697 124.199 76.2568 121.44 81.1362C119.429 84.6779 118.718 87.9393 119.477 90.0796C119.742 90.8313 120.139 91.3027 120.693 91.5193C122.344 92.1563 125.223 90.4873 128.005 88.8693C131.017 87.124 133.859 85.4678 135.835 86.1557C139.292 87.3788 147.58 90.7294 149.724 95.5578C150.35 96.972 150.41 98.4116 149.892 99.8385C147.387 106.68 139.123 107.393 138.774 107.419C138.75 107.419 138.738 107.419 138.726 107.419Z" fill="black"/>
<path d="M148.363 120.286C143.894 120.286 139.256 119.471 133.57 118.133C133.329 118.082 133.185 117.827 133.233 117.585C133.281 117.343 133.522 117.177 133.751 117.228C146.616 120.248 154.012 120.566 166.528 114.68C170.117 112.999 175.538 111.47 181.814 109.699C193.486 106.412 208.001 102.323 215.277 95.4558C215.457 95.2902 215.734 95.3029 215.891 95.494C216.048 95.6851 216.036 95.9781 215.855 96.1438C208.423 103.151 193.787 107.266 182.03 110.591C175.791 112.349 170.394 113.865 166.865 115.534C159.686 118.91 154.157 120.286 148.363 120.286Z" fill="black"/>
<path d="M164.058 81.4037C164.022 81.4037 163.998 81.4037 163.962 81.391L160.866 80.6648C160.625 80.6139 160.481 80.3591 160.529 80.117C160.577 79.8749 160.818 79.7093 161.047 79.7603L164.143 80.4865C164.384 80.5374 164.528 80.7922 164.48 81.0343C164.432 81.2636 164.251 81.4037 164.058 81.4037Z" fill="black"/>
<path d="M167.094 73.454C167.082 73.454 167.07 73.454 167.058 73.454L164.335 73.1865C164.094 73.161 163.914 72.9317 163.938 72.6769C163.962 72.4221 164.179 72.2438 164.42 72.2565L167.142 72.524C167.383 72.5495 167.564 72.7788 167.539 73.0336C167.503 73.2757 167.323 73.454 167.094 73.454Z" fill="black"/>
<path d="M168.455 70.3582C168.443 70.3582 168.431 70.3582 168.419 70.3582L165.696 70.0907C165.455 70.0652 165.275 69.8359 165.299 69.5811C165.323 69.3263 165.54 69.1352 165.781 69.1607L168.503 69.4282C168.744 69.4537 168.925 69.683 168.9 69.9378C168.864 70.1799 168.672 70.3582 168.455 70.3582Z" fill="black"/>
<path d="M93.7679 21.7234L78.241 19.1754L87.0825 36.4508L78.518 43.9546L94.575 47.0631L96.1771 58.389L106.621 51.1654L109.56 41.5467L122.28 44.7954L115.715 32.7689L122.81 15.9267L105.681 22.9974L92.8284 6.43542L93.7679 21.7234Z" fill="#69A1FA"/>
<path d="M82.6699 4.85461C82.5615 4.85461 82.4651 4.81638 82.3808 4.73995L78.1889 0.8033C78.0082 0.63768 77.9962 0.34466 78.1528 0.153561C78.3094 -0.0375382 78.5864 -0.0502766 78.7671 0.115343L82.959 4.05199C83.1397 4.21761 83.1517 4.51063 82.9951 4.70173C82.9108 4.80365 82.7904 4.85461 82.6699 4.85461Z" fill="black"/>
<path d="M73.8163 15.2121C73.7681 15.2121 73.7079 15.1994 73.6597 15.1867C73.4308 15.0975 73.3224 14.8299 73.4067 14.5879L74.804 10.6512C74.8883 10.4092 75.1413 10.2945 75.3702 10.3837C75.599 10.4729 75.7074 10.7404 75.6231 10.9825L74.2258 14.9191C74.1535 15.0975 73.9849 15.2121 73.8163 15.2121Z" fill="black"/>
<path d="M129.466 27.2109C129.357 27.2109 129.261 27.1727 129.177 27.0963L125.442 23.6437C125.262 23.4781 125.238 23.1851 125.406 22.994C125.563 22.8029 125.84 22.7774 126.021 22.9558L129.755 26.4083C129.936 26.5739 129.96 26.867 129.791 27.0581C129.707 27.16 129.586 27.2109 129.466 27.2109Z" fill="black"/>
<path d="M19.2527 120.944L3.32556 119.917C3.08515 119.902 2.90608 119.686 2.92266 119.432L3.9339 103.921C3.95048 103.667 4.15607 103.476 4.39648 103.492L20.3236 104.519C20.564 104.534 20.7431 104.75 20.7265 105.004L19.7153 120.514C19.6987 120.769 19.4931 120.96 19.2527 120.944ZM3.81798 119.03L18.8676 120L19.8192 105.405L4.76954 104.435L3.81798 119.03Z" fill="black"/>
<path d="M0.436742 101.832C0.304516 101.823 0.176436 101.751 0.100581 101.619C-0.0304023 101.406 0.0247212 101.116 0.226996 100.976L3.1977 98.9205C3.39997 98.7803 3.67396 98.8363 3.80494 99.049C3.93592 99.2617 3.8808 99.5518 3.67852 99.6919L0.707821 101.747C0.619533 101.805 0.532906 101.838 0.436742 101.832Z" fill="black"/>
<path d="M97.5141 24.4114C97.4419 24.4114 97.3576 24.3859 97.2853 24.3477L94.6111 22.6533C94.4064 22.5259 94.3341 22.2328 94.4666 22.0163C94.587 21.7997 94.8641 21.7232 95.0689 21.8634L97.743 23.5578C97.9478 23.6852 98.0201 23.9782 97.8876 24.1948C97.8033 24.3349 97.6587 24.4114 97.5141 24.4114Z" fill="black"/>
<path d="M101.79 17.621C101.598 17.621 101.417 17.4809 101.369 17.2643L100.297 12.7289C100.236 12.4868 100.381 12.232 100.61 12.1683C100.839 12.1046 101.08 12.2575 101.14 12.4995L102.212 17.035C102.272 17.277 102.128 17.5318 101.899 17.5955C101.863 17.621 101.826 17.621 101.79 17.621Z" fill="black"/>
<path d="M48.7046 42.7953C50.4151 45.8656 52.3063 47.5345 54.318 48.1205L56.4982 71.8678L65.2555 70.3008L62.9788 45.4069C66.5564 42.171 63.3041 36.2724 63.9064 37.2406L64.7977 35.2787C64.7977 35.2787 62.4729 32.8708 57.3776 31.4567C52.2702 30.0426 44.9343 36.0049 48.7046 42.7953Z" fill="#F7F9FB"/>
<path d="M56.4861 72.3392C56.3897 72.3392 56.2934 72.301 56.2211 72.25C56.1247 72.1736 56.0645 72.0589 56.0524 71.9315L53.9083 48.49C51.8123 47.7638 49.9453 45.942 48.3311 43.0501C46.7531 40.209 46.8977 37.126 48.7045 34.6035C50.7523 31.7497 54.5226 30.2082 57.4859 31.0363C62.6415 32.4631 65.0024 34.871 65.1108 34.9729C65.2433 35.1131 65.2795 35.3296 65.1952 35.508L64.364 37.3426C65.6288 40.8588 65.3036 43.789 63.4365 45.6235L65.689 70.2881C65.7131 70.5301 65.5565 70.7467 65.3277 70.7849L56.5704 72.352C56.5343 72.3392 56.5102 72.3392 56.4861 72.3392ZM49.078 42.5659C50.6439 45.3815 52.4387 47.1014 54.4263 47.6747C54.5949 47.7256 54.7274 47.8912 54.7395 48.0823L56.8716 71.3328L64.7615 69.9186L62.521 45.4579C62.509 45.305 62.5692 45.1649 62.6776 45.063C64.4363 43.4705 64.7133 40.8588 63.4726 37.5209C63.4003 37.3171 63.2558 36.9349 63.6172 36.7438C63.6292 36.7438 63.6413 36.731 63.6533 36.731L64.2556 35.4188C63.5569 34.8073 61.2923 33.0364 57.257 31.9281C54.619 31.2019 51.2462 32.5906 49.4032 35.164C48.4636 36.4508 47.1868 39.1389 49.078 42.5659Z" fill="black"/>
<path d="M57.1486 37.4699C56.6909 37.2024 56.2332 36.9221 55.7754 36.6546C56.462 35.2022 57.0282 33.546 57.1848 32.0809C57.6546 30.5776 57.5221 28.9469 55.92 28.1443C53.9083 27.1506 52.4749 28.896 51.7883 30.705C50.8487 30.8961 50.0417 31.6605 49.596 32.616C49.4032 33.0364 49.2225 33.5333 49.1262 34.0302C49.0539 34.0939 48.9816 34.1448 48.9214 34.2085C48.3673 36.387 47.8493 38.6293 47.5361 40.8715C47.9577 41.585 48.4034 42.2602 48.7046 42.808C50.4753 46.0057 52.4387 47.6619 54.5468 48.1842C54.8118 47.9549 55.0527 47.7001 55.2695 47.4071C55.7754 46.7319 56.6909 42.7315 55.3659 43.0883C53.8963 43.4832 52.1978 41.5849 53.5108 40.209C53.6795 40.0307 53.8602 39.8141 54.0529 39.5593C54.5227 39.8396 54.9924 40.1199 55.4622 40.4001C57.2811 41.4703 58.9555 38.5528 57.1486 37.4699Z" fill="black"/>
<path d="M96.8755 46.0312C96.2973 34.7691 95.8035 31.1 98.4535 30.6286C101.622 30.0681 97.1285 33.7881 100.537 36.3616C102.549 37.8777 104.657 34.6035 103.814 32.03C102.694 28.5902 100.537 31.4694 99.7906 30.0171C99.0438 28.5647 101.043 26.1824 103.416 26.8448C105.789 27.5073 106.283 31.0745 106.283 31.0745C106.283 31.0745 103.537 24.73 105.03 24.6026C106.524 24.4752 109.15 31.4695 109.15 31.4695C109.15 31.4695 105.657 24.73 107.777 24.6026C109.897 24.4752 113.571 34.0429 115.486 46.0312H96.8755Z" fill="#F7F9FB"/>
<path d="M115.486 46.5025C115.281 46.5025 115.089 46.3369 115.053 46.1203C113.029 33.3931 109.379 25.0739 107.825 25.0739C107.813 25.0739 107.813 25.0739 107.801 25.0739C107.657 25.0867 107.62 25.1376 107.596 25.1758C107.404 25.558 107.572 26.4626 107.934 27.52C108.62 28.8832 109.198 30.361 109.56 31.3038C109.644 31.5331 109.548 31.7879 109.343 31.8898C109.138 31.9917 108.885 31.9026 108.777 31.6987C108.524 31.2019 107.717 29.5966 107.175 28.0041C106.295 26.2588 105.488 25.0739 105.091 25.0739H105.079C104.886 25.316 105.115 26.5008 105.597 28.0041C106.476 29.3163 106.705 30.9088 106.729 31.0108C106.765 31.2401 106.633 31.4567 106.416 31.5204C106.199 31.5841 105.982 31.4821 105.898 31.2656C105.657 30.7177 105.199 29.6094 104.814 28.4245C104.44 27.9022 103.958 27.469 103.32 27.2907C102.031 26.934 100.983 27.5964 100.477 28.2844C100.092 28.8067 99.9834 29.3928 100.188 29.8005C100.309 30.0425 100.465 30.0553 101.128 29.9151C102.043 29.724 103.441 29.431 104.248 31.8771C104.862 33.7626 104.079 35.8137 102.959 36.6928C102.115 37.3552 101.152 37.368 100.297 36.731C98.2127 35.164 98.7427 33.1383 99.0679 31.928C99.1522 31.6223 99.2727 31.1636 99.2245 31.0362C99.2125 31.0362 99.1763 31.0235 99.0318 31.0235C98.9234 31.0235 98.7668 31.0362 98.5379 31.0745C96.6226 31.4184 96.6708 33.9919 97.1526 42.8716C97.2008 43.8399 97.2611 44.8846 97.3213 46.0057C97.3333 46.2605 97.1526 46.4771 96.9117 46.4898C96.6588 46.5025 96.466 46.3114 96.454 46.0566C96.3938 44.9355 96.3456 43.9036 96.2854 42.9353C95.7915 33.7626 95.6228 30.6668 98.4054 30.1827C98.7186 30.1317 99.0679 30.0807 99.3811 30.1572C99.0559 29.431 99.2125 28.5137 99.7907 27.7238C100.453 26.8193 101.838 25.9403 103.537 26.4116C103.826 26.4881 104.103 26.6155 104.344 26.7683C104.151 25.8511 104.091 25.0485 104.332 24.6153C104.476 24.3478 104.717 24.1949 105.006 24.1694C105.549 24.1184 106.115 24.628 106.681 25.4052C106.693 25.1504 106.753 24.9338 106.849 24.7554C106.982 24.5006 107.247 24.2076 107.765 24.1694C110.656 24.0165 114.233 35.3551 115.932 45.9802C115.968 46.235 115.811 46.4771 115.571 46.5153C115.534 46.5025 115.51 46.5025 115.486 46.5025ZM100.068 30.8579C100.14 31.2273 100.02 31.686 99.887 32.1828C99.5859 33.3422 99.2004 34.7818 100.79 35.9793C101.465 36.4889 102.055 36.2469 102.417 35.9538C103.26 35.2786 103.874 33.6479 103.392 32.1828C102.838 30.5011 102.152 30.6413 101.272 30.8197C100.911 30.8961 100.465 30.998 100.068 30.8579Z" fill="black"/>
<path d="M96.8756 46.0312C96.7431 47.2415 100.634 74.1738 95.5145 83.9454C91.19 92.2263 85.649 74.9127 84.7456 71.7532C81.2162 59.3827 62.8344 64.6571 66.3879 77.104C69.062 86.4806 72.4469 95.7553 80.2525 101.654C87.5402 107.158 97.5743 108.024 105.007 102.406C120.979 90.3536 117.823 64.0838 115.474 46.0312H96.8756Z" fill="#F7F9FB"/>
<path d="M93.4786 106.699C88.8531 106.699 84.1191 105.132 80.0115 102.036C71.8325 95.8571 68.4717 85.9964 65.9782 77.2441C64.9543 73.6514 65.6168 70.2753 67.8574 67.7528C70.3749 64.9118 74.5548 63.625 78.2408 64.5423C81.6497 65.3831 84.1071 67.9057 85.1671 71.6257C86.733 77.1166 90.0697 85.3976 92.8161 85.7034C93.6232 85.7926 94.4062 85.1301 95.141 83.7287C99.3329 75.7153 97.3212 55.3568 96.6587 48.6683C96.478 46.872 96.4178 46.235 96.4419 45.9929C96.466 45.7636 96.6587 45.5853 96.8755 45.5853H115.498C115.715 45.5853 115.908 45.7509 115.932 45.9802C118.233 63.676 121.69 90.4172 105.283 102.8C101.814 105.399 97.6946 106.699 93.4786 106.699ZM75.7955 65.1793C73.0491 65.1793 70.2906 66.3514 68.4837 68.3898C66.4721 70.6575 65.8698 73.7023 66.8094 76.9765C69.2667 85.576 72.5552 95.2711 80.5174 101.284C88.0581 106.979 97.8031 107.285 104.765 102.036C120.63 90.0732 117.377 63.9818 115.113 46.5025H97.3333C97.3694 46.9612 97.4417 47.7256 97.526 48.5664C98.2608 56.0448 100.224 75.9063 95.8998 84.1746C94.9844 85.9327 93.9123 86.7481 92.7198 86.6207C88.5158 86.1493 84.7455 73.3456 84.3239 71.8933C83.3602 68.5044 81.1197 66.2112 78.036 65.4468C77.3012 65.2557 76.5544 65.1793 75.7955 65.1793Z" fill="black"/>
<path d="M105.32 41.0244C105.127 41.0244 104.958 40.897 104.898 40.6931C104.898 40.6804 104.344 38.8841 101.332 37.1514C101.116 37.024 101.043 36.7437 101.152 36.5272C101.272 36.2978 101.537 36.2214 101.742 36.3361C105.115 38.2725 105.717 40.3492 105.741 40.4256C105.813 40.6677 105.669 40.9225 105.44 40.9989C105.404 41.0116 105.356 41.0244 105.32 41.0244Z" fill="black"/>
<path d="M88.1785 110.75C88.1544 110.495 87.9375 110.304 87.7087 110.33L39.5137 114.891C39.2848 114.916 39.1041 115.133 39.1162 115.375L39.6221 125.656C39.6221 125.783 39.6823 125.898 39.7666 125.987C39.851 126.064 39.9473 126.102 40.0557 126.102C40.0678 126.102 40.0798 126.102 40.0919 126.102L88.6844 121.477C88.8048 121.464 88.9132 121.401 88.9855 121.312C89.0578 121.222 89.0939 121.095 89.0819 120.968L88.1785 110.75Z" fill="black"/>
<path d="M59.7746 63.8416C47.8253 65.7399 41.4531 68.4662 37.1166 73.5877C34.9965 76.0847 38.4657 80.5692 38.5259 86.6971C38.7066 104.253 39.5137 115.489 39.5137 115.489L87.7328 110.801C87.7328 110.801 86.8535 91.946 85.8055 82.149C84.7575 72.3519 86.5162 59.5865 59.7746 63.8416Z" fill="#F7F9FB"/>
<path d="M39.5137 115.935C39.4053 115.935 39.3089 115.897 39.2366 115.821C39.1523 115.744 39.0921 115.63 39.08 115.502C39.068 115.388 38.2609 104.062 38.0923 86.6844C38.0682 84.0854 37.4177 81.805 36.8395 79.7793C36.0566 77.0402 35.4422 74.8744 36.8034 73.2692C41.2001 68.0713 47.6325 65.294 59.7264 63.383C70.2303 61.7141 77.2771 62.5167 81.2642 65.8546C85.2273 69.1669 85.6368 74.3394 86.0223 79.3334C86.0946 80.2634 86.1668 81.1935 86.2632 82.0853C87.2991 91.7804 88.1785 110.572 88.1905 110.763C88.2026 111.005 88.0219 111.222 87.793 111.247L39.5498 115.935C39.5378 115.935 39.5257 115.935 39.5137 115.935ZM59.8349 64.3003C47.9698 66.1858 41.6819 68.8739 37.4418 73.8935C36.4059 75.1165 36.9359 76.9638 37.6707 79.5245C38.2609 81.6011 38.9355 83.958 38.9596 86.6844C39.1162 102.049 39.7666 112.674 39.9112 114.98L87.275 110.381C87.1305 107.476 86.3234 91.0414 85.3718 82.1999C85.2755 81.2954 85.2032 80.3654 85.1309 79.4226C84.7575 74.6197 84.36 69.6638 80.6981 66.5935C76.9157 63.4212 70.0978 62.6696 59.8349 64.3003Z" fill="black"/>
<path d="M55.2334 59.217L51.3788 65.3195L58.9315 70.9887L60.8226 63.8416L55.2334 59.217Z" fill="#F7F9FB"/>
<path d="M58.9314 71.4602C58.8471 71.4602 58.7508 71.4347 58.6785 71.371L51.1258 65.7017C50.9331 65.5615 50.8849 65.2813 51.0174 65.0647L54.86 58.9623C54.9323 58.8603 55.0286 58.7839 55.1491 58.7584C55.2695 58.7329 55.39 58.7712 55.4864 58.8476L61.0756 63.4722C61.2201 63.5869 61.2804 63.778 61.2322 63.9563L59.341 71.1034C59.3049 71.2436 59.1964 71.371 59.0639 71.4092C59.0278 71.4474 58.9796 71.4602 58.9314 71.4602ZM51.9811 65.2048L58.6785 70.2371L60.3167 64.02L55.3298 59.8923L51.9811 65.2048Z" fill="black"/>
<path d="M60.8226 63.8416L65.1109 69.8676L67.4598 62.9116L64.1472 58.1086L60.8226 63.8416Z" fill="#F7F9FB"/>
<path d="M65.1109 70.3262C64.9784 70.3262 64.8459 70.2625 64.7616 70.1479L60.4613 64.1219C60.3528 63.969 60.3408 63.7651 60.4372 63.5995L63.7618 57.8665C63.8341 57.7391 63.9666 57.65 64.1232 57.65C64.2798 57.65 64.4123 57.7137 64.4966 57.8411L67.8212 62.644C67.9055 62.7714 67.9296 62.9243 67.8814 63.0772L65.5325 70.0332C65.4843 70.1988 65.3398 70.3135 65.1832 70.339C65.1591 70.3262 65.135 70.3262 65.1109 70.3262ZM61.3526 63.8161L64.9784 68.8994L66.978 62.988L64.1834 58.9367L61.3526 63.8161Z" fill="black"/>
<path d="M63.3522 67.9312L59.8108 68.3771L60.3408 106.622L66.0023 114.394L68.6885 105.578L63.3522 67.9312Z" fill="#F7F9FB"/>
<path d="M66.0024 114.865C65.8699 114.865 65.7374 114.801 65.6531 114.687L59.9916 106.903C59.9314 106.826 59.9073 106.724 59.8952 106.622L59.3652 68.3898C59.3652 68.1477 59.5339 67.9566 59.7507 67.9184L63.2921 67.4725C63.521 67.447 63.7378 67.6126 63.774 67.8674L69.1102 105.501C69.1223 105.578 69.1102 105.641 69.0982 105.718L66.412 114.547C66.3638 114.712 66.2313 114.827 66.0747 114.865C66.0506 114.865 66.0265 114.865 66.0024 114.865ZM60.7746 106.457L65.8338 113.413L68.2309 105.527L62.9669 68.4407L60.2446 68.7847L60.7746 106.457Z" fill="black"/>
<path d="M46.6205 91.7931C38.8751 100.507 31.6356 112.89 40.8868 122.356C41.8143 123.312 42.5009 124.318 42.9586 125.35L21.1679 127.427C20.0838 125.095 19.2767 122.637 18.7226 120.101C18.0119 116.865 17.7348 113.502 17.8794 110.126C17.9878 107.272 18.4094 104.431 19.1201 101.641C22.24 89.398 30.3106 79.5755 39.2004 71.4601L46.6205 91.7931Z" fill="#F7F9FB"/>
<path d="M21.1681 127.885C20.9994 127.885 20.8549 127.784 20.7706 127.631C19.6864 125.312 18.8553 122.815 18.2891 120.203C17.5784 116.955 17.2893 113.553 17.4339 110.1C17.5544 107.234 17.976 104.342 18.6867 101.514C21.3608 91.0415 27.9739 81.0916 38.8994 71.1035C39.0801 70.9379 39.3571 70.9633 39.5137 71.1544C39.6703 71.3455 39.6462 71.6386 39.4655 71.8042C28.516 81.805 22.1799 91.3218 19.5178 101.756C18.8192 104.52 18.4096 107.336 18.3012 110.139C18.1566 113.502 18.4337 116.827 19.1323 119.987C19.6624 122.42 20.4333 124.751 21.409 126.93L42.2481 124.943C41.8265 124.153 41.2604 123.388 40.5617 122.675C31.0335 112.916 38.4176 100.316 46.2834 91.4619C46.4521 91.2708 46.7291 91.2708 46.8978 91.4364C47.0785 91.6148 47.0785 91.9078 46.9219 92.0862C39.321 100.635 32.1658 112.776 41.176 122C42.1277 122.968 42.8504 124.025 43.3443 125.134C43.4045 125.274 43.3925 125.427 43.3322 125.554C43.26 125.681 43.1395 125.771 42.9949 125.783L21.2042 127.86C21.1922 127.885 21.1801 127.885 21.1681 127.885Z" fill="black"/>
<path d="M33.9605 125.783C39.369 118.343 46.6688 115.566 52.0773 117.477C57.4858 119.388 59.8348 120.343 59.2927 121.477C58.7507 122.624 54.4262 121.286 54.4262 121.286C54.4262 121.286 56.7751 123.77 55.8717 126.051C54.9683 128.331 49.7404 122.051 49.7404 122.051C49.7404 122.051 53.1614 127.006 50.4632 127.389C47.7529 127.771 45.0546 123.197 45.0546 123.197C45.0546 123.197 46.6808 128.93 43.7898 127.197C40.9109 125.478 39.1281 124.688 38.8993 125.286L33.9605 125.783Z" fill="#F7F9FB"/>
<path d="M44.7174 128C44.3921 128 44.0067 127.873 43.573 127.618C40.3809 125.694 39.4654 125.72 39.2968 125.745C39.1884 125.936 38.9595 126.013 38.7547 125.936C38.5259 125.834 38.4174 125.567 38.5138 125.337C38.574 125.185 38.6945 124.993 38.9836 124.892C39.7184 124.624 41.4168 125.274 44.0067 126.828C44.4162 127.07 44.7294 127.159 44.8619 127.045C45.2594 126.713 45.0667 124.866 44.633 123.35C44.5728 123.133 44.6692 122.891 44.874 122.789C45.0787 122.688 45.3076 122.764 45.4281 122.968C45.4521 123.006 48.0179 127.287 50.4029 126.955C50.8245 126.892 50.945 126.713 51.0052 126.586C51.3425 125.758 50.2584 123.618 49.3911 122.356C49.2586 122.152 49.2827 121.872 49.4754 121.719C49.6561 121.566 49.9211 121.592 50.0777 121.77C51.6557 123.669 54.3178 126.28 55.2694 126.115C55.3417 126.102 55.414 126.076 55.4742 125.898C56.2572 123.923 54.1492 121.656 54.1251 121.63C53.9805 121.477 53.9564 121.248 54.0528 121.07C54.1492 120.891 54.366 120.802 54.5467 120.866C56.5945 121.49 58.7025 121.707 58.8952 121.299C58.9313 121.222 58.9313 121.171 58.9072 121.121C58.582 120.292 55.0526 119.044 51.9328 117.948C46.3556 115.986 39.2727 119.26 34.2978 126.102C34.1532 126.306 33.8762 126.344 33.6835 126.191C33.4907 126.038 33.4546 125.745 33.5991 125.541C38.8029 118.394 46.2833 114.993 52.1978 117.082C57.0883 118.802 59.2686 119.668 59.7023 120.777C59.8227 121.082 59.8107 121.414 59.6661 121.732C59.1843 122.751 57.1365 122.496 55.5585 122.127C56.197 123.146 56.8595 124.726 56.2572 126.28C56.0404 126.828 55.6669 126.994 55.3778 127.045C54.4021 127.21 52.9085 126.051 51.6437 124.828C51.9087 125.605 52.0291 126.382 51.7882 126.968C51.6437 127.325 51.3064 127.784 50.4993 127.898C48.6925 128.153 46.982 126.548 45.8738 125.197C45.9942 126.229 45.946 127.312 45.3799 127.784C45.2112 127.911 44.9824 128 44.7174 128Z" fill="black"/>
<path d="M54.2816 121.63C54.1612 121.63 54.0528 121.579 53.9564 121.477L52.3664 119.668C52.1977 119.477 52.2098 119.184 52.3905 119.018C52.5711 118.84 52.8482 118.853 53.0048 119.044L54.5948 120.853C54.7635 121.044 54.7514 121.337 54.5707 121.503C54.4985 121.592 54.3901 121.63 54.2816 121.63Z" fill="black"/>
</svg>
