<svg width="230" height="167" viewBox="0 0 230 167" fill="none" xmlns="http://www.w3.org/2000/svg">
<path d="M156.677 63.5412C152.872 63.5412 149.102 62.5099 145.683 60.4835C140.436 57.3778 136.654 52.2936 135.03 46.1781C133.406 40.0627 134.133 33.6475 137.074 28.1196C140.016 22.5798 144.831 18.5867 150.624 16.872C162.571 13.3347 175.03 20.7091 178.381 33.3357C181.731 45.9503 174.746 59.1045 162.787 62.6418C160.777 63.2414 158.721 63.5412 156.677 63.5412ZM156.7 16.86C154.769 16.86 152.793 17.1358 150.839 17.7114C145.263 19.3662 140.629 23.2153 137.79 28.5513C134.951 33.8873 134.258 40.0627 135.825 45.9503C137.392 51.8379 141.038 56.7303 146.092 59.728C151.146 62.7258 156.995 63.4572 162.571 61.8025C174.088 58.385 180.823 45.7225 177.586 33.5636C174.905 23.4791 166.183 16.86 156.7 16.86Z" fill="black"/>
<path d="M156.711 40.1946C156.643 40.1946 156.575 40.1707 156.507 40.1347C156.416 40.0747 156.336 39.9788 156.314 39.8709L152.361 25.026C152.305 24.7981 152.429 24.5583 152.645 24.4864C152.861 24.4264 153.088 24.5583 153.156 24.7861L156.995 39.2114L167.239 36.1776C167.455 36.1177 167.682 36.2496 167.75 36.4774C167.807 36.7052 167.682 36.9451 167.466 37.017L156.825 40.1707C156.791 40.1946 156.745 40.1946 156.711 40.1946Z" fill="black"/>
<path d="M168.057 98.879L135.03 102.021L134.122 91.3846C134.088 90.9409 134.394 90.5572 134.815 90.5093L167.08 87.4396L168.057 98.879Z" fill="black"/>
<path d="M128.42 133.917L6.69336 145.488L24.8763 36.0697L146.592 24.5104L128.42 133.917Z" fill="black"/>
<path d="M155.326 126.986L157.711 154.997L101.311 160.345L58.2438 164.434L55.4954 164.698L37.6986 166.388L35.9836 166.544L35.393 159.494L34.5867 150.105L24.8762 36.0698L146.592 24.4984L153.929 110.51L155.326 126.986Z" fill="#F7F9FB"/>
<path d="M35.9836 166.988C35.7678 166.988 35.5975 166.82 35.5748 166.592L24.456 36.1057C24.4333 35.8659 24.6037 35.6501 24.8308 35.6381L146.558 24.0667C146.671 24.0547 146.774 24.0907 146.864 24.1627C146.944 24.2346 147.001 24.3425 147.012 24.4624L154.338 110.462C154.36 110.702 154.19 110.918 153.963 110.93C153.736 110.954 153.531 110.774 153.52 110.534L146.228 24.9661L25.3192 36.4655L36.3584 166.077L157.256 154.601L154.905 127.022C154.883 126.782 155.053 126.566 155.28 126.554C155.507 126.53 155.712 126.71 155.723 126.95L158.108 154.961C158.119 155.081 158.085 155.189 158.017 155.285C157.949 155.369 157.847 155.429 157.733 155.441L36.0063 167C36.0177 166.988 35.995 166.988 35.9836 166.988Z" fill="black"/>
<path d="M130.385 158.019C130.169 158.019 129.999 157.851 129.976 157.623L118.914 27.7958C118.892 27.556 119.062 27.3402 119.289 27.3282C119.516 27.3042 119.721 27.4841 119.732 27.7239L130.794 157.551C130.817 157.791 130.646 158.007 130.419 158.019C130.419 158.019 130.408 158.019 130.385 158.019Z" fill="black"/>
<path d="M126.376 51.2983C126.274 51.2983 126.183 51.2624 126.115 51.2024C126.035 51.1305 125.978 51.0225 125.967 50.9026L125.922 50.399C125.626 46.9576 128.045 43.9119 131.305 43.6001L144.036 42.389C144.15 42.377 144.252 42.413 144.343 42.4849C144.423 42.5569 144.479 42.6648 144.491 42.7847L145.025 49.092C145.047 49.3318 144.877 49.5477 144.65 49.5596L126.41 51.2863C126.399 51.2983 126.387 51.2983 126.376 51.2983ZM143.696 43.2883L131.373 44.4634C128.568 44.7273 126.489 47.3533 126.739 50.3151V50.387L144.15 48.7323L143.696 43.2883Z" fill="black"/>
<path d="M127.83 68.3377C127.614 68.3377 127.444 68.1698 127.421 67.942C127.398 67.7022 127.569 67.4863 127.796 67.4743L142.14 66.1074C142.367 66.0834 142.572 66.2633 142.583 66.5031C142.606 66.7429 142.435 66.9587 142.208 66.9707L127.864 68.3377C127.853 68.3377 127.841 68.3377 127.83 68.3377Z" fill="black"/>
<path d="M129.011 82.2232C128.795 82.2232 128.625 82.0553 128.602 81.8275C128.579 81.5877 128.75 81.3718 128.977 81.3599L143.321 79.9929C143.548 79.9689 143.753 80.1488 143.764 80.3886C143.787 80.6284 143.616 80.8442 143.389 80.8562L129.045 82.2232C129.034 82.2232 129.022 82.2232 129.011 82.2232Z" fill="black"/>
<path d="M132.134 118.832C131.918 118.832 131.748 118.664 131.725 118.436C131.703 118.197 131.873 117.981 132.1 117.969L142.447 116.985C142.674 116.961 142.878 117.141 142.889 117.381C142.912 117.621 142.742 117.837 142.515 117.849L132.168 118.832C132.157 118.832 132.146 118.832 132.134 118.832Z" fill="black"/>
<path d="M126.399 26.7887C126.183 26.7887 126.012 26.6208 125.99 26.393L125.399 19.4501C125.376 19.2103 125.547 18.9945 125.774 18.9825C125.99 18.9585 126.206 19.1384 126.217 19.3782L126.807 26.321C126.83 26.5608 126.66 26.7767 126.433 26.7887C126.421 26.7887 126.41 26.7887 126.399 26.7887Z" fill="black"/>
<path d="M134.462 26.0332C134.247 26.0332 134.076 25.8654 134.053 25.6375L133.463 18.6947C133.44 18.4549 133.61 18.2391 133.838 18.2271C134.065 18.2031 134.269 18.383 134.281 18.6228L134.871 25.5656C134.894 25.8054 134.723 26.0212 134.496 26.0332C134.496 26.0332 134.485 26.0332 134.462 26.0332Z" fill="black"/>
<path d="M33.8826 35.5781C33.6668 35.5781 33.4964 35.4102 33.4737 35.1824L32.8831 28.2396C32.8604 27.9997 33.0308 27.7839 33.2579 27.7719C33.4851 27.7479 33.6895 27.9278 33.7009 28.1676L34.2914 35.1104C34.3142 35.3503 34.1438 35.5661 33.9166 35.5781C33.9053 35.5781 33.8939 35.5781 33.8826 35.5781Z" fill="black"/>
<path d="M41.9463 34.8106C41.7305 34.8106 41.5601 34.6428 41.5374 34.4149L40.9469 27.4721C40.9241 27.2323 41.0945 27.0165 41.3216 27.0045C41.5374 26.9805 41.7532 27.1603 41.7646 27.4002L42.3665 34.343C42.3892 34.5828 42.2189 34.7987 41.9917 34.8106C41.9804 34.8106 41.969 34.8106 41.9463 34.8106Z" fill="black"/>
<path d="M39.5952 65.8914C39.3794 65.8914 39.209 65.7236 39.1863 65.4957L37.8461 49.7395C37.8348 49.6196 37.8689 49.5117 37.937 49.4158C38.0051 49.3318 38.1074 49.2719 38.2209 49.2599L53.1444 47.8449C53.3601 47.8209 53.5759 48.0008 53.5873 48.2406L54.9274 63.9969C54.9388 64.1168 54.9047 64.2247 54.8366 64.3206C54.7684 64.4046 54.6662 64.4645 54.5527 64.4765L39.6406 65.8914C39.6292 65.8914 39.6179 65.8914 39.5952 65.8914ZM38.7093 50.0992L39.9813 64.9801L54.087 63.6371L52.815 48.7442L38.7093 50.0992Z" fill="black"/>
<path d="M39.6066 65.8916C39.5157 65.8916 39.4249 65.8556 39.3454 65.7956C39.175 65.6398 39.1523 65.364 39.2886 65.1841L52.8719 48.0129C53.0195 47.8331 53.2807 47.8091 53.4511 47.953C53.6214 48.1088 53.6442 48.3846 53.5079 48.5645L39.9133 65.7357C39.8337 65.8436 39.7202 65.8916 39.6066 65.8916Z" fill="black"/>
<path d="M66.1372 63.3734C66.0463 63.3734 65.9441 63.3374 65.8759 63.2774C65.7964 63.2055 65.7397 63.0976 65.7283 62.9776L64.3881 47.2214C64.3654 46.9816 64.5358 46.7658 64.7629 46.7538L79.6864 45.3388C79.7999 45.3268 79.9021 45.3628 79.993 45.4347C80.0725 45.5067 80.1293 45.6146 80.1406 45.7345L81.4808 61.4908C81.4922 61.6107 81.4581 61.7186 81.3899 61.8145C81.3218 61.8985 81.2196 61.9584 81.106 61.9704L66.1826 63.3853C66.1712 63.3734 66.1485 63.3734 66.1372 63.3734ZM65.2513 47.5692L66.5233 62.462L80.629 61.119L79.357 46.2262L65.2513 47.5692Z" fill="black"/>
<path d="M66.1371 63.3733C66.0463 63.3733 65.9554 63.3373 65.8759 63.2773C65.7055 63.1214 65.6828 62.8457 65.8191 62.6658L79.4024 45.4946C79.55 45.3147 79.8112 45.2908 79.9816 45.4347C80.152 45.5905 80.1747 45.8663 80.0384 46.0462L66.4551 63.2174C66.3756 63.3133 66.2621 63.3733 66.1371 63.3733Z" fill="black"/>
<path d="M92.6791 60.8554C92.4634 60.8554 92.293 60.6876 92.2703 60.4597L90.9301 44.7035C90.9188 44.5836 90.9529 44.4757 91.021 44.3797C91.0891 44.2958 91.1914 44.2358 91.3049 44.2239L106.228 42.8089C106.455 42.7849 106.66 42.9648 106.671 43.2046L108.011 58.9609C108.023 59.0808 107.989 59.1887 107.921 59.2846C107.852 59.3685 107.75 59.4285 107.637 59.4405L92.7132 60.8434C92.7019 60.8554 92.6905 60.8554 92.6791 60.8554ZM91.7819 45.0512L93.0539 59.9441L107.16 58.6011L105.888 43.7082L91.7819 45.0512Z" fill="black"/>
<path d="M92.6791 60.8552C92.5883 60.8552 92.4974 60.8192 92.4179 60.7593C92.2475 60.6034 92.2248 60.3276 92.3611 60.1477L105.944 42.9765C106.092 42.7967 106.353 42.7727 106.524 42.9166C106.694 43.0725 106.717 43.3483 106.58 43.5281L92.9971 60.6993C92.9176 60.7952 92.804 60.8552 92.6791 60.8552Z" fill="black"/>
<path d="M42.1961 96.4088C41.9803 96.4088 41.81 96.2409 41.7873 96.0131L40.4471 80.2568C40.4357 80.1369 40.4698 80.029 40.538 79.9331C40.6061 79.8491 40.7083 79.7892 40.8219 79.7772L55.7453 78.3623C55.9725 78.3383 56.1769 78.5181 56.1882 78.758L57.5284 94.5142C57.5398 94.6341 57.5057 94.742 57.4375 94.838C57.3694 94.9219 57.2672 94.9819 57.1536 94.9938L42.2302 96.4088C42.2302 96.4088 42.2188 96.4088 42.1961 96.4088ZM41.3103 80.6166L42.5823 95.5095L56.688 94.1665L55.416 79.2736L41.3103 80.6166Z" fill="black"/>
<path d="M42.2074 96.4085C42.1166 96.4085 42.0257 96.3726 41.9462 96.3126C41.7759 96.1567 41.7531 95.8809 41.8894 95.7011L55.4727 78.5299C55.6203 78.35 55.8816 78.326 56.0519 78.4699C56.2223 78.6258 56.245 78.9016 56.1087 79.0815L42.5254 96.2527C42.4346 96.3486 42.321 96.4085 42.2074 96.4085Z" fill="black"/>
<path d="M88.795 91.768C88.5792 91.768 88.4088 91.6002 88.3861 91.3723L87.046 75.6161C87.0346 75.4962 87.0687 75.3883 87.1368 75.2923C87.205 75.2084 87.3072 75.1484 87.4208 75.1364L102.344 73.7215C102.571 73.6975 102.776 73.8774 102.787 74.1172L104.127 89.8734C104.139 89.9934 104.105 90.1013 104.036 90.1972C103.968 90.2811 103.866 90.3411 103.752 90.3531L88.8291 91.768C88.8177 91.768 88.8064 91.768 88.795 91.768ZM87.8978 75.9758L89.1698 90.8687L103.275 89.5257L102.003 74.6328L87.8978 75.9758Z" fill="black"/>
<path d="M193.009 106.014C187.194 106.014 182.322 104.479 178.335 103.22C177.336 102.908 176.393 102.608 175.53 102.368C165.751 99.6343 162.447 105.414 162.412 105.474C162.299 105.678 162.038 105.75 161.845 105.63C161.652 105.51 161.583 105.246 161.697 105.03C161.845 104.766 165.354 98.6151 175.746 101.517C176.632 101.769 177.574 102.057 178.585 102.38C187.614 105.234 201.266 109.539 220.164 93.4229C220.346 93.2671 220.596 93.303 220.743 93.4829C220.891 93.6748 220.857 93.9506 220.687 94.0945C209.784 103.388 200.596 106.014 193.009 106.014Z" fill="black"/>
<path d="M179.107 112.333C179.073 112.333 179.039 112.333 179.005 112.321C176.109 111.541 173.611 110.198 171.203 108.903C165.558 105.87 161.095 103.472 154.939 110.57C154.78 110.75 154.519 110.762 154.36 110.594C154.19 110.426 154.178 110.151 154.337 109.983C160.925 102.392 165.865 105.042 171.589 108.124C173.963 109.395 176.404 110.714 179.221 111.47C179.437 111.529 179.573 111.769 179.516 111.997C179.46 112.201 179.289 112.333 179.107 112.333Z" fill="black"/>
<path d="M157.143 145.836C156.927 145.836 156.745 145.656 156.734 145.428C156.723 145.188 156.882 144.984 157.12 144.96C157.2 144.96 164.729 144.301 166.899 138.377C167.307 137.25 167.262 136.159 166.762 135.032C164.82 130.679 156.62 127.501 154.156 126.638C152.634 126.11 149.988 127.645 147.432 129.12C144.525 130.811 141.765 132.418 139.857 131.674C139.119 131.387 138.562 130.763 138.222 129.816C137.404 127.549 138.108 124.216 140.13 120.643C142.753 116.014 147.875 110.726 152.895 110.054C158.142 109.347 161.913 111.553 166.683 114.347C168.829 115.606 171.271 117.033 174.145 118.364C174.349 118.46 174.451 118.712 174.36 118.94C174.269 119.156 174.031 119.264 173.815 119.168C170.908 117.825 168.455 116.386 166.285 115.115C161.64 112.393 157.972 110.246 152.997 110.918C148.466 111.529 143.446 116.506 140.845 121.098C138.948 124.432 138.278 127.501 138.994 129.516C139.244 130.223 139.618 130.667 140.141 130.871C141.697 131.47 144.411 129.9 147.035 128.377C149.874 126.734 152.554 125.175 154.417 125.823C157.677 126.974 165.49 130.127 167.512 134.672C168.102 136.003 168.159 137.358 167.671 138.701C165.309 145.14 157.518 145.812 157.188 145.836C157.165 145.836 157.154 145.836 157.143 145.836Z" fill="black"/>
<path d="M166.228 157.947C162.015 157.947 157.642 157.179 152.282 155.92C152.055 155.872 151.918 155.632 151.964 155.405C152.009 155.177 152.236 155.021 152.452 155.069C164.582 157.911 171.555 158.21 183.355 152.671C186.74 151.088 191.85 149.649 197.768 147.982C208.773 144.888 222.458 141.039 229.318 134.576C229.488 134.42 229.75 134.432 229.897 134.612C230.045 134.792 230.034 135.068 229.863 135.224C222.856 141.819 209.057 145.692 197.972 148.821C192.089 150.476 187.001 151.903 183.673 153.474C176.904 156.652 171.691 157.947 166.228 157.947Z" fill="black"/>
<path d="M181.027 121.35C180.993 121.35 180.97 121.35 180.936 121.338L178.017 120.655C177.79 120.607 177.654 120.367 177.699 120.139C177.745 119.911 177.972 119.755 178.188 119.803L181.107 120.487C181.334 120.535 181.47 120.775 181.425 121.002C181.379 121.218 181.209 121.35 181.027 121.35Z" fill="black"/>
<path d="M183.889 113.868C183.878 113.868 183.866 113.868 183.855 113.868L181.288 113.616C181.061 113.592 180.891 113.376 180.913 113.136C180.936 112.896 181.141 112.728 181.368 112.74L183.934 112.992C184.162 113.016 184.332 113.232 184.309 113.472C184.275 113.7 184.105 113.868 183.889 113.868Z" fill="black"/>
<path d="M185.172 110.954C185.161 110.954 185.149 110.954 185.138 110.954L182.571 110.702C182.344 110.678 182.174 110.462 182.197 110.222C182.219 109.982 182.424 109.803 182.651 109.826L185.218 110.078C185.445 110.102 185.615 110.318 185.592 110.558C185.558 110.786 185.377 110.954 185.172 110.954Z" fill="black"/>
<path d="M106.149 66.8987L91.5092 64.5004L99.8454 80.7603L91.7704 87.823L106.91 90.7489L108.42 101.409L118.267 94.61L121.038 85.5567L133.031 88.6144L126.842 77.2949L133.531 61.4427L117.381 68.0978L105.263 52.5094L106.149 66.8987Z" fill="#69A1FA"/>
<path d="M108.443 4.56923C108.341 4.56923 108.25 4.53326 108.17 4.46131L104.218 0.756078C104.048 0.600195 104.036 0.3244 104.184 0.144534C104.332 -0.0353316 104.593 -0.0473212 104.763 0.108562L108.715 3.8138C108.886 3.96968 108.897 4.24547 108.749 4.42534C108.67 4.52127 108.556 4.56923 108.443 4.56923Z" fill="black"/>
<path d="M100.095 14.318C100.05 14.318 99.993 14.306 99.9476 14.294C99.7318 14.21 99.6296 13.9582 99.7091 13.7304L101.027 10.0252C101.106 9.79733 101.345 9.6894 101.56 9.77334C101.776 9.85728 101.878 10.1091 101.799 10.3369L100.481 14.0422C100.413 14.21 100.254 14.318 100.095 14.318Z" fill="black"/>
<path d="M177.415 67.654C177.313 67.654 177.222 67.6181 177.143 67.5461L173.622 64.2965C173.452 64.1407 173.429 63.8649 173.588 63.685C173.736 63.5051 173.997 63.4812 174.167 63.649L177.688 66.8986C177.858 67.0545 177.881 67.3303 177.722 67.5101C177.643 67.6061 177.529 67.654 177.415 67.654Z" fill="black"/>
<path d="M19.2884 113.592H4.24003C4.01289 113.592 3.83118 113.4 3.83118 113.16V98.5311C3.83118 98.2912 4.01289 98.0994 4.24003 98.0994H19.2884C19.5155 98.0994 19.6973 98.2912 19.6973 98.5311V113.16C19.6973 113.4 19.5155 113.592 19.2884 113.592ZM4.6489 112.728H18.8682V98.9627H4.6489V112.728Z" fill="black"/>
<path d="M0.412648 96.7805C0.287718 96.7805 0.162789 96.7205 0.0832881 96.6006C-0.0529988 96.4088 -0.0189292 96.133 0.162787 95.9891L2.83174 93.8786C3.01346 93.7348 3.27467 93.7707 3.41096 93.9626C3.54725 94.1544 3.51317 94.4302 3.33146 94.5741L0.662505 96.6846C0.583004 96.7445 0.503506 96.7805 0.412648 96.7805Z" fill="black"/>
<path d="M109.681 69.4289C109.613 69.4289 109.533 69.4049 109.465 69.3689L106.944 67.7741C106.751 67.6542 106.682 67.3784 106.807 67.1746C106.921 66.9707 107.182 66.8988 107.375 67.0307L109.897 68.6255C110.09 68.7454 110.158 69.0212 110.033 69.225C109.953 69.3569 109.817 69.4289 109.681 69.4289Z" fill="black"/>
<path d="M113.713 63.0375C113.531 63.0375 113.361 62.9056 113.315 62.7018L112.304 58.433C112.248 58.2051 112.384 57.9653 112.6 57.9054C112.815 57.8454 113.043 57.9893 113.099 58.2171L114.11 62.4859C114.167 62.7138 114.031 62.9536 113.815 63.0135C113.781 63.0375 113.747 63.0375 113.713 63.0375Z" fill="black"/>
<path d="M63.6611 86.732C65.2739 89.6219 67.0569 91.1927 68.9536 91.7443L71.0093 114.096L79.266 112.621L77.1195 89.1902C80.4926 86.1444 77.4261 80.5926 77.994 81.5039L78.8344 79.6573C78.8344 79.6573 76.6425 77.391 71.8383 76.06C67.0229 74.729 60.1063 80.3408 63.6611 86.732Z" fill="#F7F9FB"/>
<path d="M70.9976 114.539C70.9067 114.539 70.8159 114.503 70.7477 114.455C70.6569 114.383 70.6001 114.275 70.5887 114.156L68.5671 92.092C66.591 91.4085 64.8306 89.6938 63.3087 86.9718C61.8209 84.2978 61.9572 81.396 63.6608 79.0218C65.5915 76.3358 69.1464 74.8849 71.9403 75.6643C76.8012 77.0073 79.0272 79.2736 79.1294 79.3695C79.2543 79.5014 79.2884 79.7053 79.2089 79.8731L78.4252 81.5998C79.6177 84.9094 79.3111 87.6673 77.5507 89.394L79.6745 112.609C79.6972 112.837 79.5496 113.04 79.3338 113.076L71.0771 114.551C71.043 114.539 71.0203 114.539 70.9976 114.539ZM64.0129 86.5162C65.4893 89.1662 67.1816 90.785 69.0555 91.3246C69.2145 91.3725 69.3394 91.5284 69.3508 91.7083L71.361 113.592L78.8 112.261L76.6876 89.2381C76.6762 89.0943 76.733 88.9623 76.8352 88.8664C78.4934 87.3675 78.7546 84.9094 77.5848 81.7677C77.5167 81.5759 77.3804 81.2161 77.7211 81.0363C77.7324 81.0363 77.7438 81.0243 77.7552 81.0243L78.323 79.7892C77.6643 79.2136 75.5291 77.5469 71.7245 76.5036C69.2372 75.8202 66.0572 77.1272 64.3195 79.5494C63.4337 80.7605 62.2298 83.2906 64.0129 86.5162Z" fill="black"/>
<path d="M71.6224 81.7197C71.1908 81.4679 70.7593 81.2041 70.3277 80.9523C70.975 79.5853 71.5088 78.0265 71.6565 76.6475C72.0994 75.2325 71.9745 73.6977 70.464 72.9423C68.5673 72.007 67.2158 73.6497 66.5684 75.3525C65.6826 75.5323 64.9216 76.2518 64.5014 77.1511C64.3197 77.5468 64.1493 78.0145 64.0585 78.4821C63.9903 78.5421 63.9222 78.59 63.8654 78.65C63.343 80.7005 62.8546 82.8109 62.5593 84.9213C62.9568 85.5928 63.377 86.2283 63.661 86.7439C65.3305 89.7537 67.1817 91.3125 69.1692 91.8042C69.4191 91.5883 69.6462 91.3485 69.8507 91.0727C70.3277 90.4372 71.1908 86.672 69.9415 87.0077C68.556 87.3795 66.9546 85.5928 68.1925 84.2978C68.3515 84.1299 68.5219 83.9261 68.7036 83.6862C69.1465 83.95 69.5895 84.2138 70.0324 84.4776C71.7473 85.4849 73.326 82.7389 71.6224 81.7197Z" fill="black"/>
<path d="M109.079 89.7777C108.533 79.1777 108.068 75.7242 110.566 75.2806C113.553 74.753 109.317 78.2543 112.531 80.6765C114.428 82.1035 116.415 79.0218 115.62 76.5996C114.564 73.362 112.531 76.072 111.827 74.705C111.123 73.338 113.008 71.0957 115.246 71.7192C117.483 72.3428 117.949 75.7003 117.949 75.7003C117.949 75.7003 115.359 69.7287 116.767 69.6088C118.176 69.4889 120.652 76.072 120.652 76.072C120.652 76.072 117.358 69.7287 119.357 69.6088C121.356 69.4889 124.82 78.4942 126.626 89.7777H109.079Z" fill="#F7F9FB"/>
<path d="M126.626 90.2214C126.432 90.2214 126.251 90.0655 126.217 89.8616C124.309 77.8826 120.867 70.0524 119.402 70.0524C119.391 70.0524 119.391 70.0524 119.38 70.0524C119.243 70.0644 119.209 70.1124 119.187 70.1483C119.005 70.5081 119.164 71.3594 119.505 72.3547C120.152 73.6377 120.697 75.0287 121.038 75.916C121.117 76.1319 121.026 76.3717 120.833 76.4676C120.64 76.5636 120.402 76.4796 120.3 76.2878C120.061 75.8201 119.3 74.3092 118.789 72.8104C117.96 71.1676 117.199 70.0524 116.824 70.0524H116.813C116.631 70.2802 116.847 71.3954 117.301 72.8104C118.13 74.0454 118.346 75.5443 118.369 75.6402C118.403 75.8561 118.278 76.0599 118.074 76.1199C117.869 76.1798 117.665 76.0839 117.585 75.8801C117.358 75.3645 116.926 74.3212 116.563 73.2061C116.211 72.7144 115.757 72.3067 115.155 72.1389C113.94 71.8031 112.951 72.4266 112.474 73.0742C112.111 73.5658 112.009 74.1174 112.202 74.5011C112.315 74.7289 112.463 74.7409 113.088 74.609C113.951 74.4292 115.268 74.1533 116.029 76.4556C116.608 78.2303 115.87 80.1609 114.814 80.9883C114.019 81.6118 113.11 81.6238 112.304 81.0242C110.339 79.5493 110.839 77.6427 111.146 76.5036C111.225 76.2158 111.339 75.7841 111.293 75.6642C111.282 75.6642 111.248 75.6522 111.112 75.6522C111.009 75.6522 110.862 75.6642 110.646 75.7002C108.84 76.024 108.886 78.4461 109.34 86.8039C109.385 87.7152 109.442 88.6985 109.499 89.7537C109.51 89.9935 109.34 90.1974 109.113 90.2094C108.874 90.2214 108.692 90.0415 108.681 89.8017C108.624 88.7465 108.579 87.7752 108.522 86.8639C108.056 78.2303 107.897 75.3165 110.521 74.8608C110.816 74.8129 111.146 74.7649 111.441 74.8368C111.134 74.1533 111.282 73.29 111.827 72.5465C112.452 71.6952 113.758 70.8678 115.359 71.3115C115.632 71.3834 115.893 71.5033 116.12 71.6472C115.938 70.7839 115.882 70.0284 116.109 69.6207C116.245 69.3689 116.472 69.225 116.745 69.2011C117.256 69.1531 117.79 69.6327 118.323 70.3642C118.335 70.1244 118.392 69.9205 118.482 69.7526C118.607 69.5128 118.857 69.237 119.346 69.2011C122.071 69.0572 125.444 79.7292 127.046 89.7297C127.08 89.9695 126.932 90.1974 126.705 90.2333C126.671 90.2214 126.648 90.2214 126.626 90.2214ZM112.088 75.4963C112.156 75.8441 112.043 76.2758 111.918 76.7434C111.634 77.8346 111.271 79.1896 112.77 80.3168C113.406 80.7964 113.962 80.5686 114.303 80.2928C115.098 79.6572 115.677 78.1224 115.223 76.7434C114.7 75.1606 114.053 75.2925 113.224 75.4604C112.883 75.5323 112.463 75.6282 112.088 75.4963Z" fill="black"/>
<path d="M109.079 89.7776C108.954 90.9167 112.622 116.266 107.795 125.463C103.718 133.257 98.4937 116.961 97.6419 113.988C94.3142 102.344 76.9831 107.308 80.3334 119.024C82.8548 127.849 86.0461 136.579 93.4056 142.131C100.277 147.311 109.737 148.126 116.745 142.838C131.804 131.494 128.829 106.769 126.614 89.7776H109.079Z" fill="#F7F9FB"/>
<path d="M105.876 146.879C101.515 146.879 97.0513 145.404 93.1784 142.49C85.4669 136.675 82.2982 127.393 79.9472 119.156C78.9819 115.774 79.6065 112.597 81.719 110.222C84.0926 107.548 88.0336 106.337 91.5089 107.201C94.723 107.992 97.0399 110.366 98.0393 113.868C99.5158 119.036 102.662 126.83 105.251 127.118C106.012 127.202 106.75 126.578 107.443 125.259C111.395 117.717 109.499 98.555 108.874 92.2597C108.704 90.5689 108.647 89.9694 108.67 89.7416C108.692 89.5257 108.874 89.3578 109.079 89.3578H126.637C126.841 89.3578 127.023 89.5137 127.046 89.7296C129.215 106.385 132.475 131.554 117.006 143.21C113.735 145.656 109.851 146.879 105.876 146.879ZM89.2034 107.8C86.614 107.8 84.0131 108.903 82.3095 110.822C80.4129 112.956 79.845 115.822 80.7309 118.904C83.0478 126.998 86.1483 136.123 93.6554 141.783C100.765 147.143 109.953 147.43 116.518 142.49C131.475 131.231 128.409 106.673 126.273 90.2212H109.51C109.544 90.6529 109.612 91.3723 109.692 92.1637C110.385 99.2025 112.236 117.897 108.159 125.679C107.296 127.333 106.285 128.101 105.16 127.981C101.197 127.537 97.6418 115.486 97.2443 114.119C96.3358 110.93 94.2233 108.771 91.3159 108.052C90.6231 107.872 89.9189 107.8 89.2034 107.8Z" fill="black"/>
<path d="M117.04 85.0651C116.858 85.0651 116.699 84.9452 116.643 84.7533C116.643 84.7413 116.12 83.0506 113.281 81.4198C113.076 81.2999 113.008 81.0361 113.11 80.8322C113.224 80.6164 113.474 80.5444 113.667 80.6524C116.847 82.475 117.415 84.4296 117.438 84.5015C117.506 84.7293 117.369 84.9692 117.154 85.0411C117.12 85.0531 117.074 85.0651 117.04 85.0651Z" fill="black"/>
<path d="M100.879 150.692C100.856 150.452 100.651 150.272 100.436 150.296L54.9953 154.589C54.7795 154.613 54.6092 154.817 54.6205 155.045L55.0975 164.722C55.0975 164.841 55.1543 164.949 55.2338 165.033C55.3133 165.105 55.4042 165.141 55.5064 165.141C55.5178 165.141 55.5291 165.141 55.5405 165.141L101.356 160.789C101.469 160.777 101.571 160.717 101.64 160.633C101.708 160.549 101.742 160.429 101.73 160.309L100.879 150.692Z" fill="black"/>
<path d="M74.0981 106.541C62.8317 108.328 56.8237 110.894 52.7351 115.714C50.7363 118.065 54.0071 122.285 54.0639 128.053C54.2343 144.577 54.9952 155.153 54.9952 155.153L100.458 150.74C100.458 150.74 99.6292 132.993 98.6411 123.772C97.653 114.551 99.3112 102.536 74.0981 106.541Z" fill="#F7F9FB"/>
<path d="M54.9953 155.573C54.8931 155.573 54.8023 155.537 54.7341 155.465C54.6546 155.393 54.5978 155.285 54.5865 155.165C54.5751 155.057 53.8142 144.397 53.6552 128.041C53.6325 125.595 53.0192 123.449 52.474 121.542C51.7358 118.964 51.1566 116.925 52.44 115.415C56.5853 110.522 62.6501 107.908 74.0528 106.109C83.9563 104.539 90.6003 105.294 94.3596 108.436C98.0961 111.553 98.4822 116.422 98.8457 121.122C98.9138 121.998 98.982 122.873 99.0728 123.712C100.05 132.838 100.879 150.524 100.89 150.704C100.901 150.932 100.731 151.136 100.515 151.16L55.0294 155.573C55.018 155.573 55.0067 155.573 54.9953 155.573ZM74.155 106.973C62.9681 108.747 57.0396 111.278 53.0419 116.002C52.0652 117.153 52.5649 118.892 53.2577 121.302C53.8142 123.257 54.4502 125.475 54.4729 128.041C54.6205 142.502 55.2338 152.503 55.3701 154.673L100.027 150.344C99.8905 147.61 99.1296 132.142 98.2324 123.82C98.1415 122.969 98.0734 122.094 98.0052 121.206C97.6532 116.686 97.2784 112.021 93.8258 109.131C90.2596 106.145 83.8314 105.438 74.155 106.973Z" fill="black"/>
<path d="M69.8166 102.188L66.1823 107.932L73.3032 113.268L75.0863 106.541L69.8166 102.188Z" fill="#F7F9FB"/>
<path d="M73.3032 113.712C73.2237 113.712 73.1328 113.688 73.0647 113.628L65.9437 108.292C65.762 108.16 65.7166 107.896 65.8415 107.692L69.4644 101.949C69.5326 101.853 69.6235 101.781 69.737 101.757C69.8506 101.733 69.9642 101.769 70.055 101.841L75.3248 106.193C75.4611 106.301 75.5179 106.481 75.4724 106.649L73.6893 113.376C73.6553 113.508 73.5531 113.628 73.4281 113.664C73.3941 113.7 73.3486 113.712 73.3032 113.712ZM66.7501 107.824L73.0647 112.561L74.6093 106.709L69.9074 102.824L66.7501 107.824Z" fill="black"/>
<path d="M75.0863 106.541L79.1295 112.213L81.3441 105.666L78.2209 101.145L75.0863 106.541Z" fill="#F7F9FB"/>
<path d="M79.1295 112.644C79.0045 112.644 78.8796 112.585 78.8001 112.477L74.7456 106.805C74.6434 106.661 74.632 106.469 74.7229 106.313L77.8575 100.917C77.9256 100.797 78.0505 100.713 78.1982 100.713C78.3458 100.713 78.4708 100.773 78.5503 100.893L81.6849 105.414C81.7644 105.534 81.7871 105.678 81.7416 105.822L79.527 112.369C79.4815 112.525 79.3453 112.632 79.1976 112.656C79.1749 112.644 79.1522 112.644 79.1295 112.644ZM75.586 106.517L79.0045 111.301L80.8898 105.738L78.255 101.924L75.586 106.517Z" fill="black"/>
<path d="M77.4714 110.39L74.1323 110.81L74.632 146.807L79.9699 154.121L82.5026 145.824L77.4714 110.39Z" fill="#F7F9FB"/>
<path d="M79.97 154.565C79.8451 154.565 79.7201 154.505 79.6406 154.397L74.3027 147.071C74.246 146.999 74.2232 146.903 74.2119 146.807L73.7122 110.822C73.7122 110.594 73.8712 110.414 74.0756 110.378L77.4146 109.959C77.6304 109.935 77.8348 110.091 77.8689 110.33L82.9002 145.752C82.9115 145.824 82.9002 145.884 82.8888 145.956L80.3561 154.266C80.3107 154.421 80.1858 154.529 80.0381 154.565C80.0154 154.565 79.9927 154.565 79.97 154.565ZM75.041 146.651L79.811 153.198L82.0711 145.776L77.108 110.87L74.5412 111.194L75.041 146.651Z" fill="black"/>
<path d="M61.696 132.85C54.3933 141.051 47.5676 152.707 56.29 161.616C57.1645 162.515 57.8118 163.463 58.2434 164.434L37.6981 166.389C36.676 164.194 35.9151 161.88 35.3926 159.494C34.7225 156.448 34.4613 153.282 34.5976 150.105C34.6998 147.419 35.0973 144.745 35.7674 142.119C38.7089 130.595 46.3183 121.35 54.6999 113.712L61.696 132.85Z" fill="#F7F9FB"/>
<path d="M37.6983 166.82C37.5393 166.82 37.403 166.724 37.3235 166.58C36.3014 164.398 35.5177 162.048 34.9839 159.59C34.3138 156.532 34.0413 153.33 34.1776 150.081C34.2911 147.383 34.6886 144.661 35.3587 141.999C37.88 132.142 44.1151 122.777 54.4162 113.376C54.5865 113.22 54.8477 113.244 54.9954 113.424C55.143 113.604 55.1203 113.88 54.95 114.036C44.6262 123.449 38.6523 132.406 36.1424 142.227C35.4836 144.829 35.0975 147.479 34.9953 150.117C34.859 153.282 35.1202 156.412 35.7789 159.386C36.2786 161.676 37.0055 163.87 37.9254 165.921L57.5735 164.05C57.176 163.307 56.6422 162.587 55.9835 161.916C46.9999 152.731 53.9619 140.872 61.3782 132.538C61.5372 132.358 61.7984 132.358 61.9574 132.514C62.1277 132.682 62.1277 132.958 61.9801 133.125C54.8137 141.171 48.0675 152.599 56.5627 161.28C57.4599 162.192 58.1413 163.187 58.607 164.23C58.6638 164.362 58.6524 164.506 58.5956 164.626C58.5275 164.746 58.4139 164.83 58.2776 164.842L37.7324 166.796C37.721 166.82 37.7097 166.82 37.6983 166.82Z" fill="black"/>
<path d="M49.7596 164.842C54.859 157.839 61.7415 155.225 66.8409 157.023C71.9404 158.822 74.155 159.721 73.6439 160.789C73.1329 161.868 69.0556 160.609 69.0556 160.609C69.0556 160.609 71.2703 162.947 70.4185 165.093C69.5667 167.24 64.6376 161.328 64.6376 161.328C64.6376 161.328 67.8631 165.993 65.3191 166.352C62.7637 166.712 60.2197 162.407 60.2197 162.407C60.2197 162.407 61.7529 167.803 59.0272 166.173C56.3128 164.554 54.6319 163.81 54.4161 164.374L49.7596 164.842Z" fill="#F7F9FB"/>
<path d="M59.9016 166.928C59.595 166.928 59.2315 166.808 58.8227 166.569C55.813 164.758 54.9498 164.782 54.7908 164.806C54.6886 164.986 54.4728 165.058 54.2798 164.986C54.064 164.89 53.9618 164.638 54.0526 164.422C54.1094 164.278 54.223 164.098 54.4956 164.002C55.1883 163.751 56.7897 164.362 59.2315 165.825C59.6177 166.053 59.913 166.137 60.0379 166.029C60.4127 165.717 60.231 163.978 59.8221 162.552C59.7653 162.348 59.8562 162.12 60.0492 162.024C60.2423 161.928 60.4581 162 60.5717 162.192C60.5944 162.228 63.0135 166.257 65.2622 165.945C65.6597 165.885 65.7733 165.717 65.8301 165.597C66.1481 164.818 65.1259 162.803 64.3082 161.616C64.1833 161.424 64.206 161.161 64.3877 161.017C64.5581 160.873 64.8079 160.897 64.9556 161.065C66.4434 162.851 68.9533 165.309 69.8506 165.154C69.9187 165.142 69.9868 165.118 70.0436 164.95C70.7818 163.091 68.7943 160.957 68.7716 160.933C68.6353 160.789 68.6126 160.573 68.7035 160.405C68.7943 160.237 68.9988 160.153 69.1691 160.213C71.0999 160.801 73.0874 161.005 73.2691 160.621C73.3032 160.549 73.3032 160.501 73.2804 160.453C72.9738 159.674 69.6461 158.499 66.7046 157.467C61.4462 155.621 54.7681 158.702 50.0776 165.142C49.9413 165.333 49.6801 165.369 49.4984 165.226C49.3166 165.082 49.2826 164.806 49.4189 164.614C54.3252 157.887 61.378 154.685 66.9545 156.652C71.5655 158.271 73.6212 159.086 74.03 160.129C74.1436 160.417 74.1322 160.729 73.996 161.029C73.5417 161.988 71.6109 161.748 70.1231 161.4C70.7251 162.36 71.3497 163.847 70.7818 165.309C70.5774 165.825 70.2253 165.981 69.9528 166.029C69.0328 166.185 67.6245 165.094 66.432 163.942C66.6819 164.674 66.7955 165.405 66.5683 165.957C66.432 166.293 66.114 166.724 65.3531 166.832C63.6495 167.072 62.0368 165.561 60.9919 164.29C61.1055 165.261 61.06 166.281 60.5263 166.724C60.3673 166.844 60.1515 166.928 59.9016 166.928Z" fill="black"/>
<path d="M68.9193 160.933C68.8057 160.933 68.7035 160.885 68.6126 160.789L67.1135 159.086C66.9545 158.906 66.9658 158.63 67.1362 158.474C67.3065 158.307 67.5678 158.319 67.7154 158.498L69.2146 160.201C69.3736 160.381 69.3622 160.657 69.1918 160.813C69.1237 160.897 69.0215 160.933 68.9193 160.933Z" fill="black"/>
</svg>
