<svg width="230" height="167" viewBox="0 0 230 167" fill="none" xmlns="http://www.w3.org/2000/svg">
<path d="M59.0339 50.0444C68.8925 46.7169 80.6516 37.9837 87.314 24.674C87.314 24.674 87.314 24.674 87.314 24.6632L41.2603 1.30652C34.4035 14.5194 34.2523 29.1429 37.3622 39.0498C38.1504 41.5696 37.0166 44.0248 34.5007 44.8755C23.0116 48.7845 8.9417 60.0805 0.378844 76.8792C0.29246 77.0515 0.206074 77.2346 0.11969 77.4069L49.8987 102.648C49.9851 102.476 50.0823 102.303 50.1687 102.131C58.7316 85.3325 59.5954 67.3384 55.9996 55.7839C55.2006 53.2641 56.5179 50.8951 59.0339 50.0444Z" fill="url(#paint0_linear_53_716)"/>
<path d="M88.1161 23.5621L41.6544 0L39.9901 3.26365L86.4519 26.8258L88.1161 23.5621Z" fill="black"/>
<path d="M51.6807 98.9824L1.84045 73.7069L1.96707e-05 77.3161L49.8403 102.592L51.6807 98.9824Z" fill="black"/>
<path d="M46.0761 16.5007C45.9141 16.5007 45.7738 16.4037 45.709 16.253L44.532 13.2055C44.4564 13.0009 44.5536 12.7748 44.7588 12.6994C44.9639 12.624 45.1907 12.7209 45.2663 12.9255L46.4433 15.973C46.5188 16.1776 46.4217 16.4037 46.2165 16.4791C46.1733 16.5007 46.1193 16.5007 46.0761 16.5007Z" fill="#69A1FA"/>
<path d="M63.6985 30.0905C63.623 30.0905 63.5474 30.0689 63.4826 30.0258C63.299 29.9074 63.2558 29.6597 63.3746 29.4874L65.2535 26.6769C65.3722 26.4938 65.6206 26.4507 65.7934 26.5692C65.9769 26.6876 66.0201 26.9353 65.9013 27.1076L64.0225 29.9182C63.9469 30.0366 63.8281 30.0905 63.6985 30.0905Z" fill="#69A1FA"/>
<path d="M66.9919 41.8064C66.8624 41.8064 66.7328 41.7417 66.6572 41.6233L64.5408 38.3389C64.422 38.1559 64.476 37.919 64.6596 37.8005C64.8431 37.682 65.0807 37.7359 65.1995 37.9189L67.3159 41.2033C67.4347 41.3864 67.3807 41.6233 67.1971 41.7417C67.1323 41.7956 67.0567 41.8064 66.9919 41.8064Z" fill="#69A1FA"/>
<path d="M13.6496 65.0124C13.52 65.0124 13.3905 64.9477 13.3149 64.8293C13.1961 64.6462 13.2609 64.3986 13.4444 64.2909L16.5003 62.4172C16.6839 62.3095 16.9214 62.3633 17.0402 62.5464C17.159 62.7294 17.0942 62.9771 16.9106 63.0848L13.8548 64.9585C13.79 64.9908 13.7252 65.0124 13.6496 65.0124Z" fill="black"/>
<path d="M21.4025 76.0176C21.2405 76.0176 21.0893 75.9207 21.0353 75.7592L19.394 71.3118C19.3184 71.1072 19.4264 70.8811 19.6316 70.8057C19.8367 70.7303 20.0635 70.838 20.1391 71.0426L21.7804 75.49C21.856 75.6946 21.748 75.9207 21.5428 75.9961C21.4997 76.0176 21.4457 76.0176 21.4025 76.0176Z" fill="black"/>
<path d="M50.0713 30.9735C49.9742 30.9735 49.8662 30.9304 49.7906 30.855L46.7995 27.8722C46.6484 27.7214 46.6484 27.4737 46.7995 27.323L49.7906 24.3401C49.9418 24.1894 50.1901 24.1894 50.3413 24.3401L53.3324 27.323C53.4835 27.4737 53.4835 27.7214 53.3324 27.8722L50.3521 30.855C50.2765 30.9304 50.1685 30.9735 50.0713 30.9735ZM47.631 27.5922L50.0713 30.0258L52.5117 27.5922L50.0713 25.1585L47.631 27.5922Z" fill="#69A1FA"/>
<path d="M59.0013 22.5956C58.1375 22.5956 57.4356 21.8957 57.4356 21.0342C57.4356 20.1727 58.1375 19.4728 59.0013 19.4728C59.8652 19.4728 60.567 20.1727 60.567 21.0342C60.567 21.8957 59.8652 22.5956 59.0013 22.5956ZM59.0013 20.2481C58.5694 20.2481 58.2239 20.6035 58.2239 21.0234C58.2239 21.4434 58.5802 21.7988 59.0013 21.7988C59.4225 21.7988 59.7788 21.4434 59.7788 21.0234C59.7788 20.6035 59.4332 20.2481 59.0013 20.2481Z" fill="#69A1FA"/>
<path d="M160.287 74.0901C156.67 74.0901 153.085 73.164 149.835 71.3441C144.846 68.5551 141.25 63.9893 139.706 58.4974C138.162 53.0055 138.853 47.2444 141.65 42.2802C144.446 37.3052 149.025 33.7193 154.532 32.1794C165.891 29.0027 177.737 35.6253 180.922 46.9644C184.108 58.2928 177.467 70.1057 166.097 73.2824C164.185 73.8209 162.231 74.0901 160.287 74.0901ZM160.309 32.1686C158.473 32.1686 156.594 32.4163 154.737 32.9332C149.435 34.4192 145.03 37.8759 142.33 42.6678C139.631 47.4598 138.972 53.0055 140.462 58.2928C141.952 63.5801 145.418 67.9736 150.223 70.6657C155.029 73.3578 160.59 74.0147 165.891 72.5286C176.841 69.4596 183.244 58.0882 180.166 47.169C177.618 38.1128 169.325 32.1686 160.309 32.1686Z" fill="black"/>
<path d="M160.32 53.124C160.255 53.124 160.19 53.1024 160.125 53.0701C160.039 53.0163 159.963 52.9302 159.942 52.8332L156.184 39.5019C156.13 39.2973 156.249 39.082 156.454 39.0174C156.659 38.9635 156.875 39.082 156.94 39.2866L160.59 52.241L170.329 49.5166C170.535 49.4627 170.751 49.5812 170.815 49.7858C170.869 49.9904 170.751 50.2057 170.545 50.2704L160.428 53.1024C160.395 53.124 160.352 53.124 160.32 53.124Z" fill="black"/>
<path d="M171.107 105.825L139.706 108.646L138.842 99.0944C138.81 98.696 139.102 98.3514 139.501 98.3083L170.178 95.5516L171.107 105.825Z" fill="black"/>
<path d="M133.422 137.29L17.6882 147.681L34.9759 49.4197L150.699 39.0389L133.422 137.29Z" fill="black"/>
<path d="M159.002 131.066L161.27 156.221L107.647 161.024L66.7005 164.696L64.0874 164.932L47.1668 166.451L45.5363 166.591L44.9748 160.259L44.2082 151.827L34.9758 49.4197L150.699 39.0282L157.674 116.27L159.002 131.066Z" fill="#F7F9FB"/>
<path d="M45.5364 166.989C45.3312 166.989 45.1692 166.838 45.1476 166.634L34.5763 49.452C34.5547 49.2366 34.7167 49.0428 34.9327 49.032L150.666 38.6405C150.774 38.6297 150.871 38.662 150.958 38.7266C151.033 38.7912 151.087 38.8881 151.098 38.9958L158.063 116.227C158.085 116.442 157.923 116.636 157.707 116.647C157.491 116.668 157.296 116.507 157.285 116.291L150.353 39.4481L35.397 49.775L45.8927 166.171L160.838 155.865L158.603 131.098C158.581 130.883 158.743 130.689 158.959 130.678C159.175 130.657 159.369 130.818 159.38 131.033L161.648 156.188C161.659 156.296 161.626 156.393 161.562 156.479C161.497 156.555 161.4 156.608 161.292 156.619L45.558 167C45.5688 166.989 45.5472 166.989 45.5364 166.989Z" fill="black"/>
<path d="M135.29 158.934C135.085 158.934 134.923 158.784 134.901 158.579L124.384 41.9895C124.362 41.7742 124.524 41.5803 124.74 41.5696C124.956 41.548 125.15 41.7095 125.161 41.9249L135.679 158.515C135.7 158.73 135.538 158.924 135.322 158.934C135.322 158.934 135.311 158.934 135.29 158.934Z" fill="black"/>
<path d="M131.478 63.0956C131.381 63.0956 131.295 63.0633 131.23 63.0095C131.154 62.9449 131.1 62.8479 131.089 62.7403L131.046 62.288C130.765 59.1975 133.065 56.4623 136.164 56.1823L148.269 55.0947C148.377 55.0839 148.474 55.1162 148.561 55.1808C148.636 55.2455 148.69 55.3424 148.701 55.4501L149.208 61.1142C149.23 61.3296 149.068 61.5234 148.852 61.5342L131.51 63.0849C131.5 63.0956 131.489 63.0956 131.478 63.0956ZM147.945 55.9023L136.229 56.9576C133.562 57.1945 131.586 59.5528 131.824 62.2126V62.2772L148.377 60.7912L147.945 55.9023Z" fill="black"/>
<path d="M132.86 78.3975C132.655 78.3975 132.493 78.2468 132.472 78.0422C132.45 77.8268 132.612 77.633 132.828 77.6222L146.466 76.3946C146.682 76.3731 146.876 76.5346 146.887 76.75C146.909 76.9654 146.747 77.1592 146.531 77.1699L132.893 78.3975C132.882 78.3975 132.871 78.3975 132.86 78.3975Z" fill="black"/>
<path d="M133.983 90.8673C133.778 90.8673 133.616 90.7165 133.595 90.5119C133.573 90.2966 133.735 90.1027 133.951 90.092L147.589 88.8644C147.805 88.8428 147.999 89.0043 148.01 89.2197C148.032 89.4351 147.87 89.6289 147.654 89.6397L134.016 90.8673C134.005 90.8673 133.994 90.8673 133.983 90.8673Z" fill="black"/>
<path d="M136.953 123.743C136.748 123.743 136.586 123.593 136.564 123.388C136.542 123.173 136.704 122.979 136.92 122.968L146.757 122.085C146.973 122.063 147.168 122.225 147.178 122.44C147.2 122.656 147.038 122.85 146.822 122.86L136.985 123.743C136.974 123.743 136.963 123.743 136.953 123.743Z" fill="black"/>
<path d="M131.5 41.0849C131.294 41.0849 131.133 40.9342 131.111 40.7296L130.549 34.4946C130.528 34.2793 130.69 34.0854 130.906 34.0747C131.111 34.0531 131.316 34.2147 131.327 34.43L131.888 40.6649C131.91 40.8803 131.748 41.0741 131.532 41.0849C131.521 41.0849 131.51 41.0849 131.5 41.0849Z" fill="black"/>
<path d="M139.166 40.4066C138.961 40.4066 138.799 40.2558 138.778 40.0512L138.216 33.8163C138.194 33.6009 138.356 33.4071 138.572 33.3963C138.788 33.3748 138.983 33.5363 138.994 33.7517L139.555 39.9866C139.577 40.202 139.415 40.3958 139.199 40.4066C139.199 40.4066 139.188 40.4066 139.166 40.4066Z" fill="black"/>
<path d="M43.5388 48.9782C43.3336 48.9782 43.1716 48.8275 43.15 48.6229L42.5885 42.388C42.5669 42.1726 42.7289 41.9788 42.9449 41.968C43.1608 41.9465 43.3552 42.108 43.366 42.3233L43.9275 48.5583C43.9491 48.7736 43.7871 48.9675 43.5712 48.9782C43.5604 48.9782 43.5496 48.9782 43.5388 48.9782Z" fill="black"/>
<path d="M51.2054 48.289C51.0002 48.289 50.8383 48.1383 50.8167 47.9337L50.2552 41.6988C50.2336 41.4834 50.3955 41.2896 50.6115 41.2788C50.8167 41.2572 51.0218 41.4188 51.0326 41.6341L51.6049 47.8691C51.6265 48.0844 51.4646 48.2783 51.2486 48.289C51.2378 48.289 51.227 48.289 51.2054 48.289Z" fill="black"/>
<path d="M48.9701 76.2007C48.765 76.2007 48.603 76.0499 48.5814 75.8453L47.3072 61.6957C47.2964 61.588 47.3288 61.4911 47.3936 61.4049C47.4584 61.3295 47.5556 61.2757 47.6636 61.2649L61.8522 59.9942C62.0574 59.9727 62.2625 60.1342 62.2733 60.3496L63.5475 74.4993C63.5583 74.607 63.5259 74.7039 63.4611 74.79C63.3963 74.8654 63.2991 74.9193 63.1912 74.93L49.0133 76.2007C49.0025 76.2007 48.9917 76.2007 48.9701 76.2007ZM48.1279 62.0187L49.3373 75.3823L62.7484 74.1762L61.5391 60.8019L48.1279 62.0187Z" fill="black"/>
<path d="M48.9809 76.2007C48.8946 76.2007 48.8082 76.1684 48.7326 76.1145C48.5706 75.9745 48.549 75.7269 48.6786 75.5653L61.5931 60.145C61.7334 59.9835 61.9818 59.9619 62.1438 60.0911C62.3057 60.2311 62.3273 60.4788 62.1978 60.6403L49.2725 76.0607C49.1969 76.1576 49.0889 76.2007 48.9809 76.2007Z" fill="black"/>
<path d="M74.2052 73.9393C74.1188 73.9393 74.0216 73.907 73.9568 73.8532C73.8812 73.7885 73.8272 73.6916 73.8164 73.5839L72.5423 59.4343C72.5207 59.2189 72.6827 59.0251 72.8986 59.0143L87.0873 57.7436C87.1952 57.7328 87.2924 57.7652 87.3788 57.8298C87.4544 57.8944 87.5084 57.9913 87.5192 58.099L88.7934 72.2487C88.8042 72.3564 88.7718 72.4533 88.707 72.5394C88.6422 72.6148 88.545 72.6686 88.437 72.6794L74.2484 73.9501C74.2376 73.9393 74.216 73.9393 74.2052 73.9393ZM73.3629 59.7465L74.5723 73.1209L87.9835 71.9148L86.7741 58.5405L73.3629 59.7465Z" fill="black"/>
<path d="M74.2051 73.9393C74.1187 73.9393 74.0323 73.907 73.9568 73.8532C73.7948 73.7132 73.7732 73.4655 73.9028 73.304L86.8172 57.8836C86.9576 57.7221 87.206 57.7006 87.3679 57.8298C87.5299 57.9698 87.5515 58.2174 87.4219 58.379L74.5075 73.7993C74.4319 73.8855 74.3239 73.9393 74.2051 73.9393Z" fill="black"/>
<path d="M99.4403 71.678C99.2352 71.678 99.0732 71.5272 99.0516 71.3226L97.7774 57.1729C97.7666 57.0653 97.799 56.9683 97.8638 56.8822C97.9286 56.8068 98.0258 56.753 98.1338 56.7422L112.322 55.4715C112.538 55.45 112.733 55.6115 112.744 55.8269L114.018 69.9766C114.029 70.0843 113.996 70.1812 113.931 70.2673C113.867 70.3427 113.769 70.3966 113.661 70.4073L99.4727 71.6672C99.4619 71.678 99.4511 71.678 99.4403 71.678ZM98.5873 57.4852L99.7967 70.8596L113.208 69.6535L111.998 56.2792L98.5873 57.4852Z" fill="black"/>
<path d="M99.4404 71.678C99.354 71.678 99.2676 71.6457 99.192 71.5918C99.03 71.4518 99.0084 71.2042 99.138 71.0426L112.052 55.6223C112.193 55.4608 112.441 55.4392 112.603 55.5684C112.765 55.7084 112.787 55.9561 112.657 56.1176L99.7427 71.538C99.6671 71.6241 99.5591 71.678 99.4404 71.678Z" fill="black"/>
<path d="M51.4429 103.606C51.2377 103.606 51.0758 103.456 51.0542 103.251L49.78 89.1013C49.7692 88.9936 49.8016 88.8967 49.8664 88.8105C49.9312 88.7352 50.0284 88.6813 50.1363 88.6706L64.325 87.3999C64.5409 87.3783 64.7353 87.5399 64.7461 87.7552L66.0203 101.905C66.0311 102.013 65.9987 102.11 65.9339 102.196C65.8691 102.271 65.7719 102.325 65.6639 102.336L51.4753 103.606C51.4753 103.606 51.4645 103.606 51.4429 103.606ZM50.6007 89.4243L51.81 102.799L65.2212 101.593L64.0118 88.2183L50.6007 89.4243Z" fill="black"/>
<path d="M51.4537 103.606C51.3673 103.606 51.2809 103.574 51.2054 103.52C51.0434 103.38 51.0218 103.133 51.1514 102.971L64.0659 87.5506C64.2062 87.3891 64.4546 87.3676 64.6165 87.4968C64.7785 87.6368 64.8001 87.8844 64.6705 88.046L51.7561 103.466C51.6697 103.552 51.5617 103.606 51.4537 103.606Z" fill="black"/>
<path d="M95.7475 99.439C95.5423 99.439 95.3803 99.2882 95.3587 99.0836L94.0846 84.9339C94.0738 84.8262 94.1062 84.7293 94.1709 84.6432C94.2357 84.5678 94.3329 84.514 94.4409 84.5032L108.63 83.2325C108.846 83.211 109.04 83.3725 109.051 83.5879L110.325 97.7376C110.336 97.8452 110.303 97.9422 110.238 98.0283C110.174 98.1037 110.076 98.1575 109.969 98.1683L95.7799 99.439C95.7691 99.439 95.7583 99.439 95.7475 99.439ZM94.8944 85.257L96.1038 98.6313L109.515 97.4253L108.306 84.0509L94.8944 85.257Z" fill="black"/>
<path d="M194.83 112.232C189.302 112.232 184.669 110.853 180.879 109.723C179.929 109.443 179.033 109.174 178.212 108.958C168.915 106.503 165.773 111.693 165.74 111.747C165.632 111.93 165.384 111.995 165.2 111.887C165.017 111.78 164.952 111.543 165.06 111.349C165.2 111.112 168.537 105.588 178.417 108.194C179.259 108.42 180.156 108.678 181.117 108.969C189.701 111.532 202.68 115.398 220.648 100.925C220.821 100.785 221.059 100.817 221.199 100.979C221.339 101.151 221.307 101.399 221.145 101.528C210.779 109.874 202.043 112.232 194.83 112.232Z" fill="black"/>
<path d="M181.613 117.907C181.581 117.907 181.549 117.907 181.516 117.896C178.763 117.196 176.387 115.99 174.098 114.827C168.731 112.103 164.488 109.949 158.635 116.324C158.484 116.485 158.236 116.496 158.084 116.345C157.922 116.195 157.912 115.947 158.063 115.796C164.326 108.98 169.023 111.36 174.465 114.127C176.722 115.269 179.043 116.453 181.721 117.131C181.926 117.185 182.056 117.401 182.002 117.605C181.948 117.788 181.786 117.907 181.613 117.907Z" fill="black"/>
<path d="M160.73 147.994C160.525 147.994 160.352 147.832 160.341 147.628C160.33 147.412 160.482 147.229 160.708 147.208C160.784 147.208 167.943 146.615 170.005 141.296C170.394 140.284 170.351 139.304 169.876 138.291C168.029 134.382 160.233 131.529 157.89 130.754C156.443 130.28 153.927 131.658 151.498 132.983C148.733 134.501 146.109 135.944 144.295 135.276C143.593 135.018 143.064 134.458 142.74 133.607C141.963 131.572 142.632 128.578 144.554 125.369C147.049 121.213 151.919 116.464 156.691 115.861C161.68 115.225 165.265 117.207 169.8 119.716C171.841 120.847 174.163 122.128 176.895 123.323C177.089 123.409 177.186 123.636 177.1 123.84C177.013 124.034 176.787 124.131 176.581 124.045C173.817 122.839 171.485 121.547 169.422 120.405C165.006 117.961 161.518 116.033 156.789 116.636C152.48 117.185 147.707 121.654 145.235 125.779C143.431 128.772 142.794 131.529 143.475 133.338C143.712 133.973 144.068 134.372 144.565 134.555C146.045 135.093 148.625 133.683 151.12 132.315C153.819 130.84 156.367 129.44 158.138 130.021C161.237 131.055 168.666 133.887 170.589 137.968C171.15 139.164 171.204 140.38 170.74 141.587C168.494 147.369 161.086 147.972 160.773 147.994C160.751 147.994 160.741 147.994 160.73 147.994Z" fill="black"/>
<path d="M169.368 158.87C165.362 158.87 161.205 158.181 156.108 157.05C155.892 157.007 155.763 156.791 155.806 156.587C155.849 156.382 156.065 156.242 156.27 156.285C167.803 158.837 174.433 159.107 185.652 154.132C188.87 152.71 193.729 151.418 199.355 149.921C209.818 147.143 222.83 143.686 229.352 137.882C229.514 137.742 229.762 137.753 229.902 137.914C230.043 138.076 230.032 138.324 229.87 138.464C223.207 144.386 210.088 147.864 199.549 150.675C193.955 152.161 189.118 153.443 185.954 154.853C179.518 157.707 174.562 158.87 169.368 158.87Z" fill="black"/>
<path d="M183.438 126.005C183.406 126.005 183.384 126.005 183.352 125.994L180.577 125.38C180.361 125.337 180.231 125.122 180.275 124.917C180.318 124.712 180.534 124.572 180.739 124.615L183.514 125.229C183.73 125.272 183.859 125.488 183.816 125.692C183.773 125.886 183.611 126.005 183.438 126.005Z" fill="black"/>
<path d="M186.159 119.285C186.149 119.285 186.138 119.285 186.127 119.285L183.687 119.059C183.471 119.037 183.309 118.844 183.33 118.628C183.352 118.413 183.546 118.262 183.762 118.273L186.203 118.499C186.419 118.521 186.581 118.714 186.559 118.93C186.527 119.134 186.365 119.285 186.159 119.285Z" fill="black"/>
<path d="M187.379 116.668C187.369 116.668 187.358 116.668 187.347 116.668L184.907 116.442C184.691 116.421 184.529 116.227 184.55 116.012C184.572 115.796 184.766 115.635 184.982 115.656L187.423 115.882C187.639 115.904 187.801 116.098 187.779 116.313C187.747 116.518 187.574 116.668 187.379 116.668Z" fill="black"/>
<path d="M112.247 77.1052L98.3279 74.9515L106.254 89.5535L98.5763 95.8961L112.97 98.5236L114.406 108.097L123.768 101.991L126.403 93.8608L137.806 96.6068L131.921 86.4414L138.281 72.2056L122.926 78.182L111.404 64.1831L112.247 77.1052Z" fill="#69A1FA"/>
<path d="M114.428 21.1311C114.331 21.1311 114.244 21.0987 114.169 21.0341L110.411 17.7067C110.249 17.5667 110.238 17.319 110.379 17.1575C110.519 16.996 110.767 16.9852 110.929 17.1252L114.687 20.4526C114.849 20.5926 114.86 20.8403 114.719 21.0018C114.644 21.088 114.536 21.1311 114.428 21.1311Z" fill="black"/>
<path d="M106.491 29.8857C106.448 29.8857 106.394 29.875 106.351 29.8642C106.146 29.7888 106.049 29.5627 106.124 29.3581L107.377 26.0306C107.452 25.826 107.679 25.7291 107.884 25.8045C108.089 25.8799 108.187 26.106 108.111 26.3106L106.858 29.6381C106.794 29.7888 106.642 29.8857 106.491 29.8857Z" fill="black"/>
<path d="M180.005 77.7837C179.907 77.7837 179.821 77.7514 179.745 77.6868L176.398 74.7685C176.236 74.6285 176.214 74.3809 176.366 74.2193C176.506 74.0578 176.754 74.0363 176.916 74.187L180.264 77.1053C180.426 77.2453 180.447 77.4929 180.296 77.6545C180.221 77.7406 180.113 77.7837 180.005 77.7837Z" fill="black"/>
<path d="M29.6631 119.037H15.3557C15.1397 119.037 14.967 118.865 14.967 118.65V105.512C14.967 105.297 15.1397 105.125 15.3557 105.125H29.6631C29.8791 105.125 30.0519 105.297 30.0519 105.512V118.65C30.0519 118.865 29.8791 119.037 29.6631 119.037ZM15.7444 118.262H29.2636V105.9H15.7444V118.262Z" fill="black"/>
<path d="M11.7167 103.94C11.5979 103.94 11.4791 103.886 11.4035 103.779C11.274 103.606 11.3063 103.359 11.4791 103.229L14.0167 101.334C14.1894 101.205 14.4378 101.237 14.5674 101.41C14.6969 101.582 14.6645 101.83 14.4918 101.959L11.9542 103.854C11.8786 103.908 11.8031 103.94 11.7167 103.94Z" fill="black"/>
<path d="M115.605 79.3774C115.54 79.3774 115.465 79.3558 115.4 79.3235L113.003 77.8913C112.819 77.7837 112.754 77.536 112.873 77.3529C112.981 77.1699 113.229 77.1052 113.413 77.2237L115.81 78.6559C115.994 78.7636 116.058 79.0113 115.94 79.1943C115.864 79.3128 115.734 79.3774 115.605 79.3774Z" fill="black"/>
<path d="M119.438 73.6378C119.265 73.6378 119.103 73.5194 119.06 73.3363L118.099 69.5028C118.045 69.2982 118.175 69.0828 118.38 69.029C118.585 68.9751 118.801 69.1043 118.855 69.3089L119.816 73.1425C119.87 73.3471 119.74 73.5625 119.535 73.6163C119.503 73.6378 119.471 73.6378 119.438 73.6378Z" fill="black"/>
<path d="M71.8509 94.9162C73.3843 97.5114 75.0795 98.9221 76.8828 99.4174L78.8373 119.49L86.6875 118.165L84.6466 97.1238C87.8536 94.3886 84.9382 89.4028 85.4781 90.2212L86.2771 88.5629C86.2771 88.5629 84.1931 86.5276 79.6255 85.3324C75.0472 84.1371 68.4711 89.1767 71.8509 94.9162Z" fill="#F7F9FB"/>
<path d="M78.8264 119.888C78.74 119.888 78.6537 119.856 78.5889 119.813C78.5025 119.748 78.4485 119.651 78.4377 119.544L76.5156 99.7297C74.6368 99.1159 72.9631 97.576 71.5161 95.1316C70.1016 92.7302 70.2312 90.1243 71.8509 87.9921C73.6865 85.58 77.0663 84.277 79.7227 84.977C84.3442 86.183 86.4606 88.2183 86.5578 88.3044C86.6766 88.4229 86.709 88.6059 86.6334 88.7567L85.8883 90.3073C87.0221 93.2794 86.7306 95.7562 85.0569 97.3068L87.0761 118.154C87.0977 118.359 86.9574 118.542 86.7522 118.574L78.902 119.899C78.8696 119.888 78.848 119.888 78.8264 119.888ZM72.1856 94.7224C73.5894 97.1022 75.1983 98.5559 76.98 99.0405C77.1311 99.0836 77.2499 99.2236 77.2607 99.3851L79.172 119.037L86.2447 117.842L84.2362 97.1668C84.2254 97.0376 84.2794 96.9191 84.3766 96.833C85.9531 95.4869 86.2015 93.2794 85.0893 90.4581C85.0245 90.2858 84.8949 89.9628 85.2189 89.8012C85.2297 89.8012 85.2405 89.7905 85.2513 89.7905L85.7912 88.6813C85.1649 88.1644 83.1348 86.6676 79.5175 85.7308C77.1527 85.117 74.1293 86.2907 72.4772 88.4659C71.6349 89.5536 70.4903 91.8257 72.1856 94.7224Z" fill="black"/>
<path d="M79.4203 90.415C79.0099 90.1889 78.5996 89.952 78.1893 89.7259C78.8048 88.4983 79.3123 87.0984 79.4527 85.86C79.8738 84.5893 79.755 83.211 78.3189 82.5326C76.5156 81.6926 75.2306 83.1679 74.6151 84.697C73.7729 84.8585 73.0494 85.5046 72.6499 86.3123C72.4771 86.6676 72.3151 87.0876 72.2288 87.5076C72.164 87.5614 72.0992 87.6045 72.0452 87.6583C71.5485 89.4997 71.0842 91.395 70.8034 93.2902C71.1813 93.8932 71.5809 94.464 71.8508 94.927C73.4381 97.6299 75.1982 99.0298 77.0879 99.4713C77.3254 99.2774 77.5414 99.0621 77.7358 98.8144C78.1893 98.2437 79.0099 94.8624 77.8221 95.1639C76.5048 95.4977 74.9823 93.8932 76.1592 92.7302C76.3104 92.5795 76.4724 92.3964 76.6452 92.1811C77.0663 92.418 77.4874 92.6549 77.9085 92.8918C79.539 93.7963 81.04 91.3304 79.4203 90.415Z" fill="black"/>
<path d="M115.032 97.6514C114.514 88.1321 114.071 85.0308 116.447 84.6324C119.287 84.1586 115.259 87.303 118.315 89.4782C120.118 90.7596 122.008 87.9921 121.252 85.8169C120.248 82.9094 118.315 85.3431 117.645 84.1155C116.976 82.8879 118.768 80.8742 120.896 81.4342C123.023 81.9941 123.466 85.0093 123.466 85.0093C123.466 85.0093 121.004 79.6466 122.343 79.5389C123.682 79.4312 126.036 85.3431 126.036 85.3431C126.036 85.3431 122.904 79.6466 124.805 79.5389C126.705 79.4312 129.998 87.5183 131.715 97.6514H115.032Z" fill="#F7F9FB"/>
<path d="M131.715 98.0498C131.532 98.0498 131.359 97.9098 131.327 97.7267C129.513 86.9691 126.241 79.9373 124.848 79.9373C124.837 79.9373 124.837 79.9373 124.826 79.9373C124.697 79.9481 124.664 79.9912 124.643 80.0235C124.47 80.3465 124.621 81.1111 124.945 82.0049C125.561 83.1571 126.079 84.4062 126.403 85.2031C126.478 85.3969 126.392 85.6123 126.208 85.6984C126.025 85.7846 125.798 85.7092 125.701 85.5369C125.474 85.1169 124.751 83.7601 124.265 82.4141C123.477 80.9388 122.753 79.9373 122.397 79.9373H122.386C122.213 80.1419 122.418 81.1434 122.85 82.4141C123.639 83.5232 123.844 84.8693 123.865 84.9554C123.898 85.1492 123.779 85.3323 123.585 85.3861C123.39 85.44 123.196 85.3538 123.12 85.1708C122.904 84.7077 122.494 83.7709 122.148 82.7694C121.814 82.3279 121.382 81.9618 120.809 81.811C119.654 81.5095 118.715 82.0695 118.261 82.651C117.916 83.0925 117.818 83.5878 118.002 83.9324C118.11 84.137 118.25 84.1478 118.844 84.0293C119.665 83.8678 120.917 83.6201 121.641 85.6876C122.192 87.2814 121.49 89.0151 120.485 89.7581C119.73 90.3181 118.866 90.3288 118.099 89.7904C116.231 88.4659 116.706 86.7537 116.998 85.7307C117.073 85.4723 117.181 85.0846 117.138 84.9769C117.127 84.9769 117.095 84.9662 116.965 84.9662C116.868 84.9662 116.728 84.9769 116.523 85.0092C114.806 85.3 114.849 87.4752 115.281 94.9808C115.324 95.7992 115.378 96.6822 115.432 97.6298C115.443 97.8452 115.281 98.0283 115.065 98.039C114.838 98.0498 114.665 97.8883 114.655 97.6729C114.601 96.7253 114.557 95.853 114.503 95.0346C114.061 87.2814 113.909 84.6647 116.404 84.2555C116.685 84.2124 116.998 84.1693 117.278 84.2339C116.987 83.6201 117.127 82.8448 117.646 82.1771C118.239 81.4126 119.481 80.6696 121.004 81.068C121.263 81.1326 121.511 81.2403 121.727 81.3695C121.554 80.5942 121.5 79.9158 121.716 79.5497C121.846 79.3235 122.062 79.1943 122.321 79.1728C122.807 79.1297 123.315 79.5604 123.822 80.2173C123.833 80.0019 123.887 79.8189 123.973 79.6681C124.092 79.4527 124.33 79.2051 124.794 79.1728C127.385 79.0435 130.592 88.6274 132.115 97.6083C132.147 97.8237 132.007 98.0282 131.791 98.0606C131.759 98.0498 131.737 98.0498 131.715 98.0498ZM117.894 84.8262C117.959 85.1385 117.851 85.5261 117.732 85.9461C117.462 86.926 117.116 88.1428 118.542 89.1551C119.147 89.5858 119.676 89.3812 120 89.1335C120.755 88.5628 121.306 87.1845 120.874 85.9461C120.377 84.5247 119.762 84.6431 118.974 84.7939C118.65 84.8585 118.25 84.9446 117.894 84.8262Z" fill="black"/>
<path d="M115.032 97.6514C114.914 98.6744 118.401 121.439 113.812 129.698C109.936 136.698 104.969 122.063 104.159 119.393C100.995 108.937 84.5171 113.395 87.7025 123.916C90.0997 131.841 93.1339 139.68 100.131 144.666C106.664 149.318 115.659 150.05 122.321 145.302C136.639 135.115 133.81 112.91 131.705 97.6514H115.032Z" fill="#F7F9FB"/>
<path d="M111.987 148.931C107.841 148.931 103.597 147.606 99.9151 144.989C92.5832 139.767 89.5706 131.432 87.3354 124.034C86.4175 120.997 87.0114 118.144 89.0199 116.012C91.2767 113.61 95.0236 112.523 98.3278 113.298C101.384 114.009 103.586 116.141 104.537 119.285C105.94 123.926 108.931 130.926 111.393 131.184C112.117 131.26 112.819 130.7 113.477 129.515C117.235 122.742 115.432 105.534 114.838 99.8805C114.676 98.3621 114.622 97.8237 114.644 97.6191C114.665 97.4253 114.838 97.2745 115.032 97.2745H131.726C131.921 97.2745 132.093 97.4145 132.115 97.6084C134.177 112.566 137.276 135.169 122.569 145.635C119.46 147.832 115.767 148.931 111.987 148.931ZM96.1358 113.836C93.6738 113.836 91.2011 114.827 89.5814 116.55C87.7781 118.467 87.2382 121.04 88.0804 123.808C90.2832 131.077 93.2311 139.271 100.369 144.354C107.128 149.168 115.864 149.426 122.105 144.989C136.326 134.878 133.411 112.824 131.381 98.0499H115.443C115.475 98.4375 115.54 99.0836 115.615 99.7943C116.274 106.115 118.034 122.903 114.158 129.892C113.337 131.378 112.376 132.067 111.307 131.96C107.539 131.561 104.159 120.739 103.781 119.511C102.917 116.647 100.909 114.709 98.1442 114.062C97.4855 113.901 96.8161 113.836 96.1358 113.836Z" fill="black"/>
<path d="M122.602 93.4194C122.429 93.4194 122.278 93.3117 122.224 93.1394C122.224 93.1287 121.727 91.6103 119.028 90.1458C118.833 90.0381 118.769 89.8012 118.866 89.6182C118.974 89.4243 119.211 89.3597 119.395 89.4566C122.418 91.0934 122.958 92.8487 122.98 92.9133C123.045 93.1179 122.915 93.3333 122.71 93.3979C122.677 93.4087 122.634 93.4194 122.602 93.4194Z" fill="black"/>
<path d="M107.236 152.355C107.215 152.14 107.02 151.978 106.815 152L63.612 155.855C63.4068 155.876 63.2448 156.059 63.2556 156.264L63.7092 164.954C63.7092 165.062 63.7631 165.159 63.8387 165.234C63.9143 165.299 64.0007 165.331 64.0979 165.331C64.1087 165.331 64.1195 165.331 64.1303 165.331L107.69 161.422C107.798 161.411 107.895 161.357 107.96 161.282C108.024 161.207 108.057 161.099 108.046 160.991L107.236 152.355Z" fill="black"/>
<path d="M81.7744 112.706C71.0627 114.31 65.3505 116.615 61.4632 120.944C59.5627 123.054 62.6726 126.845 62.7266 132.024C62.8885 146.863 63.612 156.361 63.612 156.361L106.837 152.398C106.837 152.398 106.048 136.461 105.109 128.18C104.17 119.899 105.746 109.109 81.7744 112.706Z" fill="#F7F9FB"/>
<path d="M63.612 156.738C63.5149 156.738 63.4285 156.705 63.3637 156.641C63.2881 156.576 63.2341 156.479 63.2233 156.372C63.2125 156.275 62.4891 146.701 62.3379 132.013C62.3163 129.817 61.7332 127.889 61.2149 126.177C60.513 123.862 59.9623 122.031 61.1825 120.674C65.1238 116.281 70.8899 113.933 81.7312 112.318C91.1471 110.907 97.464 111.586 101.038 114.407C104.591 117.207 104.958 121.579 105.303 125.8C105.368 126.586 105.433 127.372 105.519 128.126C106.448 136.321 107.236 152.204 107.247 152.366C107.258 152.57 107.096 152.753 106.891 152.775L63.6444 156.738C63.6336 156.738 63.6228 156.738 63.612 156.738ZM81.8284 113.093C71.1923 114.687 65.5557 116.959 61.7548 121.202C60.8261 122.236 61.3013 123.797 61.9599 125.962C62.4891 127.717 63.0937 129.709 63.1153 132.013C63.2557 145 63.8388 153.981 63.9684 155.93L106.426 152.043C106.297 149.587 105.573 135.696 104.72 128.223C104.634 127.458 104.569 126.672 104.504 125.875C104.17 121.816 103.813 117.627 100.531 115.032C97.14 112.35 91.0283 111.715 81.8284 113.093Z" fill="black"/>
<path d="M77.7035 108.797L74.2482 113.955L81.0186 118.747L82.7138 112.706L77.7035 108.797Z" fill="#F7F9FB"/>
<path d="M81.0185 119.145C80.9429 119.145 80.8565 119.124 80.7918 119.07L74.0214 114.278C73.8486 114.159 73.8054 113.923 73.9242 113.739L77.3688 108.581C77.4336 108.495 77.52 108.431 77.6279 108.409C77.7359 108.388 77.8439 108.42 77.9303 108.484L82.9406 112.393C83.0702 112.49 83.1241 112.652 83.081 112.803L81.3857 118.844C81.3533 118.962 81.2561 119.07 81.1373 119.102C81.1049 119.134 81.0617 119.145 81.0185 119.145ZM74.788 113.858L80.7918 118.111L82.2603 112.856L77.7899 109.368L74.788 113.858Z" fill="black"/>
<path d="M82.7137 112.706L86.5579 117.799L88.6635 111.92L85.694 107.86L82.7137 112.706Z" fill="#F7F9FB"/>
<path d="M86.558 118.187C86.4392 118.187 86.3204 118.133 86.2448 118.036L82.3899 112.943C82.2927 112.813 82.2819 112.641 82.3683 112.501L85.3486 107.655C85.4134 107.548 85.5322 107.472 85.6725 107.472C85.8129 107.472 85.9317 107.526 86.0073 107.634L88.9875 111.693C89.0631 111.801 89.0847 111.93 89.0415 112.06L86.9359 117.939C86.8927 118.079 86.7631 118.176 86.6228 118.198C86.6012 118.187 86.5796 118.187 86.558 118.187ZM83.189 112.684L86.4392 116.981L88.2317 111.984L85.7265 108.56L83.189 112.684Z" fill="black"/>
<path d="M84.9814 116.162L81.8068 116.539L82.2819 148.866L87.357 155.435L89.765 147.983L84.9814 116.162Z" fill="#F7F9FB"/>
<path d="M87.357 155.833C87.2382 155.833 87.1195 155.779 87.0439 155.682L81.9688 149.103C81.9148 149.038 81.8932 148.952 81.8824 148.866L81.4073 116.55C81.4073 116.345 81.5585 116.184 81.7528 116.152L84.9275 115.775C85.1326 115.753 85.327 115.893 85.3594 116.108L90.1429 147.918C90.1537 147.983 90.1429 148.037 90.1321 148.101L87.7242 155.564C87.681 155.704 87.5622 155.801 87.4218 155.833C87.4002 155.833 87.3786 155.833 87.357 155.833ZM82.6707 148.726L87.2058 154.606L89.3547 147.94L84.6359 116.593L82.1955 116.884L82.6707 148.726Z" fill="black"/>
<path d="M69.9827 136.332C63.0396 143.697 56.55 154.164 64.8429 162.165C65.6743 162.973 66.2898 163.823 66.7001 164.696L47.1664 166.451C46.1946 164.48 45.4711 162.402 44.9744 160.259C44.3373 157.524 44.089 154.681 44.2186 151.827C44.3158 149.415 44.6937 147.014 45.3308 144.656C48.1275 134.307 55.3622 126.005 63.3311 119.145L69.9827 136.332Z" fill="#F7F9FB"/>
<path d="M47.1666 166.838C47.0154 166.838 46.8858 166.752 46.8102 166.623C45.8384 164.663 45.0934 162.553 44.5858 160.345C43.9488 157.599 43.6896 154.724 43.8192 151.806C43.9272 149.383 44.3051 146.938 44.9422 144.548C47.3394 135.696 53.2675 127.286 63.0613 118.844C63.2233 118.704 63.4717 118.725 63.612 118.887C63.7524 119.048 63.7308 119.296 63.5688 119.436C53.7534 127.889 48.0736 135.933 45.6873 144.752C45.061 147.089 44.6938 149.469 44.5966 151.838C44.4671 154.681 44.7154 157.491 45.3417 160.162C45.8168 162.219 46.5079 164.189 47.3825 166.031L66.0632 164.351C65.6853 163.683 65.1777 163.037 64.5515 162.434C56.0102 154.185 62.6294 143.536 69.6805 136.051C69.8317 135.89 70.0801 135.89 70.2312 136.03C70.3932 136.181 70.3932 136.428 70.2528 136.579C63.4393 143.805 57.0252 154.067 65.1022 161.863C65.9552 162.682 66.6031 163.576 67.0458 164.512C67.0998 164.631 67.089 164.76 67.035 164.868C66.9702 164.975 66.8622 165.051 66.7327 165.062L47.199 166.817C47.1882 166.838 47.1774 166.838 47.1666 166.838Z" fill="black"/>
<path d="M58.634 165.062C63.4823 158.773 70.0259 156.425 74.8743 158.041C79.7226 159.656 81.8282 160.464 81.3423 161.422C80.8564 162.391 76.9799 161.26 76.9799 161.26C76.9799 161.26 79.0855 163.36 78.2756 165.288C77.4658 167.215 72.7794 161.907 72.7794 161.907C72.7794 161.907 75.8461 166.096 73.4273 166.419C70.9977 166.742 68.579 162.876 68.579 162.876C68.579 162.876 70.0367 167.722 67.4452 166.257C64.8645 164.803 63.2663 164.136 63.0612 164.642L58.634 165.062Z" fill="#F7F9FB"/>
<path d="M68.2766 166.935C67.9851 166.935 67.6395 166.828 67.2508 166.612C64.3893 164.986 63.5687 165.008 63.4175 165.029C63.3203 165.191 63.1152 165.256 62.9316 165.191C62.7264 165.105 62.6293 164.879 62.7156 164.685C62.7696 164.556 62.8776 164.394 63.1368 164.308C63.7954 164.082 65.318 164.631 67.6395 165.945C68.0067 166.149 68.2874 166.225 68.4062 166.128C68.7625 165.848 68.5898 164.286 68.201 163.005C68.1471 162.822 68.2334 162.617 68.417 162.531C68.6006 162.445 68.8057 162.51 68.9137 162.682C68.9353 162.714 71.2353 166.332 73.3733 166.052C73.7512 165.999 73.8592 165.848 73.9132 165.74C74.2156 165.04 73.2437 163.231 72.4663 162.165C72.3475 161.993 72.3691 161.756 72.5419 161.627C72.7038 161.497 72.9414 161.519 73.0818 161.67C74.4963 163.274 76.8827 165.482 77.7357 165.342C77.8005 165.331 77.8653 165.309 77.9193 165.159C78.6212 163.49 76.7315 161.573 76.7099 161.551C76.5803 161.422 76.5587 161.228 76.6451 161.077C76.7315 160.927 76.9259 160.851 77.0878 160.905C78.9235 161.433 80.8132 161.616 80.9859 161.271C81.0183 161.207 81.0183 161.164 80.9967 161.12C80.7052 160.421 77.5414 159.365 74.7447 158.439C69.7452 156.781 63.3959 159.548 58.9363 165.331C58.8067 165.503 58.5584 165.536 58.3856 165.406C58.2128 165.277 58.1804 165.029 58.31 164.857C62.9748 158.816 69.6804 155.941 74.9822 157.707C79.3662 159.161 81.3207 159.893 81.7094 160.83C81.8174 161.088 81.8066 161.368 81.677 161.637C81.2451 162.499 79.4094 162.283 77.9949 161.971C78.5672 162.833 79.1611 164.168 78.6212 165.482C78.4268 165.945 78.0921 166.085 77.8329 166.128C76.9583 166.268 75.6193 165.288 74.4855 164.254C74.7231 164.911 74.8311 165.568 74.6151 166.063C74.4855 166.365 74.1832 166.752 73.4597 166.849C71.84 167.065 70.3067 165.708 69.3132 164.566C69.4212 165.439 69.378 166.354 68.8705 166.752C68.7194 166.86 68.5142 166.935 68.2766 166.935Z" fill="black"/>
<path d="M76.8503 161.551C76.7423 161.551 76.6452 161.508 76.5588 161.422L75.1334 159.893C74.9823 159.731 74.9931 159.484 75.155 159.344C75.317 159.193 75.5654 159.204 75.7057 159.365L77.1311 160.894C77.2823 161.056 77.2715 161.303 77.1095 161.443C77.0447 161.519 76.9475 161.551 76.8503 161.551Z" fill="black"/>
<defs>
<linearGradient id="paint0_linear_53_716" x1="43.7168" y1="1.30652" x2="43.7168" y2="102.648" gradientUnits="userSpaceOnUse">
<stop stop-color="#F7F9FB"/>
<stop offset="1" stop-color="#D7DCE0"/>
</linearGradient>
</defs>
</svg>
