<svg width="230" height="167" viewBox="0 0 230 167" fill="none" xmlns="http://www.w3.org/2000/svg">
<path d="M0.162231 134.794C0.162231 134.737 40.3871 134.691 89.9952 134.691C139.621 134.691 179.837 134.737 179.837 134.794C179.837 134.852 139.621 134.898 89.9952 134.898C40.3868 134.898 0.162231 134.851 0.162231 134.794Z" fill="#263238"/>
<path d="M66.8083 116.229L66.9006 115.65H66.3146H4.98791C2.48255 115.65 0.5 113.736 0.5 111.434V4.71596C0.5 2.41374 2.48252 0.5 4.98791 0.5H164.776C167.282 0.5 169.264 2.41371 169.264 4.71636V111.434C169.264 113.736 167.282 115.65 164.777 115.65H105.323H104.752L104.827 116.216L107.234 134.294H63.9272L66.8083 116.229Z" fill="#E4EBF3" stroke="black"/>
<path d="M87.0149 104.926C89.1886 107.864 85.7866 111.08 82.6792 109.025C82.5768 108.957 82.4837 108.869 82.4121 108.772C80.2442 105.835 83.642 102.623 86.7473 104.673C86.8501 104.741 86.9432 104.829 87.0149 104.926Z" fill="#263238"/>
<path d="M165.076 96.3771H4.72937V7.93819C4.72937 5.95541 6.43354 4.32483 8.56517 4.32483H161.239C163.372 4.32483 165.075 5.95577 165.075 7.93819L165.076 96.3771Z" fill="white" stroke="black" stroke-width="0.5"/>
<path d="M121.814 116.152C121.814 116.203 108.419 116.245 91.8988 116.245C75.3735 116.245 61.9814 116.203 61.9814 116.152C61.9814 116.101 75.3735 116.059 91.8988 116.059C108.419 116.058 121.814 116.1 121.814 116.152Z" fill="#263238"/>
<path d="M9.10266 92.5514V8.151H160.917V92.5514H9.10266Z" fill="white" stroke="black" stroke-width="0.5"/>
<path d="M9.09644 14.7056V8.151H160.911V14.7056H9.09644Z" fill="#E4EBF3" stroke="black" stroke-width="0.5"/>
<path d="M14.5105 11.5761C14.5105 11.9578 14.1648 12.3046 13.6907 12.3046C13.2165 12.3046 12.8708 11.9578 12.8708 11.5761C12.8708 11.1945 13.2165 10.8477 13.6907 10.8477C14.1648 10.8477 14.5105 11.1945 14.5105 11.5761Z" fill="white" stroke="black" stroke-width="0.5"/>
<path d="M17.7047 11.5761C17.7047 11.9578 17.359 12.3046 16.8849 12.3046C16.4108 12.3046 16.0651 11.9578 16.0651 11.5761C16.0651 11.1945 16.4108 10.8477 16.8849 10.8477C17.359 10.8477 17.7047 11.1945 17.7047 11.5761Z" fill="white" stroke="black" stroke-width="0.5"/>
<path d="M20.7366 11.5761C20.7366 11.9578 20.391 12.3046 19.9168 12.3046C19.4424 12.3046 19.097 11.9579 19.097 11.5761C19.097 11.1945 19.4427 10.8477 19.9168 10.8477C20.391 10.8477 20.7366 11.1945 20.7366 11.5761Z" fill="white" stroke="black" stroke-width="0.5"/>
<path d="M9.07153 55.5659V25.7119H160.943V55.5659H9.07153Z" fill="#E4EBF3" stroke="black" stroke-width="0.5"/>
<path d="M29.9653 17H15.0728V22.6645H29.9653V17Z" fill="url(#paint0_linear_55_321)"/>
<path d="M29.9653 17H15.0728V22.6645H29.9653V17Z" stroke="black"/>
<path d="M123.758 21.6026V18.5157H134.039V21.6026H123.758Z" fill="#E4EBF3" stroke="black" stroke-width="0.5"/>
<path d="M106.14 21.5063V18.4194H116.421V21.5063H106.14Z" fill="#E4EBF3" stroke="black" stroke-width="0.5"/>
<path d="M79.0697 51.5897C79.0697 52.1152 78.5968 52.5784 77.9655 52.5784C77.3343 52.5784 76.8613 52.1152 76.8613 51.5897C76.8613 51.0643 77.3343 50.6011 77.9655 50.6011C78.5964 50.6011 79.0697 51.0643 79.0697 51.5897Z" fill="#69A1FA" stroke="black" stroke-width="0.5"/>
<path d="M84.4662 51.5897C84.4662 52.1152 83.9933 52.5784 83.362 52.5784C82.7308 52.5784 82.2578 52.1152 82.2578 51.5897C82.2578 51.0643 82.7308 50.6011 83.362 50.6011C83.9933 50.6011 84.4662 51.0643 84.4662 51.5897Z" fill="white" stroke="black" stroke-width="0.5"/>
<path d="M89.6006 51.5897C89.6006 52.1152 89.1277 52.5784 88.4964 52.5784C87.8651 52.5784 87.3922 52.1152 87.3922 51.5897C87.3922 51.0643 87.8651 50.6011 88.4964 50.6011C89.1277 50.6011 89.6006 51.0643 89.6006 51.5897Z" fill="white" stroke="black" stroke-width="0.5"/>
<path d="M47.8421 61.3344H24.8113V80.3309H47.8421V61.3344Z" fill="#E4EBF3"/>
<path d="M93.8526 60.9937H74.434V79.3551H93.8526V60.9937Z" fill="#E4EBF3"/>
<path d="M139.572 60.4285H118.96V79.919H139.572V60.4285Z" fill="#E4EBF3"/>
<path d="M46.6858 84.2938H26.5956V86.8313H46.6858V84.2938Z" fill="#E4EBF3"/>
<path d="M93.7256 84.2938H73.6354V86.8313H93.7256V84.2938Z" fill="#E4EBF3"/>
<path d="M139.78 84.3584H120.706V86.7676H139.78V84.3584Z" fill="#E4EBF3"/>
<path d="M155.111 29.9923H143.65C142.755 29.9923 142.03 29.307 142.03 28.4616V17.6245C142.03 16.779 142.755 16.0934 143.65 16.0934H155.111C156.005 16.0934 156.729 16.7786 156.729 17.6245V28.4616C156.729 29.307 156.005 29.9923 155.111 29.9923Z" fill="#EB6B5D"/>
<path d="M151.821 24.2566H146.966C146.849 24.2566 146.755 24.1673 146.755 24.0574C146.755 23.9474 146.849 23.8582 146.966 23.8582H151.644L152.149 21.1598H146.508C146.392 21.1598 146.297 21.0705 146.297 20.9606C146.297 20.8506 146.392 20.7614 146.508 20.7614H152.4C152.462 20.7614 152.521 20.7876 152.561 20.8327C152.602 20.8777 152.619 20.9375 152.607 20.9956L152.027 24.092C152.011 24.1873 151.923 24.2566 151.821 24.2566Z" fill="white"/>
<path d="M151.666 25.3398H151.665L147.041 25.3247C146.936 25.3243 146.847 25.2498 146.833 25.1509L146.18 20.3358H144.88C144.764 20.3358 144.669 20.2465 144.669 20.1366C144.669 20.0266 144.764 19.9374 144.88 19.9374H146.365C146.471 19.9374 146.56 20.0119 146.574 20.1115L147.228 24.927L151.667 24.9414C151.783 24.9418 151.877 25.0314 151.876 25.1414C151.876 25.2513 151.782 25.3398 151.666 25.3398Z" fill="white"/>
<path d="M147.795 26.8955C147.361 26.8955 147.009 26.5621 147.009 26.1521C147.009 25.7422 147.361 25.4087 147.795 25.4087C148.228 25.4087 148.581 25.7422 148.581 26.1521C148.581 26.5621 148.228 26.8955 147.795 26.8955ZM147.795 25.8071C147.593 25.8071 147.43 25.9621 147.43 26.1521C147.43 26.3426 147.594 26.4971 147.795 26.4971C147.996 26.4971 148.16 26.3426 148.16 26.1521C148.16 25.9621 147.996 25.8071 147.795 25.8071Z" fill="white"/>
<path d="M150.989 26.8955C150.556 26.8955 150.203 26.5621 150.203 26.1521C150.203 25.7422 150.556 25.4087 150.989 25.4087C151.423 25.4087 151.775 25.7422 151.775 26.1521C151.775 26.5621 151.423 26.8955 150.989 26.8955ZM150.989 25.8071C150.788 25.8071 150.624 25.9621 150.624 26.1521C150.624 26.3426 150.788 26.4971 150.989 26.4971C151.191 26.4971 151.354 26.3426 151.354 26.1521C151.354 25.9621 151.191 25.8071 150.989 25.8071Z" fill="white"/>
<path d="M148.471 24.2568C148.36 24.2568 148.268 24.1755 148.261 24.0699L148.063 21.0735C148.056 20.9636 148.144 20.8691 148.261 20.8624C148.387 20.86 148.477 20.9393 148.484 21.0488L148.682 24.0452C148.689 24.1552 148.601 24.2496 148.484 24.2564C148.48 24.2564 148.476 24.2568 148.471 24.2568Z" fill="white"/>
<path d="M150.245 24.2568C150.241 24.2568 150.237 24.2564 150.233 24.2564C150.117 24.2504 150.028 24.1564 150.035 24.0464L150.212 21.05C150.218 20.9404 150.31 20.8567 150.434 20.8623C150.55 20.8683 150.639 20.9623 150.632 21.0723L150.455 24.0687C150.449 24.1747 150.356 24.2568 150.245 24.2568Z" fill="white"/>
<path d="M146.689 22.758C146.574 22.758 146.48 22.67 146.478 22.5608C146.477 22.4508 146.571 22.3608 146.687 22.3596L152.11 22.3098C152.227 22.3222 152.321 22.3971 152.322 22.507C152.324 22.617 152.23 22.707 152.114 22.7082L146.691 22.758C146.69 22.758 146.69 22.758 146.689 22.758Z" fill="white"/>
<path d="M198.401 87.9313H142.562C140.845 87.9313 139.454 86.6154 139.454 84.9919V18.3728C139.454 16.7493 140.845 15.4333 142.562 15.4333H198.401C200.118 15.4333 201.51 16.7493 201.51 18.3728V84.9919C201.51 86.615 200.118 87.9313 198.401 87.9313Z" fill="white"/>
<path d="M201.51 23.9306H139.454V17.8887C139.454 16.5329 140.616 15.4337 142.05 15.4337H198.914C200.348 15.4337 201.51 16.5329 201.51 17.8887V23.9306H201.51Z" fill="#DCE6F2"/>
<path d="M198.965 87.931C198.965 87.931 199.024 87.9246 199.141 87.9171C199.258 87.9095 199.434 87.8884 199.657 87.8274C200.09 87.7099 200.771 87.3927 201.202 86.6282C201.307 86.4393 201.385 86.2242 201.439 85.9919C201.487 85.7573 201.488 85.5071 201.486 85.2409C201.484 84.7099 201.482 84.1298 201.481 83.5011C201.478 82.2433 201.474 80.7923 201.471 79.1596C201.462 72.6234 201.45 63.1707 201.436 51.491C201.431 45.6499 201.427 39.2523 201.422 32.3841C201.421 28.9498 201.419 25.3984 201.417 21.7398C201.416 20.8251 201.416 19.904 201.415 18.9761C201.408 18.5167 201.43 18.0362 201.399 17.59C201.347 17.1426 201.154 16.7127 200.849 16.3633C200.541 16.0167 200.127 15.7545 199.665 15.6247C199.207 15.488 198.704 15.5362 198.196 15.5278C197.189 15.5282 196.174 15.5286 195.153 15.529C178.819 15.5314 160.861 15.5342 142.012 15.5374C141.446 15.5394 140.888 15.7263 140.452 16.0653C140.019 16.4055 139.718 16.888 139.611 17.4079C139.552 17.6661 139.57 17.9358 139.566 18.2155V19.0442C139.566 19.5964 139.566 20.1474 139.566 20.6976C139.566 22.8984 139.566 25.0849 139.566 27.2554C139.565 31.5961 139.565 35.8734 139.564 40.0762C139.562 48.4818 139.56 56.5894 139.558 64.313C139.556 68.1747 139.555 71.9405 139.553 75.5995C139.552 77.429 139.552 79.2317 139.551 81.0063C139.55 81.8935 139.55 82.774 139.549 83.6469C139.549 84.0836 139.549 84.5182 139.549 84.9513C139.551 85.388 139.523 85.8131 139.657 86.2087C139.914 87.0039 140.645 87.6294 141.491 87.7947C141.908 87.8776 142.359 87.8366 142.801 87.8473C143.243 87.8477 143.683 87.8477 144.122 87.8481C145.874 87.8493 147.594 87.8501 149.28 87.8513C152.651 87.8537 155.887 87.8557 158.976 87.8581C171.328 87.872 181.324 87.8832 188.236 87.8912C191.688 87.8995 194.369 87.9063 196.191 87.9107C197.098 87.9151 197.79 87.9186 198.26 87.921C198.726 87.9238 198.965 87.931 198.965 87.931C198.965 87.931 198.726 87.9382 198.26 87.9418C197.79 87.9441 197.098 87.9473 196.191 87.9521C194.369 87.9565 191.688 87.9633 188.236 87.9716C181.324 87.9796 171.328 87.9908 158.976 88.0047C155.887 88.0067 152.651 88.0091 149.28 88.0115C147.594 88.0127 145.874 88.0135 144.122 88.0147C143.683 88.0151 143.243 88.0151 142.801 88.0155C142.361 88.0043 141.915 88.0493 141.454 87.9605C140.545 87.784 139.761 87.1143 139.484 86.2597C139.338 85.829 139.369 85.3764 139.365 84.9513C139.365 84.5182 139.365 84.0836 139.365 83.6469C139.364 82.7736 139.364 81.8935 139.363 81.0063C139.362 79.2317 139.362 77.429 139.361 75.5995C139.359 71.9405 139.358 68.1747 139.356 64.313C139.354 56.5894 139.352 48.4814 139.35 40.0762C139.349 35.8734 139.349 31.5961 139.348 27.2554C139.348 25.0849 139.348 22.8988 139.348 20.6976C139.348 20.1474 139.348 19.5964 139.348 19.0442V18.2155C139.352 17.9442 139.332 17.6553 139.397 17.3689C139.513 16.8012 139.841 16.2753 140.314 15.9051C140.787 15.5358 141.399 15.3314 142.013 15.3298C160.862 15.3326 178.819 15.3354 195.154 15.3378C196.175 15.3382 197.189 15.3386 198.197 15.339L198.952 15.3394C199.211 15.345 199.473 15.3733 199.722 15.445C200.222 15.586 200.669 15.8697 201.001 16.2446C201.331 16.6219 201.539 17.0872 201.595 17.5705C201.628 18.0565 201.604 18.5083 201.611 18.9765C201.611 19.9044 201.611 20.8255 201.61 21.7402C201.608 25.3988 201.606 28.9502 201.605 32.3845C201.6 39.2527 201.595 45.6503 201.591 51.4914C201.576 63.1711 201.565 72.6237 201.556 79.16C201.552 80.7931 201.549 82.2437 201.546 83.5015C201.544 84.1302 201.542 84.7103 201.541 85.2413C201.542 85.5055 201.539 85.7633 201.488 86.0015C201.431 86.2382 201.35 86.4565 201.242 86.6481C200.797 87.423 200.102 87.7366 199.664 87.8485C199.438 87.9067 199.261 87.9242 199.143 87.9286C199.024 87.9318 198.965 87.931 198.965 87.931Z" fill="#263238"/>
<path d="M145.768 19.6816C145.768 20.433 145.124 21.0417 144.33 21.0417C143.535 21.0417 142.891 20.4326 142.891 19.6816C142.891 18.9302 143.535 18.3214 144.33 18.3214C145.124 18.321 145.768 18.9302 145.768 19.6816Z" fill="white"/>
<path d="M149.923 19.6816C149.923 20.433 149.279 21.0417 148.485 21.0417C147.69 21.0417 147.046 20.4326 147.046 19.6816C147.046 18.9302 147.691 18.3214 148.485 18.3214C149.279 18.321 149.923 18.9302 149.923 19.6816Z" fill="white"/>
<path d="M154.066 19.6816C154.066 20.433 153.421 21.0417 152.627 21.0417C151.833 21.0417 151.189 20.4326 151.189 19.6816C151.189 18.9302 151.833 18.3214 152.627 18.3214C153.421 18.321 154.066 18.9302 154.066 19.6816Z" fill="white"/>
<path d="M178.516 45.0598H164.667C163.773 45.0598 163.048 44.3746 163.048 43.5291V30.4342C163.048 29.5888 163.773 28.9036 164.667 28.9036H178.516C179.41 28.9036 180.135 29.5888 180.135 30.4342V43.5291C180.135 44.3742 179.41 45.0598 178.516 45.0598Z" fill="#8193B1"/>
<path d="M168.216 49.7781H149.142V52.1873H168.216V49.7781Z" fill="#DCE6F2"/>
<path d="M191.816 49.7781H184.391V52.1873H191.816V49.7781Z" fill="#DCE6F2"/>
<path d="M173.796 54.894H149.142V57.3032H173.796V54.894Z" fill="#DCE6F2"/>
<path d="M191.816 54.894H184.391V57.3032H191.816V54.894Z" fill="#DCE6F2"/>
<path d="M160.685 60.0089H149.142V62.4181H160.685V60.0089Z" fill="#DCE6F2"/>
<path d="M191.816 60.0089H184.391V62.4181H191.816V60.0089Z" fill="#DCE6F2"/>
<path d="M191.816 64.8771H184.391V67.2863H191.816V64.8771Z" fill="#DCE6F2"/>
<path d="M176.65 81.3684H162.858C160.648 81.3684 158.856 79.6743 158.856 77.5847V77.1771C158.856 75.0875 160.648 73.3934 162.858 73.3934H176.65C178.86 73.3934 180.651 75.0875 180.651 77.1771V77.5847C180.651 79.6743 178.86 81.3684 176.65 81.3684Z" fill="#69A1FA"/>
<path d="M101.785 102.623L98.862 102.461C97.63 103.545 96.0761 104.332 94.3047 104.667C89.2102 105.631 84.2544 102.507 83.2347 97.6901C82.215 92.8729 85.5184 88.1868 90.6129 87.2227C95.7074 86.2585 100.664 89.382 101.683 94.1992C102.109 96.2104 101.779 98.198 100.881 99.9024L100.885 99.8988L101.785 102.623Z" fill="white"/>
<path d="M101.781 102.623C101.781 102.623 101.764 102.566 101.728 102.45C101.689 102.331 101.634 102.158 101.562 101.931C101.411 101.466 101.19 100.782 100.903 99.8919L100.891 99.8536L100.862 99.8835L100.859 99.8871L100.898 99.9126C101.439 98.891 101.954 97.4253 101.894 95.64C101.88 95.1962 101.827 94.7352 101.732 94.2651C101.613 93.8006 101.509 93.3129 101.304 92.8384C100.932 91.8807 100.359 90.9193 99.5636 90.0603C98.7706 89.2014 97.7569 88.4464 96.5716 87.9033C95.3889 87.3595 94.0351 87.0304 92.624 87.0029C91.2134 86.9667 89.7547 87.2667 88.4101 87.8647C87.0677 88.4647 85.8311 89.3763 84.9108 90.5571C84.7962 90.7061 84.6778 90.852 84.5666 91.0022C84.4667 91.1595 84.3673 91.3165 84.2679 91.4727L84.1191 91.7073L83.994 91.9532C83.9114 92.1173 83.8292 92.2807 83.7467 92.444C83.6708 92.6097 83.6135 92.7823 83.5461 92.9504C83.485 93.1205 83.4066 93.285 83.3675 93.4607C83.2769 93.8077 83.1644 94.1488 83.1235 94.5018C82.8825 95.8986 83.0017 97.3106 83.4159 98.5922C83.8402 99.8731 84.5578 101.016 85.4476 101.94C86.3371 102.866 87.3947 103.575 88.494 104.053C89.5941 104.534 90.7343 104.784 91.8142 104.852C92.3552 104.899 92.8806 104.862 93.3862 104.833C93.8872 104.76 94.3747 104.709 94.8285 104.587C96.6572 104.135 97.9983 103.256 98.8735 102.478L98.8558 102.484C99.808 102.531 100.541 102.566 101.04 102.591C101.282 102.602 101.467 102.611 101.595 102.617C101.72 102.622 101.781 102.623 101.781 102.623C101.781 102.623 101.714 102.617 101.587 102.609C101.457 102.6 101.27 102.588 101.025 102.572C100.53 102.542 99.8038 102.497 98.8595 102.438L98.8494 102.438L98.8418 102.445C97.9646 103.212 96.6272 104.078 94.8108 104.519C94.3604 104.638 93.8763 104.686 93.3795 104.758C92.8777 104.784 92.3573 104.819 91.8209 104.771C90.7511 104.701 89.6228 104.45 88.5348 103.971C87.4478 103.495 86.4028 102.792 85.5248 101.874C84.6462 100.959 83.9388 99.8281 83.5204 98.5616C83.1121 97.2938 82.9962 95.8982 83.2347 94.5185C83.2752 94.1699 83.3873 93.8332 83.4766 93.4902C83.5149 93.3165 83.5929 93.154 83.6531 92.9858C83.7197 92.8197 83.7766 92.6492 83.8516 92.4854C83.9329 92.3241 84.0142 92.1627 84.096 92.0006L84.2198 91.7579L84.3669 91.5261C84.4651 91.3715 84.5632 91.2165 84.6618 91.0611C84.7718 90.9129 84.8885 90.7687 85.0019 90.6217C85.9111 89.4547 87.1322 88.5543 88.4586 87.9607C89.7862 87.3691 91.2285 87.0715 92.6228 87.1057C94.0174 87.1316 95.3565 87.4551 96.5274 87.991C97.7004 88.5261 98.7053 89.2715 99.4924 90.1197C100.282 90.9683 100.853 91.9185 101.224 92.8667C101.428 93.3364 101.533 93.8197 101.653 94.2799C101.75 94.7456 101.804 95.2026 101.819 95.6428C101.887 97.4134 101.385 98.8719 100.855 99.8922L100.778 100.042L100.895 99.9181L100.898 99.9146L100.858 99.9062C101.155 100.786 101.384 101.462 101.539 101.922C101.617 102.15 101.677 102.323 101.718 102.444C101.758 102.561 101.781 102.623 101.781 102.623Z" fill="#263238"/>
<path d="M90.8065 99.3992C90.7122 99.5026 90.5863 99.5456 90.5191 99.4962L88.1273 97.736C88.0572 97.6849 88.0773 97.552 88.1724 97.44C88.2696 97.3181 88.4012 97.2793 88.4712 97.3305L90.8631 99.0907C90.9331 99.1418 90.9131 99.2747 90.8184 99.3862C90.8137 99.3913 90.8099 99.3955 90.8065 99.3992Z" fill="#69A1FA"/>
<path d="M90.5612 99.5283C90.5561 99.5248 90.5511 99.5213 90.5467 99.5169C90.4081 99.4043 90.4117 99.1598 90.5554 98.9709L95.4575 92.5289C95.6006 92.3408 95.8321 92.2613 95.969 92.3924C96.1083 92.5055 96.104 92.7496 95.9603 92.9385L91.0588 99.3796C90.9203 99.5623 90.7017 99.6261 90.5612 99.5283Z" fill="#69A1FA"/>
<path d="M224.763 58.3572C224.763 58.3572 227.156 61.2791 227.414 63.1297C227.628 64.6596 228.797 72.9505 229.392 76.8549C229.635 78.4489 229.227 80.0987 228.142 81.3402C227.11 82.5202 225.552 83.3513 223.443 81.9541C221.994 80.9939 218.286 77.0724 218.286 77.0724L224.384 59.0106" fill="#69A1FA"/>
<path d="M218.147 33.3429C216.967 32.9978 215.641 33.1273 214.561 33.6935C213.959 32.9624 212.925 32.5731 211.957 32.713C210.989 32.8528 210.125 33.517 209.782 34.3843C208.753 33.9911 207.451 34.409 206.887 35.3134C206.324 36.2178 206.568 37.4975 207.431 38.1584C206.589 38.4887 205.925 39.2003 205.684 40.0313C205.442 40.8624 205.628 41.7947 206.172 42.4855C205.27 42.8987 205.116 44.0529 205.249 44.9919C205.382 45.931 205.668 46.937 205.223 47.7856C204.879 48.4409 204.17 48.8465 203.685 49.4167C203.2 49.9868 203.03 50.9684 203.687 51.3549C202.568 51.4975 201.704 52.6246 201.908 53.6748C202.113 54.7254 203.345 55.4868 204.445 55.243C204.078 55.982 204.236 56.8928 204.717 57.5701C205.199 58.2478 205.963 58.7107 206.775 58.9884C209.111 59.7884 211.944 59.0326 213.494 57.1968L220.899 35.5457C220.344 34.5026 219.327 33.6879 218.147 33.3429Z" fill="#263238"/>
<path d="M221.674 39.3411L221.773 38.1729L214.429 36.4144C212.153 36.055 209.538 38.0849 209.255 40.2502C208.94 42.6562 208.657 45.6052 208.845 47.4244C209.223 51.0822 212.13 51.7104 212.13 51.7104L211.918 55.3081L220.385 55.8909L221.674 39.3411Z" fill="#FFBF9D"/>
<path d="M210.159 43.7004C210.134 43.9454 210.333 44.1669 210.603 44.196C210.872 44.2251 211.111 44.0506 211.136 43.8059C211.161 43.5609 210.962 43.339 210.693 43.3099C210.423 43.2808 210.184 43.4557 210.159 43.7004Z" fill="#263238"/>
<path d="M209.977 41.835C210.033 41.8991 210.422 41.6597 210.951 41.6912C211.479 41.7155 211.852 41.9947 211.913 41.9366C211.943 41.9111 211.887 41.7983 211.726 41.6724C211.567 41.5473 211.29 41.4182 210.961 41.4011C210.631 41.384 210.347 41.4828 210.18 41.5912C210.01 41.6995 209.948 41.8059 209.977 41.835Z" fill="#263238"/>
<path d="M214.788 43.9717C214.763 44.2167 214.963 44.4383 215.232 44.4673C215.502 44.4964 215.74 44.3219 215.765 44.0773C215.79 43.8323 215.591 43.6104 215.322 43.5813C215.052 43.5522 214.813 43.7271 214.788 43.9717Z" fill="#263238"/>
<path d="M215.167 42.224C215.224 42.2878 215.614 42.0487 216.142 42.0802C216.67 42.1045 217.042 42.3838 217.103 42.3256C217.133 42.3001 217.079 42.1874 216.916 42.0615C216.758 41.936 216.481 41.8073 216.152 41.7901C215.822 41.773 215.538 41.8722 215.371 41.9802C215.201 42.0885 215.139 42.1953 215.167 42.224Z" fill="#263238"/>
<path d="M212.998 45.8238C213.002 45.7955 212.677 45.7234 212.148 45.6286C212.014 45.6079 211.888 45.5752 211.871 45.4868C211.845 45.3928 211.91 45.2581 211.985 45.1135C212.132 44.8115 212.285 44.4955 212.446 44.1641C213.089 42.8115 213.563 41.6959 213.505 41.672C213.447 41.6481 212.879 42.725 212.237 44.0776C212.081 44.4115 211.933 44.7294 211.792 45.0338C211.732 45.176 211.633 45.3354 211.69 45.531C211.72 45.6282 211.815 45.7035 211.9 45.7302C211.985 45.7601 212.061 45.7657 212.127 45.7732C212.662 45.831 212.994 45.8521 212.998 45.8238Z" fill="#263238"/>
<path d="M212.121 51.7203C212.121 51.7203 214.82 52.0243 217.466 50.7179C217.466 50.7179 216.011 53.1813 212.066 52.6239L212.121 51.7203Z" fill="#6F4439"/>
<path d="M215.294 40.4982C215.346 40.6344 215.875 40.5699 216.497 40.6404C217.12 40.6994 217.621 40.8715 217.703 40.7496C217.74 40.691 217.653 40.5631 217.45 40.4312C217.249 40.2994 216.929 40.1743 216.556 40.1352C216.183 40.0966 215.841 40.1528 215.614 40.2396C215.387 40.3265 215.272 40.4336 215.294 40.4982Z" fill="#263238"/>
<path d="M210.074 40.5949C210.159 40.7145 210.531 40.6204 210.97 40.6436C211.409 40.6519 211.773 40.7726 211.867 40.6595C211.908 40.6041 211.858 40.4866 211.704 40.3687C211.552 40.2511 211.292 40.1463 210.99 40.1352C210.689 40.1244 210.421 40.2105 210.26 40.3169C210.097 40.4232 210.037 40.5364 210.074 40.5949Z" fill="#263238"/>
<path d="M209.258 37.6444C210.122 36.5742 211.376 35.7914 212.756 35.4603L218.96 36.1981L219.488 36.1894C219.605 35.8196 220.264 35.626 220.264 35.626C220.847 35.2033 222.867 35.1802 224.274 36.5714C224.782 37.0734 225.142 38.3356 225.154 39.03C225.158 39.293 224.861 39.6531 225.093 39.7978C225.174 39.8484 225.845 39.8352 225.94 39.8547C227.518 40.1814 228.504 41.5041 228.218 43.4822C228.204 43.5822 228.167 43.6814 228.184 43.7806C228.212 43.9372 228.346 44.054 228.461 44.1695C229.212 44.9213 229.394 46.1309 228.895 47.0512C228.742 47.3352 228.527 47.601 228.473 47.9161C228.378 48.4803 228.813 48.9835 229.151 49.4572C230.164 50.8783 230.381 52.9428 229.192 54.2365C228.904 54.5508 228.531 54.8313 228.423 55.2353C228.37 55.4325 228.387 55.6397 228.389 55.8433C228.397 56.8755 227.821 58.0305 226.754 58.2484C226.161 58.3692 225.442 58.211 225.02 58.623C224.837 58.8022 224.759 59.0528 224.642 59.2767C224.196 60.1305 223.053 60.5955 222.091 60.315C221.128 60.0345 220.809 56.3413 220.948 55.3978C219.783 54.997 218.92 54.9261 218.974 53.754C218.974 53.754 219.154 51.7369 218.809 50.7544C218.464 49.7719 219.156 47.6807 219.551 46.6655C219.946 45.65 219.475 43.2858 219.37 42.346C219.351 42.1818 219.385 41.8974 219.452 41.542L219.452 41.5428C219.452 41.542 219.453 41.5408 219.453 41.54C219.496 41.3117 219.552 41.0543 219.619 40.7782C219.643 40.5213 219.867 39.1491 219.863 38.9093C219.848 38.0209 218.681 38.4958 217.79 38.779C217.575 38.8476 217.349 38.887 217.122 38.8926C216.389 38.9117 215.655 38.5826 215.206 38.034C214.365 38.8822 213.006 39.2336 211.825 38.9081C211.346 39.5404 210.859 40.1806 210.222 40.6723C209.584 41.1639 208.767 41.497 207.949 41.4109C207.925 40.0643 208.394 38.7141 209.258 37.6444Z" fill="#263238"/>
<path d="M213.391 47.0363C213.565 46.7945 213.886 46.6507 214.212 46.6686C214.438 46.681 214.671 46.7726 214.817 46.9395C214.963 47.1065 215.004 47.3511 214.889 47.522C214.759 47.7148 214.469 47.7714 214.218 47.7168C213.967 47.6618 213.745 47.518 213.535 47.3742C213.477 47.3344 213.418 47.2929 213.379 47.2363C213.341 47.1798 213.33 47.1041 213.37 47.0539" fill="#6F4439"/>
<path d="M214.648 46.1326C214.563 46.1318 214.591 46.6641 214.129 47.0649C213.668 47.4669 213.065 47.4354 213.064 47.5099C213.058 47.5438 213.203 47.6071 213.457 47.6015C213.706 47.5979 214.065 47.5051 214.347 47.2601C214.629 47.0143 214.739 46.6991 214.747 46.48C214.756 46.2565 214.686 46.1274 214.648 46.1326Z" fill="#263238"/>
<path d="M202.947 141.572L203.645 148.447C203.645 148.447 195.72 151.247 195.633 152.632L210.617 152.671L210.609 151.635L209.98 148.098L209.054 141.227L202.947 141.572Z" fill="#DCE6F2"/>
<path d="M208.085 147.383C208.382 147.459 208.588 147.774 208.52 148.058C208.451 148.341 208.115 148.542 207.816 148.471C207.518 148.4 207.258 148.029 207.36 147.754C207.461 147.48 207.87 147.264 208.142 147.401" fill="#DCE6F2"/>
<path d="M210.611 152.675L210.603 151.639L196.231 151.899C196.231 151.899 195.549 152.182 195.627 152.637L210.611 152.675Z" fill="#263238"/>
<path d="M203.301 148.378C203.304 148.449 203.678 148.48 204.047 148.707C204.423 148.925 204.614 149.231 204.682 149.203C204.751 149.189 204.638 148.766 204.186 148.499C203.738 148.228 203.285 148.313 203.301 148.378Z" fill="#263238"/>
<path d="M201.754 149.005C201.737 149.074 202.062 149.194 202.317 149.492C202.582 149.784 202.646 150.108 202.721 150.104C202.791 150.116 202.842 149.701 202.518 149.335C202.196 148.966 201.756 148.938 201.754 149.005Z" fill="#263238"/>
<path d="M200.828 150.831C200.895 150.845 200.999 150.491 200.806 150.104C200.615 149.715 200.262 149.564 200.23 149.623C200.188 149.681 200.416 149.888 200.569 150.209C200.731 150.525 200.753 150.824 200.828 150.831Z" fill="#263238"/>
<path d="M202.829 146.726C202.861 146.79 203.204 146.692 203.627 146.718C204.051 146.736 204.381 146.869 204.419 146.809C204.463 146.757 204.14 146.496 203.641 146.472C203.143 146.444 202.792 146.67 202.829 146.726Z" fill="#263238"/>
<path d="M221.249 141.769L221.891 148.528C221.891 148.528 214.087 151.233 213.994 152.594L228.714 152.717L228.712 151.699L228.117 148.22L227.251 141.466L221.249 141.769Z" fill="#DCE6F2"/>
<path d="M226.429 147.506C226.72 147.583 226.921 147.893 226.852 148.172C226.783 148.45 226.451 148.645 226.158 148.574C225.865 148.502 225.613 148.136 225.714 147.867C225.815 147.597 226.219 147.388 226.485 147.524" fill="#DCE6F2"/>
<path d="M228.707 152.712L228.705 151.694L214.585 151.868C214.585 151.868 213.913 152.142 213.987 152.589L228.707 152.712Z" fill="#263238"/>
<path d="M221.737 148.454C221.739 148.524 222.106 148.556 222.467 148.781C222.835 148.997 223.02 149.299 223.088 149.271C223.156 149.258 223.047 148.842 222.605 148.577C222.165 148.309 221.72 148.39 221.737 148.454Z" fill="#263238"/>
<path d="M220.059 149.067C220.041 149.135 220.359 149.254 220.608 149.549C220.866 149.837 220.928 150.155 221.002 150.153C221.071 150.164 221.123 149.757 220.806 149.395C220.493 149.031 220.06 149.001 220.059 149.067Z" fill="#263238"/>
<path d="M219.214 150.851C219.281 150.866 219.384 150.518 219.197 150.137C219.012 149.754 218.666 149.603 218.634 149.661C218.593 149.718 218.815 149.923 218.964 150.238C219.12 150.55 219.14 150.844 219.214 150.851Z" fill="#263238"/>
<path d="M221.183 146.825C221.214 146.889 221.552 146.794 221.967 146.822C222.384 146.842 222.707 146.976 222.745 146.916C222.788 146.866 222.473 146.607 221.983 146.58C221.493 146.55 221.148 146.771 221.183 146.825Z" fill="#263238"/>
<path d="M202.567 81.7783C202.567 81.7783 199.016 91.5047 198.893 98.7402C198.771 105.976 198.648 117.481 200.24 130.173C201.832 142.864 202.567 147.965 202.567 147.965H210.65C210.65 147.965 211.508 140.018 211.385 132.901C211.263 125.784 210.674 123.53 211.397 115.702C212.12 107.873 213.264 103.171 214.468 100.799C214.468 100.799 217.804 97.0489 218.049 91.9047C218.294 86.7604 216.369 82.3393 216.369 82.3393L202.567 81.7783Z" fill="#263238"/>
<path d="M209.745 95.4229C209.88 95.8137 212.278 111.76 214.028 118.793C215.778 125.827 217.725 127.688 218.066 133.409C218.459 139.99 220.37 147.964 220.37 147.964H228.977C228.977 147.964 227.766 135.8 226.556 126.292C225.345 116.784 223.597 105.062 223.866 101.545C224.135 98.0281 224.807 93.685 223.866 88.7579C222.925 83.8308 220.889 82.532 220.889 82.532L213.587 82.2196L209.745 95.4229Z" fill="#263238"/>
<path d="M217.848 86.3028C217.853 86.3 217.898 86.3849 217.981 86.5502C218.074 86.7116 218.162 86.9677 218.273 87.2988C218.472 87.9677 218.604 88.9745 218.557 90.2136C218.515 91.4522 218.297 92.9216 217.849 94.5048C217.622 95.2949 217.324 96.1136 216.91 96.9188C216.498 97.7264 215.925 98.4857 215.355 99.2523C214.185 100.776 213.607 102.512 213.17 104.079C212.744 105.656 212.516 107.111 212.353 108.334C212.194 109.558 212.099 110.553 212.027 111.24C211.992 111.571 211.964 111.834 211.943 112.03C211.922 112.211 211.908 112.306 211.901 112.305C211.895 112.305 211.897 112.209 211.907 112.028C211.919 111.831 211.936 111.566 211.957 111.234C212.007 110.545 212.083 109.548 212.226 108.32C212.373 107.093 212.589 105.63 213.008 104.04C213.219 103.246 213.482 102.421 213.822 101.589C213.996 101.173 214.193 100.757 214.423 100.348C214.656 99.9411 214.922 99.5447 215.206 99.1554C215.781 98.3829 216.343 97.6387 216.751 96.8447C217.161 96.0526 217.459 95.2455 217.689 94.4626C218.142 92.8945 218.372 91.4359 218.429 90.2084C218.492 88.9797 218.381 87.9817 218.204 87.3152C218.105 86.9853 218.029 86.7279 217.947 86.5634C217.877 86.3956 217.842 86.3056 217.848 86.3028Z" fill="#DCE6F2"/>
<path d="M183.624 61.9171C185.108 62.7565 187.789 63.5418 187.789 63.5418L190.794 61.2709C190.794 61.2709 188.644 57.5561 187.953 56.5035C187.765 56.219 187.481 55.6816 187.392 55.38C187.16 54.5892 186.546 54.9258 186.433 55.5485C186.401 55.7246 186.532 56.3214 186.62 56.5509C186.889 57.2517 186.83 57.7553 186.83 57.7553C186.83 57.7553 186.611 57.5792 186.071 57.2354C185.483 56.8609 183.493 55.2927 182.653 54.6366C181.398 53.6557 180.766 54.2637 180.929 54.6429C181.133 55.1143 184.248 57.1768 184.137 57.5302C184.137 57.5302 183.537 57.8525 183.452 58.2195C183.367 58.5868 183.458 58.9501 183.458 58.9501C183.458 58.9501 182.896 59.0019 182.745 59.3434C182.595 59.6848 182.788 60.1653 182.788 60.1653C182.788 60.1653 182.267 60.2111 182.207 60.4788C182.147 60.747 182.507 61.286 183.624 61.9171Z" fill="#FFBF9D"/>
<path d="M190.307 60.2499C190.352 60.3782 196.75 66.5723 196.75 66.5723C196.75 66.5723 202.09 60.885 203.716 58.7929C205.341 56.7009 207.806 54.1348 209.929 53.6547C212.051 53.1742 215 54.4666 215 54.4666L211.241 61.7754L206.495 67.9448C206.495 67.9448 201.367 74.0353 198.929 74.9743C196.49 75.9138 194.102 74.5647 193.063 73.54C192.024 72.5153 185.864 63.6603 185.864 63.6603L190.307 60.2499Z" fill="#69A1FA"/>
<path d="M225.942 56.0676L211.218 53.6553C211.218 53.6553 207.129 60.4609 205.6 67.6123C204.071 74.7637 202.327 81.9084 202.327 81.9084L215.928 83.4929C217.344 83.6578 218.778 83.6391 220.188 83.4375L221.605 83.2347L220.44 78.6936C222.384 74.104 223.803 70.1828 224.645 66.9446C226.473 59.9191 225.942 56.0676 225.942 56.0676Z" fill="#69A1FA"/>
<path d="M210.88 62.8678C210.889 62.8757 210.803 62.9837 210.641 63.1726C210.453 63.3889 210.223 63.6554 209.95 63.9702C209.367 64.6431 208.576 65.5845 207.701 66.624C206.825 67.6638 206.017 68.5953 205.408 69.2499C205.104 69.5778 204.853 69.8387 204.673 70.0136C204.494 70.1889 204.39 70.2822 204.381 70.2746C204.371 70.2666 204.457 70.1587 204.62 69.9698C204.808 69.7535 205.038 69.4869 205.311 69.1722C205.894 68.4993 206.685 67.5578 207.56 66.518C208.435 65.4786 209.243 64.5475 209.853 63.8925C210.157 63.5646 210.408 63.3036 210.588 63.1287C210.767 62.953 210.871 62.8598 210.88 62.8678Z" fill="#263238"/>
<path d="M220.23 78.9006C220.235 78.9206 219.887 79.0325 219.306 79.1516C218.726 79.2716 217.911 79.3879 217.003 79.4214C216.096 79.4536 215.273 79.3971 214.686 79.3198C214.097 79.2429 213.741 79.1568 213.744 79.1365C213.749 79.111 214.112 79.1552 214.699 79.2006C215.286 79.2469 216.099 79.2839 216.997 79.252C217.894 79.2186 218.701 79.1226 219.283 79.0337C219.864 78.9461 220.223 78.8755 220.23 78.9006Z" fill="#263238"/>
<path d="M196.605 70.2624C196.555 70.2616 196.527 69.4719 196.542 68.4982C196.557 67.5245 196.608 66.7357 196.658 66.7365C196.707 66.7372 196.735 67.5269 196.721 68.5006C196.706 69.4743 196.654 70.2632 196.605 70.2624Z" fill="#263238"/>
<g opacity="0.3">
<path d="M225.465 57.6474L216.265 56.8713C215.93 57.6032 216.424 58.5634 217.239 58.7674C216.745 59.5885 216.73 60.6482 217.199 61.4817C217.668 62.3152 218.607 62.8953 219.603 62.9666C219.849 62.9841 220.103 62.9738 220.336 63.053C220.846 63.2267 221.09 63.7558 221.396 64.1789C221.8 64.7359 222.411 65.175 223.111 65.304C223.812 65.4327 224.594 65.2184 225.047 64.6973C225.498 64.1785 225.573 63.4622 225.608 62.7917C225.698 61.0769 225.65 59.3554 225.465 57.6474Z" fill="black"/>
</g>
<g opacity="0.3">
<path d="M205.047 69.6576C206.548 69.3703 207.93 68.5628 208.874 67.4229C209.817 66.2831 210.314 64.8201 210.249 63.3739C208.323 65.3484 206.699 67.8783 205.047 69.6576Z" fill="black"/>
</g>
<path d="M227.583 52.2857L219.732 44.0243C220.02 46.1207 219.184 48.2068 218.18 50.096C217.609 51.1713 216.971 52.4498 217.571 53.5108C217.081 54.0279 216.584 54.5554 216.274 55.1857C215.965 55.816 215.867 56.5758 216.19 57.1997C216.513 57.8236 217.332 58.2323 218.018 57.9833C217.693 58.8256 217.961 59.8427 218.666 60.4423C219.371 61.0419 220.469 61.1865 221.321 60.7925C221.535 61.6455 222.022 62.4622 222.789 62.9551C223.556 63.4479 224.62 63.563 225.418 63.1176C226.217 62.6726 226.622 61.6264 226.194 60.8491C227.921 60.4881 229 58.7276 229.051 57.0554C229.102 55.3833 228.361 53.7885 227.583 52.2857Z" fill="#263238"/>
<path d="M211.345 38.6632C211.347 38.6688 211.303 38.6855 211.216 38.7122C211.128 38.7333 210.991 38.7572 210.815 38.7385C210.474 38.7094 209.945 38.4987 209.627 37.9652C209.466 37.7042 209.4 37.3568 209.463 37.007C209.526 36.6564 209.714 36.3058 210.002 36.017C210.287 35.7265 210.684 35.5018 211.129 35.405C211.573 35.3038 212.055 35.315 212.521 35.4182C212.792 35.4795 213.052 35.5692 213.286 35.6751L213.165 35.7194C213.496 34.9548 214.141 34.3994 214.81 34.117C215.485 33.8249 216.177 33.8209 216.706 33.9301C217.242 34.0389 217.63 34.2496 217.871 34.4162C217.992 34.4998 218.079 34.5723 218.134 34.6257C218.189 34.6783 218.216 34.7078 218.212 34.7118C218.202 34.7225 218.082 34.617 217.835 34.4672C217.588 34.3198 217.202 34.1309 216.683 34.0409C216.169 33.95 215.512 33.9676 214.876 34.2532C214.245 34.5297 213.638 35.0628 213.331 35.7823L213.295 35.8648L213.21 35.8265C212.986 35.7261 212.739 35.6413 212.481 35.5831C212.039 35.4851 211.585 35.4743 211.171 35.5664C210.755 35.6548 210.392 35.8576 210.123 36.1245C209.853 36.3899 209.674 36.7118 209.61 37.0317C209.548 37.3528 209.599 37.6648 209.74 37.909C210.02 38.4086 210.506 38.6277 210.826 38.6736C211.157 38.7258 211.341 38.6405 211.345 38.6632Z" fill="#DCE6F2"/>
<path d="M227.99 43.8585C227.975 43.8521 228.055 43.7051 228.139 43.4207C228.221 43.1382 228.297 42.7051 228.209 42.1808C228.123 41.6625 227.854 41.045 227.289 40.58C226.738 40.1155 225.91 39.8019 225.042 39.888L224.91 39.9011L224.947 39.7804C225.02 39.5426 225.068 39.2832 225.082 39.0178C225.13 38.0999 224.777 37.2246 224.23 36.6246C223.686 36.0111 222.958 35.6943 222.342 35.5565C221.716 35.4174 221.185 35.4549 220.832 35.5123C220.477 35.5724 220.288 35.6421 220.282 35.6266C220.28 35.621 220.326 35.6007 220.415 35.566C220.504 35.5294 220.64 35.4887 220.818 35.4477C221.174 35.3692 221.718 35.3111 222.369 35.4397C223.009 35.5668 223.776 35.884 224.355 36.523C224.936 37.1473 225.311 38.0609 225.261 39.0258C225.246 39.3047 225.195 39.578 225.117 39.8286L225.023 39.721C225.95 39.6326 226.82 39.9716 227.396 40.4685C227.986 40.9677 228.255 41.6246 228.328 42.1645C228.403 42.7119 228.305 43.1553 228.202 43.4386C228.151 43.5816 228.1 43.688 228.059 43.7569C228.018 43.8262 227.995 43.8609 227.99 43.8585Z" fill="#DCE6F2"/>
<path d="M220.486 58.0092C220.482 58.014 220.445 57.9921 220.376 57.9455C220.306 57.9009 220.212 57.8244 220.097 57.7188C219.873 57.5056 219.578 57.1515 219.377 56.6379C219.178 56.1303 219.084 55.4499 219.307 54.7475C219.529 54.0522 220.071 53.3694 220.849 52.9594C221.157 52.7957 221.487 52.6829 221.813 52.6263L221.764 52.7646C221.241 52.214 221.071 51.4833 221.165 50.8765C221.253 50.257 221.618 49.7805 221.985 49.4933C222.355 49.1996 222.728 49.0721 222.983 49.0183C223.111 48.9909 223.213 48.9797 223.281 48.9781C223.35 48.9757 223.386 48.9769 223.386 48.9821C223.388 48.996 223.245 49.0072 223 49.0761C222.756 49.1458 222.405 49.2853 222.061 49.5765C221.721 49.863 221.392 50.3168 221.319 50.8961C221.241 51.4654 221.41 52.1474 221.895 52.6522L222.001 52.763L221.846 52.7905C221.539 52.8451 221.228 52.9522 220.937 53.1068C220.201 53.4945 219.682 54.1391 219.464 54.7937C219.246 55.4534 219.32 56.1044 219.497 56.5985C219.675 57.0977 219.944 57.4519 220.149 57.6742C220.357 57.8953 220.496 57.9965 220.486 58.0092Z" fill="#DCE6F2"/>
<path d="M220.374 39.8318L220.129 38.7844C219.297 40.2789 219.015 42.0406 219.341 43.7008C219.492 44.4725 219.764 45.3008 219.411 46.0112C219.169 46.4964 218.675 46.8283 218.391 47.2928C218.032 47.8805 218.297 49.4279 218.205 49.7331C217.995 50.4271 217.284 50.8705 217.116 51.7096C216.949 52.5482 217.162 53.5618 217.959 53.963C219.46 51.6231 220.995 49.1912 221.348 46.4753C221.639 44.2386 221.099 41.9785 220.374 39.8318Z" fill="#263238"/>
<path d="M224.927 45.4404C224.926 45.446 224.882 45.4492 224.799 45.4472C224.715 45.4448 224.592 45.436 224.434 45.4113C224.125 45.3591 223.653 45.2496 223.205 44.8886C222.987 44.7069 222.786 44.4595 222.668 44.1504C222.55 43.846 222.521 43.4655 222.686 43.1185C222.846 42.7794 223.176 42.4739 223.613 42.3886C223.829 42.3515 224.066 42.3655 224.274 42.4778C224.483 42.5846 224.636 42.8217 224.594 43.0671C224.574 43.1902 224.497 43.3018 224.393 43.3735C224.286 43.4432 224.163 43.4707 224.047 43.4767C223.815 43.4854 223.598 43.4245 223.408 43.332C223.034 43.1527 222.718 42.9061 222.469 42.6312C221.964 42.0814 221.747 41.4237 221.727 40.8822C221.7 40.3356 221.839 39.9037 221.963 39.628C222.027 39.4898 222.088 39.3874 222.133 39.3205C222.179 39.2543 222.205 39.2213 222.211 39.224C222.225 39.2316 222.134 39.3738 222.028 39.6519C221.926 39.9284 221.812 40.3515 221.853 40.875C221.889 41.3938 222.107 42.0121 222.593 42.5288C222.833 42.787 223.134 43.0173 223.487 43.1842C223.656 43.2659 223.85 43.3169 224.038 43.3089C224.226 43.3053 224.391 43.2041 224.418 43.04C224.445 42.8763 224.344 42.7045 224.185 42.6233C224.026 42.5352 223.826 42.5205 223.646 42.5508C223.278 42.6185 222.98 42.8838 222.836 43.1822C222.688 43.4826 222.705 43.8221 222.808 44.1034C222.909 44.3882 223.091 44.6241 223.29 44.799C223.698 45.1488 224.149 45.2763 224.448 45.346C224.753 45.4137 224.928 45.4261 224.927 45.4404Z" fill="#DCE6F2"/>
<path d="M221.333 82.9697C221.323 82.9721 221.285 82.8606 221.221 82.6502C221.153 82.4112 221.066 82.1068 220.959 81.7343C220.738 80.9096 220.436 79.7865 220.077 78.4502L220.07 78.4267L220.078 78.402C220.517 77.0641 221.079 75.4924 221.719 73.8271C222.666 71.3589 223.583 69.147 224.254 67.5494C224.586 66.7752 224.859 66.1382 225.063 65.6621C225.155 65.4597 225.231 65.2916 225.293 65.1529C225.348 65.0374 225.381 64.978 225.388 64.9804C225.395 64.9832 225.376 65.0473 225.335 65.1681C225.282 65.3103 225.219 65.4832 225.143 65.6912C224.955 66.1729 224.704 66.8183 224.399 67.6019C223.765 69.2131 222.871 71.4326 221.926 73.8976C221.287 75.5609 220.715 77.1263 220.259 78.4554L220.26 78.4076C220.589 79.751 220.864 80.8801 221.067 81.7092C221.153 82.0865 221.223 82.3948 221.278 82.6367C221.323 82.8518 221.343 82.9674 221.333 82.9697Z" fill="#263238"/>
<path d="M223.795 76.7983C223.741 76.8234 223.297 75.9856 222.805 74.9274C222.313 73.8684 221.96 72.9935 222.016 72.9728C222.073 72.9521 222.516 73.7895 223.006 74.8441C223.496 75.8979 223.849 76.7732 223.795 76.7983Z" fill="#263238"/>
<path d="M117.25 154.105L124.243 157.638C124.243 157.638 122.161 166.094 123.433 167L132.469 154.214L131.473 153.599L127.714 152.012L120.588 148.678L117.25 154.105Z" fill="#DCE6F2"/>
<path d="M125.897 153.139C126.148 152.931 126.573 152.944 126.803 153.172C127.034 153.401 127.023 153.81 126.776 154.022C126.529 154.234 126.018 154.233 125.817 153.982C125.615 153.73 125.655 153.251 125.948 153.101" fill="#DCE6F2"/>
<path d="M132.51 154.211L131.515 153.596L123.133 166.039C123.133 166.039 122.994 166.791 123.475 166.997L132.51 154.211Z" fill="#263238"/>
<path d="M124.046 157.807C124.116 157.847 124.37 157.545 124.808 157.366C125.242 157.176 125.649 157.197 125.664 157.121C125.692 157.054 125.22 156.896 124.693 157.122C124.164 157.343 123.975 157.782 124.046 157.807Z" fill="#263238"/>
<path d="M123.641 159.559C123.697 159.615 124.006 159.41 124.444 159.371C124.882 159.32 125.231 159.459 125.272 159.393C125.325 159.34 124.959 159.047 124.414 159.105C123.869 159.158 123.577 159.517 123.641 159.559Z" fill="#263238"/>
<path d="M124.818 161.431C124.873 161.382 124.597 161.081 124.111 161.014C123.625 160.943 123.267 161.154 123.304 161.216C123.335 161.287 123.67 161.217 124.069 161.278C124.468 161.331 124.767 161.491 124.818 161.431Z" fill="#263238"/>
<path d="M122.19 157.27C122.27 157.282 122.382 156.929 122.662 156.583C122.933 156.232 123.259 156.03 123.224 155.96C123.201 155.893 122.758 156.011 122.435 156.423C122.109 156.833 122.115 157.268 122.19 157.27Z" fill="#263238"/>
<path d="M106.455 146.718L97.7273 151.756L89.6092 153.858C88.777 154.033 88.327 154.406 88.3468 154.896C88.3633 155.31 88.7256 155.64 89.1562 155.718L101.288 157.904C101.396 157.923 101.508 157.903 101.6 157.845C102.842 157.084 109.517 153.243 109.517 153.243L106.455 146.718Z" fill="#DCE6F2"/>
<path d="M101.564 150.975C101.557 150.964 101.665 150.88 101.892 150.78C102.118 150.681 102.469 150.567 102.923 150.551C103.142 150.552 103.411 150.53 103.671 150.699C103.801 150.784 103.884 150.969 103.828 151.132C103.774 151.293 103.648 151.403 103.509 151.483C102.942 151.782 102.12 151.624 101.673 151.071C101.236 150.509 101.265 149.768 101.605 149.264C101.698 149.143 101.83 149.023 102.02 149.006C102.21 148.988 102.374 149.125 102.425 149.256C102.538 149.527 102.483 149.766 102.46 149.974C102.392 150.396 102.243 150.716 102.123 150.921C102.001 151.127 101.906 151.224 101.896 151.217C101.854 151.2 102.201 150.768 102.303 149.954C102.318 149.755 102.348 149.519 102.256 149.33C102.212 149.238 102.13 149.183 102.036 149.193C101.945 149.2 101.845 149.278 101.774 149.378C101.5 149.796 101.475 150.474 101.852 150.943C102.224 151.413 102.947 151.551 103.406 151.314C103.515 151.256 103.608 151.168 103.639 151.078C103.669 150.989 103.636 150.897 103.556 150.838C103.387 150.713 103.134 150.706 102.925 150.701C102.059 150.705 101.578 151.017 101.564 150.975Z" fill="#263238"/>
<path d="M88.3524 154.896L102.141 157.524L101.651 157.8C101.421 157.929 101.148 157.973 100.885 157.923L88.9794 155.684C88.6916 155.629 88.4662 155.418 88.4068 155.146L88.3524 154.896Z" fill="#263238"/>
<path d="M98.3087 153.341C98.2451 153.344 98.1903 152.967 97.9986 152.548C97.8128 152.126 97.5638 151.827 97.6101 151.785C97.6476 151.744 97.9948 152.003 98.2004 152.467C98.4099 152.928 98.366 153.344 98.3087 153.341Z" fill="#263238"/>
<path d="M96.2505 153.813C96.197 153.803 96.1725 153.458 95.9968 153.053C95.838 152.641 95.6096 152.37 95.6425 152.329C95.6817 152.274 96.0301 152.53 96.2012 152.978C96.3933 153.417 96.3183 153.828 96.2505 153.813Z" fill="#263238"/>
<path d="M94.4901 154.256C94.4265 154.253 94.4046 153.897 94.2575 153.491C94.1164 153.084 93.9065 152.787 93.9558 152.748C93.9963 152.71 94.3077 152.975 94.4657 153.425C94.627 153.875 94.5474 154.264 94.4901 154.256Z" fill="#263238"/>
<path d="M99.3372 151.623C99.3292 151.615 99.4202 151.515 99.6418 151.411C99.8593 151.312 100.227 151.211 100.671 151.31L100.736 151.324L100.729 151.39C100.704 151.642 100.429 151.785 100.196 151.811C99.9612 151.844 99.7194 151.85 99.4602 151.871C99.3296 151.877 99.2036 151.894 99.0587 151.888C98.9197 151.885 98.7343 151.846 98.6154 151.719C98.4987 151.599 98.4494 151.454 98.4081 151.322C98.3664 151.188 98.3331 151.05 98.3096 150.909C98.2598 150.615 98.2539 150.323 98.2843 150.045C98.3024 149.907 98.3125 149.77 98.3774 149.625C98.4107 149.555 98.4604 149.48 98.5451 149.432C98.6272 149.384 98.7355 149.375 98.819 149.4C98.9921 149.448 99.0933 149.591 99.1396 149.71C99.1876 149.833 99.2138 149.945 99.2361 150.059C99.2799 150.286 99.2816 150.501 99.2643 150.694C99.2268 151.082 99.1046 151.38 98.998 151.568C98.8906 151.758 98.8055 151.846 98.7945 151.839C98.7528 151.823 99.0697 151.425 99.1093 150.685C99.116 150.502 99.1055 150.301 99.057 150.092C99.0069 149.892 98.9466 149.626 98.7642 149.584C98.5893 149.527 98.5139 149.801 98.4983 150.065C98.473 150.327 98.4802 150.601 98.5265 150.876C98.5779 151.131 98.634 151.425 98.7739 151.581C98.9062 151.731 99.2053 151.687 99.4522 151.678C99.703 151.663 99.9494 151.663 100.168 151.639C100.378 151.621 100.552 151.515 100.571 151.375L100.63 151.455C100.238 151.349 99.8921 151.417 99.6764 151.488C99.4565 151.563 99.3482 151.638 99.3372 151.623Z" fill="#263238"/>
<path d="M101.905 153.883C101.861 153.786 101.794 153.695 101.697 153.643C101.601 153.592 101.472 153.587 101.383 153.651L101.339 153.636C101.154 153.713 101.011 153.882 100.984 154.073C100.957 154.263 101.052 154.466 101.224 154.568C101.397 154.669 101.639 154.657 101.792 154.531C101.979 154.378 102.002 154.098 101.905 153.883Z" fill="white"/>
<path d="M115.866 139.558C115.866 139.558 95.1783 127.872 90.1921 133.414C85.2059 138.956 93.9758 144.906 95.7063 146.029C97.4368 147.153 116.917 155.012 116.917 155.012L120.5 148.528L115.866 139.558Z" fill="#263238"/>
<path d="M99.813 149.121C99.813 149.121 125.369 136.127 128.174 134.848C130.584 133.749 137.363 130.294 139.55 137.125C141.738 143.956 128.599 152.388 128.599 152.388L123.156 149.711L115.635 153.074L106.252 157.334L99.813 149.121Z" fill="#263238"/>
<path d="M120.568 156.786C120.323 156.648 110.388 152.17 110.388 152.17L120.797 147.99L126.711 151.309L120.568 156.786Z" fill="#263238"/>
<path d="M129.866 146.718C129.867 146.72 129.83 146.74 129.755 146.777C129.67 146.817 129.559 146.87 129.418 146.938C129.109 147.08 128.671 147.282 128.107 147.542C126.95 148.067 125.283 148.823 123.196 149.77C118.992 151.659 113.1 154.307 106.31 157.36L106.231 157.395L106.179 157.329C104.496 155.2 102.693 152.92 100.834 150.569C100.459 150.095 100.086 149.622 99.739 149.183L99.6632 149.087L99.7744 149.03C107.907 144.842 115.218 141.118 120.569 138.578C123.242 137.303 125.414 136.304 126.924 135.638C127.676 135.3 128.267 135.052 128.665 134.88C128.858 134.799 129.009 134.736 129.12 134.688C129.223 134.647 129.277 134.627 129.278 134.63C129.28 134.633 129.23 134.659 129.13 134.707C129.02 134.758 128.873 134.828 128.684 134.916C128.28 135.102 127.702 135.368 126.961 135.708C125.462 136.396 123.301 137.414 120.638 138.704C115.307 141.277 108.011 145.02 99.8794 149.211L99.9148 149.058C100.262 149.497 100.635 149.969 101.01 150.444C102.867 152.796 104.668 155.077 106.349 157.207L106.219 157.177C113.023 154.151 118.926 151.526 123.139 149.653C125.236 148.729 126.913 147.991 128.076 147.479C128.646 147.232 129.09 147.04 129.402 146.904C129.546 146.844 129.66 146.796 129.747 146.76C129.825 146.73 129.865 146.715 129.866 146.718Z" fill="#DCE6F2"/>
<path d="M99.9878 135.658C99.9928 135.644 100.196 135.702 100.56 135.818C100.927 135.927 101.444 136.12 102.081 136.363C103.35 136.862 105.068 137.628 106.91 138.57C108.754 139.511 110.386 140.425 111.55 141.111C112.132 141.455 112.599 141.739 112.917 141.942C113.236 142.144 113.407 142.264 113.398 142.276C113.39 142.288 113.204 142.191 112.872 142.01C112.505 141.808 112.034 141.548 111.47 141.237C110.286 140.584 108.646 139.692 106.806 138.754C104.968 137.814 103.267 137.03 102.02 136.498C101.393 136.239 100.886 136.026 100.53 135.894C100.176 135.755 99.9827 135.671 99.9878 135.658Z" fill="#DCE6F2"/>
<path d="M120.576 156.787C120.566 156.777 120.679 156.657 120.893 156.449C121.145 156.213 121.452 155.923 121.814 155.583C122.598 154.858 123.692 153.867 124.909 152.782C125.525 152.236 126.112 151.717 126.65 151.241L126.668 151.393C125.742 150.864 124.959 150.409 124.411 150.082C123.862 149.755 123.547 149.556 123.559 149.537C123.571 149.519 123.907 149.684 124.473 149.983C125.039 150.282 125.837 150.714 126.77 151.229L126.886 151.292L126.788 151.38C126.254 151.86 125.671 152.383 125.059 152.933C123.842 154.018 122.732 154.991 121.921 155.689C121.539 156.011 121.216 156.284 120.952 156.507C120.72 156.697 120.587 156.797 120.576 156.787Z" fill="#DCE6F2"/>
<path d="M119.361 107.865C119.573 107.877 126.916 108.214 128.312 109.697C129.708 111.18 132.813 133.663 132.813 133.663C131.212 133.859 129.375 134.634 128.386 135.034L115.992 140.897L109.675 137.14C108.951 136.708 108.824 135.759 109.412 135.171L103.837 110.308C103.837 110.308 105.186 109.227 107.349 108.61C109.511 107.992 119.361 107.865 119.361 107.865Z" fill="#69A1FA"/>
<path d="M106.221 109.427C106.221 109.427 103.985 109.767 103.061 111.009C100.894 113.919 94.1456 124.306 92.9646 126.818C91.7136 129.479 92.4531 131.333 93.4938 132.282C95.0081 133.663 98.8866 133.815 101.115 131.81C102.07 130.951 107.343 126.928 107.343 126.928L106.221 109.427Z" fill="#69A1FA"/>
<path d="M103.47 113.27C103.464 113.272 103.489 113.347 103.54 113.487C103.598 113.639 103.675 113.842 103.772 114.097C103.964 114.629 104.231 115.404 104.529 116.37C105.131 118.3 105.85 120.998 106.604 123.987C107.339 126.975 108.004 129.679 108.489 131.654C108.733 132.635 108.936 133.427 109.083 133.973C109.156 134.235 109.215 134.443 109.259 134.6C109.301 134.743 109.326 134.818 109.331 134.816C109.336 134.815 109.322 134.738 109.29 134.593C109.253 134.435 109.203 134.224 109.141 133.96C109.009 133.395 108.824 132.603 108.596 131.631C108.136 129.665 107.505 126.946 106.754 123.954C106 120.964 105.264 118.267 104.633 116.341C104.321 115.377 104.038 114.606 103.828 114.078C103.719 113.827 103.633 113.626 103.569 113.476C103.509 113.339 103.475 113.268 103.47 113.27Z" fill="#263238"/>
<path d="M125.57 108.597C125.57 108.597 127.327 108.569 129.347 110.375C130.184 111.122 139.869 124.648 140.764 128.385C141.283 130.552 138.527 134.827 135.862 134.467C132.378 133.996 119.533 128.506 119.533 128.506L122.854 122.61L130.21 124.144L125.126 118.716L125.005 108.707" fill="#69A1FA"/>
<path d="M95.708 125.707C95.711 125.712 95.7582 125.688 95.8454 125.64C95.9469 125.581 96.0712 125.509 96.2229 125.422C96.5667 125.216 97.0306 124.937 97.5948 124.599C98.7497 123.898 100.339 122.921 102.089 121.835C102.49 121.586 102.882 121.342 103.259 121.108L103.155 121.088C104.144 122.465 105.024 123.667 105.666 124.518C106.306 125.37 106.717 125.869 106.746 125.846C106.568 125.6 106.282 125.203 105.748 124.464C105.117 123.58 104.258 122.376 103.281 121.007L103.239 120.948L103.176 120.987C102.798 121.221 102.405 121.464 102.004 121.713C100.254 122.799 98.6743 123.789 97.5346 124.512C96.9813 124.867 96.5263 125.158 96.1896 125.374C96.0447 125.471 95.9255 125.55 95.8281 125.615C95.7464 125.671 95.7051 125.703 95.708 125.707Z" fill="#263238"/>
<path d="M116.923 120.127L122.66 122.948L120.013 127.649L116.47 125.145L116.923 120.127Z" fill="#FFBF9D"/>
<path d="M111.325 120.295L107.54 117.555C107.407 117.458 107.242 117.408 107.075 117.412L101.894 117.544C101.685 117.55 101.513 117.708 101.51 117.906C101.507 118.1 101.542 118.323 101.693 118.436C101.994 118.659 109.726 124.391 109.726 124.391L116.022 123.798L111.325 120.295Z" fill="#DCE6F2"/>
<path d="M116.929 120.127C116.929 120.127 114.893 118.52 114.398 118.41C113.903 118.3 111.655 118.187 111.655 118.187L109.701 119.104L110.825 119.92C111.649 119.796 111.901 119.509 111.901 119.509L113.203 119.664L116.929 120.127Z" fill="#FFBF9D"/>
<path d="M114.557 119.347L111.125 120.255L106.253 120.633C106.253 120.633 106.166 121.557 107.152 121.712C107.732 121.803 108.747 121.926 108.747 121.926C108.747 121.926 108.941 122.779 109.681 123.008C109.681 123.008 109.971 123.62 110.359 123.86C110.406 123.889 110.454 123.912 110.503 123.929C110.96 124.082 111.812 125.323 112.421 125.517C113.031 125.711 116.457 125.145 116.457 125.145L116.909 120.127L114.557 119.347Z" fill="#FFBF9D"/>
<path d="M113.41 121.888C113.407 121.874 113.141 121.927 112.708 121.984C112.275 122.041 111.672 122.095 111.005 122.1C110.337 122.104 109.734 122.058 109.3 122.003C108.866 121.95 108.601 121.899 108.597 121.913C108.596 121.919 108.661 121.937 108.78 121.966C108.899 121.996 109.074 122.031 109.291 122.064C109.725 122.135 110.332 122.191 111.005 122.188C111.678 122.183 112.284 122.118 112.718 122.044C112.934 122.008 113.109 121.972 113.227 121.942C113.347 121.913 113.412 121.893 113.41 121.888Z" fill="#FFC47E" fill-opacity="0.63"/>
<path d="M112.7 123.155C112.69 123.156 112.678 123.276 112.715 123.471C112.737 123.566 112.776 123.687 112.877 123.789C112.976 123.893 113.141 123.951 113.305 123.949C113.469 123.95 113.62 123.907 113.746 123.855C113.872 123.804 113.978 123.749 114.069 123.706C114.248 123.619 114.368 123.587 114.365 123.574C114.364 123.563 114.233 123.575 114.042 123.65C113.851 123.716 113.603 123.863 113.305 123.862C113.158 123.863 113.024 123.816 112.937 123.733C112.85 123.651 112.806 123.545 112.778 123.456C112.727 123.275 112.715 123.153 112.7 123.155Z" fill="#FFC47E" fill-opacity="0.63"/>
<path d="M110.182 123.331C110.179 123.342 110.316 123.387 110.544 123.44C110.771 123.493 111.089 123.552 111.443 123.595C111.798 123.637 112.122 123.654 112.355 123.656C112.59 123.658 112.734 123.647 112.734 123.636C112.735 123.61 112.158 123.594 111.455 123.508C110.751 123.425 110.188 123.306 110.182 123.331Z" fill="#FFC47E" fill-opacity="0.63"/>
<path d="M112.641 124.791C112.625 124.807 112.843 124.983 113.18 125.05C113.516 125.12 113.792 125.045 113.784 125.025C113.78 124.999 113.514 125.031 113.199 124.965C112.883 124.903 112.655 124.769 112.641 124.791Z" fill="#FFC47E" fill-opacity="0.63"/>
<path d="M111.448 124.667C111.443 124.69 111.603 124.74 111.805 124.777C112.007 124.814 112.175 124.825 112.18 124.801C112.185 124.778 112.025 124.728 111.823 124.691C111.621 124.654 111.453 124.643 111.448 124.667Z" fill="#FFC47E" fill-opacity="0.63"/>
<path d="M111.118 120.256C111.127 120.29 111.85 120.112 112.723 119.844C113.16 119.711 113.553 119.581 113.834 119.479C114.115 119.378 114.284 119.3 114.279 119.289C114.274 119.278 114.098 119.335 113.812 119.421C113.497 119.517 113.116 119.633 112.694 119.761C112.273 119.89 111.893 120.007 111.577 120.104C111.292 120.195 111.116 120.246 111.118 120.256Z" fill="#FFC47E" fill-opacity="0.63"/>
<path d="M106.132 121.133C106.132 121.133 106.514 121.032 106.146 120.454C105.778 119.876 104.613 120.488 104.613 120.488L103.126 121.218C103.126 121.218 102.76 121.907 103.149 122.116L103.423 122.476C103.423 122.476 102.829 122.982 103.026 123.466C103.223 123.95 103.783 123.912 103.783 123.912C103.783 123.912 103.659 124.86 103.963 125.245C104.268 125.628 104.564 125.678 104.564 125.678C104.564 125.678 104.791 126.482 105.742 126.767C106.693 127.053 107.196 127.098 107.482 126.729C107.767 126.36 107.962 125.881 107.962 125.881C107.962 125.881 110.093 124.969 110.169 124.451C110.244 123.934 110.154 123.88 110.154 123.88C110.154 123.88 110.347 123.457 110.158 123.127C109.968 122.798 109.13 123.029 109.13 123.029L106.457 123.47C106.457 123.47 108.625 122.648 108.895 122.355C109.166 122.062 108.92 121.672 108.066 121.721C107.212 121.769 104.623 122.083 104.623 122.083C104.623 122.083 104.765 121.848 104.941 121.79C105.116 121.732 105.664 121.469 105.664 121.469L106.132 121.133Z" fill="#FFBF9D"/>
<path d="M105.266 124.878C105.271 124.902 106.357 124.703 107.691 124.433C109.024 124.163 110.101 123.926 110.096 123.902C110.091 123.879 109.006 124.078 107.672 124.348C106.338 124.618 105.26 124.855 105.266 124.878Z" fill="#FFC47E" fill-opacity="0.63"/>
<path d="M106.451 126.308C106.457 126.331 106.809 126.271 107.234 126.162C107.447 126.108 107.637 126.051 107.772 126.001C107.84 125.976 107.894 125.953 107.93 125.932C107.947 125.921 107.961 125.911 107.968 125.901C107.979 125.89 107.969 125.877 107.967 125.881C107.982 125.891 107.632 125.971 107.209 126.079C106.786 126.186 106.445 126.284 106.451 126.308Z" fill="#FFC47E" fill-opacity="0.63"/>
<path d="M104.336 123.725C104.341 123.75 104.861 123.68 105.504 123.616C106.148 123.55 106.672 123.516 106.671 123.491C106.671 123.468 106.142 123.464 105.495 123.529C104.847 123.594 104.331 123.703 104.336 123.725Z" fill="#FFC47E" fill-opacity="0.63"/>
<path d="M103.775 122.4C103.79 122.421 104.008 122.293 104.306 122.211C104.602 122.125 104.858 122.118 104.859 122.093C104.862 122.071 104.593 122.038 104.279 122.128C103.965 122.215 103.76 122.383 103.775 122.4Z" fill="#FFC47E" fill-opacity="0.63"/>
<path d="M101.741 117.98C101.741 117.984 101.774 117.983 101.838 117.98C101.912 117.975 102.003 117.97 102.115 117.962C102.355 117.946 102.703 117.923 103.133 117.901C103.992 117.856 105.182 117.823 106.495 117.866C106.821 117.879 107.152 117.867 107.407 118.018C107.535 118.091 107.649 118.186 107.767 118.273C107.883 118.361 107.997 118.447 108.108 118.531C108.551 118.865 108.952 119.167 109.293 119.423C109.624 119.668 109.896 119.87 110.096 120.018C110.185 120.082 110.259 120.135 110.317 120.177C110.369 120.212 110.396 120.23 110.399 120.227C110.401 120.225 110.377 120.203 110.329 120.163C110.273 120.118 110.203 120.061 110.118 119.992C109.923 119.839 109.657 119.63 109.333 119.375C108.997 119.115 108.6 118.808 108.162 118.469C108.051 118.384 107.938 118.297 107.822 118.208C107.706 118.121 107.591 118.024 107.453 117.945C107.315 117.864 107.15 117.821 106.988 117.804C106.825 117.786 106.662 117.785 106.498 117.779C105.182 117.736 103.989 117.779 103.129 117.839C102.699 117.869 102.352 117.902 102.112 117.929C102.001 117.942 101.91 117.953 101.836 117.962C101.773 117.972 101.74 117.978 101.741 117.98Z" fill="#263238"/>
<path d="M104.915 118.591C104.958 118.526 105.067 118.498 105.17 118.514L105.16 118.511C105.174 118.514 105.187 118.518 105.201 118.521C105.206 118.522 105.212 118.523 105.217 118.525C105.294 118.546 105.366 118.583 105.413 118.644C105.471 118.719 105.475 118.835 105.404 118.9C105.365 118.935 105.31 118.951 105.256 118.957C105.15 118.967 105.035 118.94 104.96 118.868C104.885 118.797 104.859 118.677 104.915 118.591Z" fill="white"/>
<path d="M129.462 132.551C129.464 132.548 129.4 132.517 129.277 132.463C129.142 132.405 128.961 132.327 128.731 132.228C128.242 132.023 127.547 131.733 126.678 131.37C124.909 130.642 122.434 129.624 119.56 128.442L119.596 128.539C120.277 127.332 121.018 126.019 121.786 124.657C122.172 123.971 122.551 123.298 122.918 122.645L122.835 122.681C125.565 123.227 128.045 123.723 130.056 124.125L130.048 124.123C131.692 124.659 132.914 125.362 133.717 125.892C134.119 126.158 134.419 126.383 134.621 126.536C134.716 126.609 134.792 126.667 134.851 126.712C134.903 126.751 134.931 126.77 134.933 126.768C134.935 126.766 134.911 126.743 134.863 126.7C134.806 126.651 134.734 126.588 134.644 126.511C134.448 126.349 134.154 126.115 133.756 125.841C132.962 125.293 131.741 124.57 130.088 124.016L130.085 124.015L130.081 124.014C128.073 123.604 125.595 123.097 122.867 122.54L122.81 122.528L122.783 122.576C122.415 123.23 122.036 123.903 121.649 124.588C120.883 125.951 120.145 127.265 119.465 128.474L119.427 128.541L119.501 128.571C122.384 129.733 124.866 130.735 126.641 131.451C127.517 131.798 128.218 132.076 128.711 132.272C128.945 132.362 129.13 132.433 129.266 132.485C129.393 132.532 129.46 132.555 129.462 132.551Z" fill="#263238"/>
<path d="M125.879 119.655C125.863 119.668 126.075 119.945 126.436 120.38C126.796 120.815 127.305 121.409 127.882 122.052C128.46 122.695 128.999 123.265 129.412 123.659C129.618 123.856 129.793 124.009 129.927 124.102C129.998 124.145 130.047 124.188 130.112 124.178C130.147 124.159 130.134 124.132 130.132 124.124C130.128 124.114 130.125 124.109 130.122 124.109C130.115 124.105 130.119 124.146 130.102 124.15C130.079 124.15 130.022 124.107 129.965 124.058C129.847 123.955 129.686 123.792 129.491 123.588C129.102 123.178 128.577 122.599 128 121.957C127.438 121.332 126.929 120.768 126.52 120.314C126.138 119.897 125.896 119.642 125.879 119.655Z" fill="#263238"/>
<path d="M124.63 116.812C124.662 116.809 124.596 116.368 124.639 115.656C124.657 115.301 124.72 114.881 124.827 114.422C124.943 113.966 125.109 113.473 125.342 112.977C125.582 112.485 125.865 112.042 126.151 111.658C126.446 111.28 126.739 110.958 127.009 110.711C127.546 110.212 127.941 109.967 127.923 109.943C127.917 109.935 127.816 109.992 127.639 110.104C127.549 110.158 127.442 110.228 127.326 110.32C127.209 110.411 127.069 110.509 126.934 110.636C126.649 110.877 126.343 111.198 126.036 111.579C125.738 111.965 125.446 112.415 125.201 112.917C124.963 113.422 124.798 113.926 124.687 114.393C124.586 114.862 124.534 115.291 124.529 115.652C124.517 115.833 124.532 115.996 124.536 116.139C124.539 116.283 124.554 116.405 124.57 116.505C124.599 116.704 124.62 116.814 124.63 116.812Z" fill="#263238"/>
<path d="M115.742 137.373C115.741 137.347 115.366 137.363 114.767 137.315C114.169 137.269 113.346 137.137 112.483 136.845C111.621 136.551 110.898 136.157 110.405 135.833C109.911 135.509 109.633 135.271 109.615 135.29C109.607 135.298 109.671 135.363 109.792 135.476C109.912 135.59 110.099 135.742 110.341 135.917C110.823 136.267 111.553 136.684 112.431 136.984C113.31 137.281 114.152 137.399 114.76 137.419C115.065 137.43 115.311 137.425 115.481 137.409C115.65 137.395 115.743 137.383 115.742 137.373Z" fill="#263238"/>
<path d="M111.711 130.918C111.702 130.924 111.769 131.013 111.895 131.169C112.021 131.325 112.211 131.546 112.45 131.815C112.929 132.352 113.615 133.075 114.414 133.835C115.214 134.596 115.975 135.249 116.54 135.705C116.823 135.933 117.055 136.113 117.219 136.233C117.383 136.354 117.477 136.417 117.484 136.409C117.491 136.401 117.41 136.323 117.259 136.19C117.081 136.035 116.866 135.847 116.613 135.627C116.068 135.152 115.321 134.489 114.524 133.732C113.728 132.974 113.031 132.264 112.533 131.746C112.301 131.506 112.104 131.301 111.941 131.132C111.801 130.988 111.719 130.911 111.711 130.918Z" fill="#263238"/>
<path d="M118.482 101.297C118.757 99.8644 119.025 98.4221 119.035 96.9655C119.046 95.509 118.787 94.0257 118.061 92.7408C117.951 92.546 117.067 91.2583 116.84 91.3093C116.677 91.3456 117.285 92.5751 117.221 92.7209C116.611 94.1121 116.617 95.6906 116.957 97.162C117.297 98.6333 117.815 99.9293 118.482 101.297Z" fill="#263238"/>
<path d="M111.075 110.394C110.918 109.376 110.79 108.572 110.782 108.574C110.782 108.574 107.032 108.694 106.294 105.259C105.938 103.6 105.497 100.125 105.138 96.9768C104.751 93.5943 107.179 90.4995 110.713 89.8632L111.065 89.7999C114.895 89.3274 117.459 92.1389 117.853 95.7728L119.658 108.441L119.01 109.571C117.393 112.389 113.298 112.813 111.075 110.394Z" fill="#FFBF9D"/>
<path d="M110.793 108.574C110.793 108.574 113.114 108.289 115.267 106.395C115.267 106.395 114.615 109.107 110.92 109.452L110.793 108.574Z" fill="#FFC47E" fill-opacity="0.63"/>
<path d="M107.056 100.326C107.098 100.587 107.367 100.769 107.657 100.732C107.946 100.695 108.146 100.453 108.104 100.192C108.061 99.9305 107.792 99.7488 107.503 99.7855C107.214 99.8225 107.013 100.064 107.056 100.326Z" fill="#263238"/>
<path d="M106.209 98.2661C106.287 98.3187 106.625 97.9721 107.185 97.8729C107.743 97.7661 108.208 97.9642 108.256 97.8885C108.28 97.8546 108.191 97.7506 107.987 97.6594C107.787 97.5685 107.462 97.5032 107.114 97.5673C106.766 97.6319 106.498 97.806 106.354 97.9606C106.206 98.1167 106.171 98.243 106.209 98.2661Z" fill="#263238"/>
<path d="M111.909 99.6163C111.952 99.8776 112.221 100.059 112.511 100.022C112.8 99.9848 113 99.7438 112.957 99.482C112.915 99.2206 112.645 99.039 112.356 99.0756C112.067 99.1131 111.867 99.3549 111.909 99.6163Z" fill="#263238"/>
<path d="M111.768 97.493C111.845 97.5456 112.184 97.199 112.743 97.0998C113.301 96.993 113.766 97.1914 113.814 97.1157C113.838 97.0815 113.75 96.9779 113.545 96.887C113.345 96.7962 113.02 96.7309 112.672 96.795C112.324 96.8595 112.055 97.0336 111.912 97.1882C111.765 97.3432 111.731 97.4699 111.768 97.493Z" fill="#263238"/>
<path d="M110.572 101.921C110.569 101.891 110.209 101.897 109.632 101.93C109.486 101.942 109.346 101.939 109.303 101.851C109.25 101.76 109.28 101.604 109.318 101.433C109.386 101.082 109.458 100.714 109.533 100.329C109.825 98.7581 110.007 97.4772 109.94 97.4669C109.873 97.4565 109.582 98.7206 109.29 100.291C109.222 100.678 109.156 101.047 109.094 101.399C109.071 101.562 109.013 101.753 109.127 101.943C109.185 102.037 109.305 102.091 109.402 102.098C109.499 102.108 109.579 102.095 109.651 102.086C110.224 102.013 110.576 101.952 110.572 101.921Z" fill="#263238"/>
<path d="M112.301 101.99C112.208 102.001 112.323 102.576 111.885 103.077C111.449 103.579 110.788 103.632 110.799 103.713C110.798 103.75 110.966 103.798 111.241 103.756C111.51 103.717 111.886 103.564 112.153 103.258C112.42 102.951 112.489 102.593 112.463 102.354C112.438 102.109 112.342 101.979 112.301 101.99Z" fill="#263238"/>
<path d="M111.337 95.3428C111.422 95.4767 111.966 95.3082 112.638 95.2647C113.309 95.2086 113.875 95.295 113.936 95.1504C113.962 95.0815 113.843 94.9628 113.6 94.8624C113.36 94.7616 112.995 94.6902 112.592 94.7197C112.19 94.75 111.841 94.8739 111.621 95.009C111.398 95.1436 111.3 95.2787 111.337 95.3428Z" fill="#263238"/>
<path d="M106.109 96.4658C106.232 96.5682 106.592 96.3741 107.055 96.2849C107.514 96.1805 107.927 96.2116 107.992 96.0698C108.019 96.0016 107.933 95.8925 107.739 95.8096C107.547 95.7267 107.245 95.6849 106.929 95.7514C106.612 95.8184 106.358 95.9769 106.222 96.1291C106.083 96.2817 106.054 96.4148 106.109 96.4658Z" fill="#263238"/>
<path d="M118.086 98.3743C118.143 98.3377 120.447 97.2241 120.842 99.5922C121.236 101.96 118.64 101.846 118.625 101.779C118.609 101.712 118.086 98.3743 118.086 98.3743Z" fill="#FFBF9D"/>
<path d="M119.228 100.769C119.237 100.759 119.276 100.791 119.355 100.812C119.433 100.832 119.56 100.836 119.682 100.77C119.932 100.639 120.088 100.208 120.03 99.7798C120 99.5635 119.918 99.3651 119.809 99.2073C119.704 99.0455 119.565 98.9419 119.428 98.9396C119.291 98.9304 119.209 99.0196 119.19 99.0909C119.167 99.1623 119.191 99.2069 119.178 99.2133C119.173 99.2204 119.118 99.1814 119.122 99.0806C119.125 99.032 119.144 98.9718 119.196 98.9176C119.248 98.8623 119.333 98.8256 119.427 98.8212C119.622 98.8049 119.824 98.9471 119.944 99.1204C120.075 99.2929 120.172 99.5148 120.205 99.7579C120.268 100.238 120.085 100.722 119.739 100.875C119.57 100.945 119.415 100.917 119.33 100.872C119.242 100.825 119.22 100.774 119.228 100.769Z" fill="#FFC47E" fill-opacity="0.63"/>
<path d="M106.138 92.8222C105.699 92.6677 106.722 91.2537 107.652 90.6856C109.058 89.8274 111.297 89.1059 112.745 89.2836C114.489 89.4971 116.003 90.0896 117.069 91.4119C118.136 92.7342 118.715 94.3677 118.924 96.0187C118.988 96.5223 119.015 97.053 118.798 97.5171C118.53 98.0904 117.91 98.5151 118.053 99.2342C118.105 99.4972 118.067 99.7749 117.906 99.9948C117.52 100.521 116.89 100.166 116.564 99.7673C115.867 98.9159 115.632 97.8155 115.416 96.7585C115.263 96.0071 115.109 95.239 115.22 94.4812C115.281 94.0689 115.42 93.6677 115.456 93.2525C115.492 92.8374 115.408 92.384 115.092 92.0936C115.041 92.0466 114.96 91.9892 114.858 91.9274C114.055 91.4386 113.034 91.4019 112.19 91.8246C110.852 92.4952 108.551 93.5394 107.85 93.1748C106.842 92.6501 106.558 92.2553 106.558 92.2553L106.138 92.8222Z" fill="#263238"/>
<defs>
<linearGradient id="paint0_linear_55_321" x1="15.0728" y1="19.8322" x2="29.9653" y2="19.8322" gradientUnits="userSpaceOnUse">
<stop offset="0.11" stop-color="#69A1FA" stop-opacity="0.81"/>
<stop offset="1" stop-color="white" stop-opacity="0"/>
</linearGradient>
</defs>
</svg>
