<svg width="60" height="60" viewBox="0 0 60 60" fill="none" xmlns="http://www.w3.org/2000/svg">
<path d="M31.0763 51.8149C45.1466 51.8149 56.5529 40.4954 56.5529 26.5321C56.5529 12.5688 45.1466 1.24927 31.0763 1.24927C17.006 1.24927 5.59973 12.5688 5.59973 26.5321C5.59973 40.4954 17.006 51.8149 31.0763 51.8149Z" fill="#F0F4F7"/>
<path d="M15.4914 34.4799V49.2799C15.4914 49.2799 15.4914 54.1799 19.2914 54.1799C23.0914 54.1799 23.0914 49.4799 23.0914 49.4799V34.6799C23.0914 34.6799 26.2056 33.4534 27.9914 31.2799C27.9914 31.2799 47.7914 25.3799 54.3914 29.9799V18.2799C54.3914 18.2799 48.7914 22.0799 27.9914 16.4799C27.9914 16.4799 23.9914 13 19.1914 13C14.3914 13 8.29138 16.9069 8.29138 24.0069C8.29138 31.1069 13.6914 34.4799 15.4914 34.4799Z" fill="white" stroke="#B8C0CC" stroke-width="1.88" stroke-miterlimit="10" stroke-linecap="round" stroke-linejoin="round"/>
<path d="M19.3914 28.8798C22.0423 28.8798 24.1914 26.7308 24.1914 24.0798C24.1914 21.4288 22.0423 19.2798 19.3914 19.2798C16.7404 19.2798 14.5914 21.4288 14.5914 24.0798C14.5914 26.7308 16.7404 28.8798 19.3914 28.8798Z" stroke="#B8C0CC" stroke-width="1.88" stroke-miterlimit="10" stroke-linecap="round" stroke-linejoin="round"/>
</svg>
