<svg width="38" height="38" viewBox="0 0 38 38" fill="none" xmlns="http://www.w3.org/2000/svg">
<path d="M20.5833 3.16671H21.0151C26.1786 3.16671 28.7604 3.16671 30.5534 4.42995C31.0671 4.79189 31.5232 5.22112 31.9077 5.70462C33.2499 7.39211 33.2499 9.82203 33.2499 14.6819V18.7122C33.2499 23.4039 33.2499 25.7497 32.5074 27.6233C31.3138 30.6353 28.7895 33.0111 25.5892 34.1346C23.5985 34.8334 21.1061 34.8334 16.1211 34.8334C13.2726 34.8334 11.8483 34.8334 10.7108 34.4341C8.88209 33.7921 7.43961 32.4345 6.75753 30.7133C6.33325 29.6427 6.33325 28.3022 6.33325 25.6213V19" stroke="#1F75FF" stroke-width="2" stroke-linecap="round" stroke-linejoin="round"/>
<path d="M33.2501 19C33.2501 21.9149 30.8871 24.2778 27.9723 24.2778C26.9181 24.2778 25.6754 24.0931 24.6504 24.3677C23.7398 24.6117 23.0285 25.3231 22.7844 26.2337C22.5098 27.2587 22.6945 28.5014 22.6945 29.5556C22.6945 32.4704 20.3316 34.8334 17.4167 34.8334" stroke="#1F75FF" stroke-width="2" stroke-linecap="round" stroke-linejoin="round"/>
<path d="M17.4167 9.5L4.75 9.5M11.0833 3.16667V15.8333" stroke="#1F75FF" stroke-width="2" stroke-linecap="round"/>
</svg>
