<svg width="94" height="24" viewBox="0 0 94 24" fill="none" xmlns="http://www.w3.org/2000/svg">
<rect x="0.5" width="46" height="24" rx="6" fill="#3276E8" fill-opacity="0.1"/>
<path d="M11.38 16.144C10.596 16.144 9.972 15.924 9.508 15.484C9.052 15.044 8.824 14.424 8.824 13.624H10.096C10.096 14.024 10.192 14.356 10.384 14.62C10.584 14.884 10.908 15.016 11.356 15.016C11.796 15.016 12.108 14.892 12.292 14.644C12.476 14.388 12.568 14.064 12.568 13.672V7.6H13.84V13.672C13.84 14.464 13.62 15.076 13.18 15.508C12.74 15.932 12.14 16.144 11.38 16.144ZM15.5395 16V7.6H18.4795C19.1355 7.6 19.6795 7.712 20.1115 7.936C20.5435 8.152 20.8635 8.452 21.0715 8.836C21.2875 9.212 21.3955 9.64 21.3955 10.12C21.3955 10.576 21.2915 10.996 21.0835 11.38C20.8835 11.756 20.5675 12.056 20.1355 12.28C19.7035 12.504 19.1515 12.616 18.4795 12.616H16.8115V16H15.5395ZM16.8115 11.572H18.4195C19.0195 11.572 19.4475 11.444 19.7035 11.188C19.9675 10.924 20.0995 10.568 20.0995 10.12C20.0995 9.656 19.9675 9.296 19.7035 9.04C19.4475 8.776 19.0195 8.644 18.4195 8.644H16.8115V11.572ZM26.3008 16.144C25.5088 16.144 24.8168 15.964 24.2248 15.604C23.6328 15.244 23.1728 14.74 22.8448 14.092C22.5168 13.444 22.3528 12.688 22.3528 11.824C22.3528 10.968 22.5208 10.212 22.8568 9.556C23.1928 8.9 23.6688 8.388 24.2848 8.02C24.9088 7.644 25.6448 7.456 26.4928 7.456C27.4528 7.456 28.2528 7.688 28.8928 8.152C29.5328 8.616 29.9488 9.256 30.1408 10.072H28.7008C28.5728 9.624 28.3208 9.272 27.9448 9.016C27.5688 8.76 27.0848 8.632 26.4928 8.632C25.6128 8.632 24.9208 8.916 24.4168 9.484C23.9128 10.052 23.6608 10.836 23.6608 11.836C23.6608 12.836 23.9088 13.616 24.4048 14.176C24.9008 14.736 25.5608 15.016 26.3848 15.016C27.2168 15.016 27.8408 14.78 28.2568 14.308C28.6808 13.836 28.9288 13.208 29.0008 12.424H26.7208V11.44H30.2848V16H29.1208L29.0128 14.764C28.7328 15.204 28.3808 15.544 27.9568 15.784C27.5328 16.024 26.9808 16.144 26.3008 16.144ZM31.8286 16V7.6H37.1686V8.632H33.1006V11.248H36.8086V12.256H33.1006V14.968H37.1686V16H31.8286Z" fill="#3276E8"/>
<rect x="52.5" width="41" height="24" rx="6" fill="#3276E8" fill-opacity="0.1"/>
<path d="M61.352 16V7.6H64.292C64.948 7.6 65.492 7.712 65.924 7.936C66.356 8.152 66.676 8.452 66.884 8.836C67.1 9.212 67.208 9.64 67.208 10.12C67.208 10.576 67.104 10.996 66.896 11.38C66.696 11.756 66.38 12.056 65.948 12.28C65.516 12.504 64.964 12.616 64.292 12.616H62.624V16H61.352ZM62.624 11.572H64.232C64.832 11.572 65.26 11.444 65.516 11.188C65.78 10.924 65.912 10.568 65.912 10.12C65.912 9.656 65.78 9.296 65.516 9.04C65.26 8.776 64.832 8.644 64.232 8.644H62.624V11.572ZM68.4653 16V7.6H69.7373L73.9493 13.924V7.6H75.2213V16H73.9493L69.7373 9.676V16H68.4653ZM80.5742 16.144C79.7822 16.144 79.0902 15.964 78.4982 15.604C77.9062 15.244 77.4462 14.74 77.1182 14.092C76.7902 13.444 76.6262 12.688 76.6262 11.824C76.6262 10.968 76.7942 10.212 77.1302 9.556C77.4662 8.9 77.9422 8.388 78.5582 8.02C79.1822 7.644 79.9182 7.456 80.7662 7.456C81.7262 7.456 82.5262 7.688 83.1662 8.152C83.8062 8.616 84.2222 9.256 84.4142 10.072H82.9742C82.8462 9.624 82.5942 9.272 82.2182 9.016C81.8422 8.76 81.3582 8.632 80.7662 8.632C79.8862 8.632 79.1942 8.916 78.6902 9.484C78.1862 10.052 77.9342 10.836 77.9342 11.836C77.9342 12.836 78.1822 13.616 78.6782 14.176C79.1742 14.736 79.8342 15.016 80.6582 15.016C81.4902 15.016 82.1142 14.78 82.5302 14.308C82.9542 13.836 83.2022 13.208 83.2742 12.424H80.9942V11.44H84.5582V16H83.3942L83.2862 14.764C83.0062 15.204 82.6542 15.544 82.2302 15.784C81.8062 16.024 81.2542 16.144 80.5742 16.144Z" fill="#3276E8"/>
</svg>
